ISO-10303-21;
HEADER;
/* Generated by software containing ST-Developer
 * from STEP Tools, Inc. (www.steptools.com) 
 */

FILE_DESCRIPTION(
/* description */ (''),
/* implementation_level */ '2;1');

FILE_NAME(
/* name */ 'fixed flange (2 bolt) intake port bore (id).step',
/* time_stamp */ '2026-06-21T21:38:11+07:00',
/* author */ (''),
/* organization */ (''),
/* preprocessor_version */ 'ST-DEVELOPER v20.1',
/* originating_system */ 'Autodesk Translation Framework v15.8.0.0',
/* authorisation */ '');

FILE_SCHEMA (('AUTOMOTIVE_DESIGN { 1 0 10303 214 3 1 1 }'));
ENDSEC;

DATA;
#10=MECHANICAL_DESIGN_GEOMETRIC_PRESENTATION_REPRESENTATION('',(#13),#1170);
#11=SHAPE_REPRESENTATION_RELATIONSHIP('SRR','None',#1177,#12);
#12=ADVANCED_BREP_SHAPE_REPRESENTATION('',(#14),#1169);
#13=STYLED_ITEM('',(#1187),#14);
#14=MANIFOLD_SOLID_BREP('fixed flange (2 bolt) intake port bore (id)',#441);
#15=TOROIDAL_SURFACE('',#477,30.,20.);
#16=LINE('',#847,#26);
#17=LINE('',#851,#27);
#18=LINE('',#855,#28);
#19=LINE('',#868,#29);
#20=LINE('',#1060,#30);
#21=LINE('',#1064,#31);
#22=LINE('',#1077,#32);
#23=LINE('',#1080,#33);
#24=LINE('',#1141,#34);
#25=LINE('',#1162,#35);
#26=VECTOR('',#536,10.);
#27=VECTOR('',#539,10.);
#28=VECTOR('',#544,10.);
#29=VECTOR('',#551,10.);
#30=VECTOR('',#562,10.);
#31=VECTOR('',#565,10.);
#32=VECTOR('',#572,10.);
#33=VECTOR('',#575,10.);
#34=VECTOR('',#594,3.35);
#35=VECTOR('',#611,3.35);
#36=CYLINDRICAL_SURFACE('',#466,5.5);
#37=CYLINDRICAL_SURFACE('',#468,247.5);
#38=CYLINDRICAL_SURFACE('',#471,22.0000003278254);
#39=CYLINDRICAL_SURFACE('',#473,180.);
#40=CYLINDRICAL_SURFACE('',#479,687.5);
#41=CYLINDRICAL_SURFACE('',#482,210.);
#42=CYLINDRICAL_SURFACE('',#485,5.5);
#43=CYLINDRICAL_SURFACE('',#490,6.00000000000003);
#44=CYLINDRICAL_SURFACE('',#492,3.35);
#45=CYLINDRICAL_SURFACE('',#494,10.);
#46=CYLINDRICAL_SURFACE('',#498,7.00000000000043);
#47=CYLINDRICAL_SURFACE('',#500,3.35);
#48=CYLINDRICAL_SURFACE('',#504,4.5);
#49=CYLINDRICAL_SURFACE('',#505,22.0000003278255);
#50=B_SPLINE_SURFACE_WITH_KNOTS('',3,3,((#745,#746,#747,#748,#749),(#750,
#751,#752,#753,#754),(#755,#756,#757,#758,#759),(#760,#761,#762,#763,#764),
(#765,#766,#767,#768,#769),(#770,#771,#772,#773,#774)),.UNSPECIFIED.,.F.,
 .F.,.F.,(4,1,1,4),(4,1,4),(0.,0.285714285714286,0.571428571428571,1.),
(2.59406682792392,3.15556224414597,3.57665680396162),.UNSPECIFIED.);
#51=B_SPLINE_SURFACE_WITH_KNOTS('',3,3,((#802,#803,#804,#805,#806),(#807,
#808,#809,#810,#811),(#812,#813,#814,#815,#816),(#817,#818,#819,#820,#821),
(#822,#823,#824,#825,#826),(#827,#828,#829,#830,#831)),.UNSPECIFIED.,.F.,
 .F.,.F.,(4,1,1,4),(4,1,4),(0.,0.285714285714286,0.571428571428571,1.),
(6.31853820808839,6.73300339032998,7.28562363331878),.UNSPECIFIED.);
#52=B_SPLINE_SURFACE_WITH_KNOTS('',3,3,((#870,#871,#872,#873,#874),(#875,
#876,#877,#878,#879),(#880,#881,#882,#883,#884),(#885,#886,#887,#888,#889),
(#890,#891,#892,#893,#894),(#895,#896,#897,#898,#899)),.UNSPECIFIED.,.F.,
 .F.,.F.,(4,1,1,4),(4,1,4),(0.,0.285714285714286,0.571428571428571,1.),
(2.89706131480127,3.32599411970842,3.89790452625128),.UNSPECIFIED.);
#53=B_SPLINE_SURFACE_WITH_KNOTS('',3,3,((#913,#914,#915,#916),(#917,#918,
#919,#920),(#921,#922,#923,#924),(#925,#926,#927,#928),(#929,#930,#931,
#932),(#933,#934,#935,#936),(#937,#938,#939,#940),(#941,#942,#943,#944),
(#945,#946,#947,#948),(#949,#950,#951,#952),(#953,#954,#955,#956),(#957,
#958,#959,#960),(#961,#962,#963,#964),(#965,#966,#967,#968),(#969,#970,
#971,#972),(#973,#974,#975,#976),(#977,#978,#979,#980)),.UNSPECIFIED.,.T.,
 .F.,.F.,(4,1,1,1,1,1,1,1,1,1,1,1,1,1,4),(4,4),(0.,0.0714285714285714,0.142857142857143,
0.19047619047619,0.285714285714286,0.333333333333333,0.428571428571429,
0.523809523809524,0.571428571428571,0.619047619047619,0.714285714285714,
0.785714285714286,0.857142857142857,0.928571428571429,1.),(0.,1.),
 .UNSPECIFIED.);
#54=B_SPLINE_SURFACE_WITH_KNOTS('',3,3,((#1094,#1095,#1096,#1097,#1098),
(#1099,#1100,#1101,#1102,#1103),(#1104,#1105,#1106,#1107,#1108),(#1109,
#1110,#1111,#1112,#1113),(#1114,#1115,#1116,#1117,#1118),(#1119,#1120,#1121,
#1122,#1123)),.UNSPECIFIED.,.F.,.F.,.F.,(4,1,1,4),(4,1,4),(-2.1748426321213E-5,
0.285714285714286,0.571428571428571,1.),(6.27627257825448,6.70884925893886,
7.28561816651804),.UNSPECIFIED.);
#55=FACE_BOUND('',#87,.T.);
#56=FACE_BOUND('',#102,.T.);
#57=FACE_BOUND('',#107,.T.);
#58=FACE_BOUND('',#111,.T.);
#59=FACE_BOUND('',#112,.T.);
#60=FACE_BOUND('',#113,.T.);
#61=ELLIPSE('',#465,5.42160426461999,4.5);
#62=FACE_OUTER_BOUND('',#86,.T.);
#63=FACE_OUTER_BOUND('',#88,.T.);
#64=FACE_OUTER_BOUND('',#89,.T.);
#65=FACE_OUTER_BOUND('',#90,.T.);
#66=FACE_OUTER_BOUND('',#91,.T.);
#67=FACE_OUTER_BOUND('',#92,.T.);
#68=FACE_OUTER_BOUND('',#93,.T.);
#69=FACE_OUTER_BOUND('',#94,.T.);
#70=FACE_OUTER_BOUND('',#95,.T.);
#71=FACE_OUTER_BOUND('',#96,.T.);
#72=FACE_OUTER_BOUND('',#97,.T.);
#73=FACE_OUTER_BOUND('',#98,.T.);
#74=FACE_OUTER_BOUND('',#99,.T.);
#75=FACE_OUTER_BOUND('',#100,.T.);
#76=FACE_OUTER_BOUND('',#101,.T.);
#77=FACE_OUTER_BOUND('',#103,.T.);
#78=FACE_OUTER_BOUND('',#104,.T.);
#79=FACE_OUTER_BOUND('',#105,.T.);
#80=FACE_OUTER_BOUND('',#106,.T.);
#81=FACE_OUTER_BOUND('',#108,.T.);
#82=FACE_OUTER_BOUND('',#109,.T.);
#83=FACE_OUTER_BOUND('',#110,.T.);
#84=FACE_OUTER_BOUND('',#114,.T.);
#85=FACE_OUTER_BOUND('',#115,.T.);
#86=EDGE_LOOP('',(#281,#282,#283,#284,#285,#286,#287,#288,#289,#290,#291,
#292,#293,#294));
#87=EDGE_LOOP('',(#295,#296));
#88=EDGE_LOOP('',(#297,#298,#299,#300));
#89=EDGE_LOOP('',(#301,#302,#303,#304));
#90=EDGE_LOOP('',(#305,#306,#307,#308));
#91=EDGE_LOOP('',(#309,#310,#311,#312,#313,#314));
#92=EDGE_LOOP('',(#315,#316,#317,#318));
#93=EDGE_LOOP('',(#319,#320,#321,#322,#323,#324));
#94=EDGE_LOOP('',(#325,#326,#327,#328));
#95=EDGE_LOOP('',(#329,#330,#331,#332,#333,#334));
#96=EDGE_LOOP('',(#335,#336,#337,#338));
#97=EDGE_LOOP('',(#339,#340,#341,#342,#343,#344));
#98=EDGE_LOOP('',(#345,#346,#347,#348,#349,#350));
#99=EDGE_LOOP('',(#351,#352,#353,#354));
#100=EDGE_LOOP('',(#355,#356,#357,#358));
#101=EDGE_LOOP('',(#359,#360,#361,#362,#363,#364));
#102=EDGE_LOOP('',(#365));
#103=EDGE_LOOP('',(#366,#367,#368,#369));
#104=EDGE_LOOP('',(#370,#371,#372,#373));
#105=EDGE_LOOP('',(#374,#375));
#106=EDGE_LOOP('',(#376,#377,#378,#379,#380,#381));
#107=EDGE_LOOP('',(#382));
#108=EDGE_LOOP('',(#383,#384,#385,#386));
#109=EDGE_LOOP('',(#387,#388,#389,#390));
#110=EDGE_LOOP('',(#391,#392,#393,#394,#395,#396,#397,#398));
#111=EDGE_LOOP('',(#399));
#112=EDGE_LOOP('',(#400));
#113=EDGE_LOOP('',(#401));
#114=EDGE_LOOP('',(#402,#403,#404));
#115=EDGE_LOOP('',(#405,#406,#407,#408,#409,#410,#411,#412));
#116=B_SPLINE_CURVE_WITH_KNOTS('',3,(#626,#627,#628,#629,#630,#631,#632,
#633),.UNSPECIFIED.,.F.,.F.,(4,2,2,4),(-0.306958344201384,-0.256333924004759,
-0.173750298659178,0.),.UNSPECIFIED.);
#117=B_SPLINE_CURVE_WITH_KNOTS('',3,(#641,#642,#643,#644,#645,#646,#647,
#648,#649,#650),.UNSPECIFIED.,.F.,.F.,(4,2,2,2,4),(-0.38680112551017,-0.319226044578846,
-0.231054357139112,-0.141040936577905,-0.109159712059588),.UNSPECIFIED.);
#118=B_SPLINE_CURVE_WITH_KNOTS('',3,(#654,#655,#656,#657,#658,#659,#660,
#661,#662,#663),.UNSPECIFIED.,.F.,.F.,(4,2,2,2,4),(-0.313817607390506,-0.300405423843044,
-0.253444695546441,-0.175035943248857,-2.59042710368251E-6),
 .UNSPECIFIED.);
#119=B_SPLINE_CURVE_WITH_KNOTS('',3,(#669,#670,#671,#672,#673,#674,#675,
#676,#677,#678,#679,#680,#681,#682,#683,#684,#685,#686,#687,#688,#689,#690,
#691),.UNSPECIFIED.,.F.,.F.,(4,2,2,2,2,3,2,2,2,2,4),(-0.758215730243292,
-0.686973489939462,-0.460150486892623,-0.316714161290633,-0.158357080645317,
0.,0.158357080645316,0.316714161290632,0.460150486892618,0.686973489939459,
0.755517573190349),.UNSPECIFIED.);
#120=B_SPLINE_CURVE_WITH_KNOTS('',3,(#696,#697,#698,#699,#700,#701,#702,
#703,#704,#705,#706,#707),.UNSPECIFIED.,.F.,.F.,(4,2,2,2,2,4),(-0.400892272318021,
-0.292056585433434,-0.209926219809014,-0.139507868901121,-0.0695249656577958,
-0.0652729505557965),.UNSPECIFIED.);
#121=B_SPLINE_CURVE_WITH_KNOTS('',3,(#711,#712,#713,#714,#715,#716,#717,
#718,#719,#720,#721,#722,#723,#724,#725,#726,#727,#728,#729,#730,#731,#732,
#733,#734,#735,#736,#737,#738,#739,#740,#741,#742,#743,#744),
 .UNSPECIFIED.,.F.,.F.,(4,2,2,2,2,2,2,2,2,2,2,2,2,2,2,2,4),(-14.1821709741838,
-13.9337935670312,-13.156145513528,-12.3934495845603,-11.6053413254859,
-10.8292020559179,-9.85178959818025,-8.80613504909912,-7.90436801853206,
-6.73716493623424,-5.64975647229168,-4.79633848011637,-3.73191767415708,
-2.29814756272711,-1.23983747052396,-0.563015110957281,-0.448041915470402),
 .UNSPECIFIED.);
#122=B_SPLINE_CURVE_WITH_KNOTS('',3,(#776,#777,#778,#779,#780),
 .UNSPECIFIED.,.F.,.F.,(4,1,4),(3.07354327491938,3.15556224414597,3.35412689430735),
 .UNSPECIFIED.);
#123=B_SPLINE_CURVE_WITH_KNOTS('',3,(#782,#783,#784,#785,#786,#787),
 .UNSPECIFIED.,.F.,.F.,(4,2,4),(9.99999345476452E-7,0.128094707457407,0.254123592328442),
 .UNSPECIFIED.);
#124=B_SPLINE_CURVE_WITH_KNOTS('',3,(#788,#789,#790,#791,#792,#793),
 .UNSPECIFIED.,.F.,.F.,(4,2,4),(9.99999954767289E-7,0.165820395177804,0.271305494950993),
 .UNSPECIFIED.);
#125=B_SPLINE_CURVE_WITH_KNOTS('',3,(#796,#797,#798,#799,#800),
 .UNSPECIFIED.,.F.,.F.,(4,1,4),(6.52543561249416,6.73300339032998,6.80606827571532),
 .UNSPECIFIED.);
#126=B_SPLINE_CURVE_WITH_KNOTS('',3,(#833,#834,#835,#836,#837,#838),
 .UNSPECIFIED.,.F.,.F.,(4,2,4),(0.161896676551239,0.227184243012168,0.454371216552528),
 .UNSPECIFIED.);
#127=B_SPLINE_CURVE_WITH_KNOTS('',3,(#839,#840,#841,#842,#843,#844),
 .UNSPECIFIED.,.F.,.F.,(4,2,4),(5.62781203305995E-8,0.137020612418458,0.290250876307146),
 .UNSPECIFIED.);
#128=B_SPLINE_CURVE_WITH_KNOTS('',3,(#859,#860,#861,#862,#863,#864),
 .UNSPECIFIED.,.F.,.F.,(4,2,4),(9.99999975919487E-7,0.246441259766281,0.280400060893341),
 .UNSPECIFIED.);
#129=B_SPLINE_CURVE_WITH_KNOTS('',3,(#901,#902,#903,#904),.UNSPECIFIED.,
 .F.,.F.,(4,4),(3.36105204549903,3.64495617214746),.UNSPECIFIED.);
#130=B_SPLINE_CURVE_WITH_KNOTS('',3,(#905,#906,#907,#908,#909,#910,#911,
#912),.UNSPECIFIED.,.F.,.F.,(4,2,2,4),(1.00000079288826E-6,0.0945478558646559,
0.212006849427839,0.424012698851531),.UNSPECIFIED.);
#131=B_SPLINE_CURVE_WITH_KNOTS('',3,(#982,#983,#984,#985,#986,#987,#988,
#989,#990,#991,#992,#993),.UNSPECIFIED.,.F.,.F.,(4,2,2,2,2,4),(-0.790739242116841,
-0.602841896097638,-0.404086541709593,-0.231589872625274,-0.101092964572075,
0.),.UNSPECIFIED.);
#132=B_SPLINE_CURVE_WITH_KNOTS('',3,(#996,#997,#998,#999,#1000,#1001,#1002,
#1003,#1004,#1005,#1006,#1007,#1008,#1009,#1010,#1011,#1012,#1013,#1014,
#1015,#1016,#1017,#1018,#1019,#1020,#1021,#1022,#1023,#1024,#1025,#1026,
#1027,#1028,#1029,#1030,#1031,#1032,#1033),.UNSPECIFIED.,.T.,.F.,(4,2,2,
2,2,2,2,2,2,2,2,2,2,2,2,2,2,2,4),(0.,0.0475138141643027,0.627942744227163,
1.27973480317588,2.05306731892346,2.94687844944146,3.82478757458004,4.85272523999738,
5.97885366242464,7.07914713489993,8.45469005678557,10.0701550492051,11.4591568942555,
12.903474448957,14.20971266094,15.047742201202,15.6284837174894,16.1468501244454,
16.1749534680209),.UNSPECIFIED.);
#133=B_SPLINE_CURVE_WITH_KNOTS('',3,(#1034,#1035,#1036,#1037,#1038,#1039,
#1040,#1041,#1042,#1043,#1044,#1045),.UNSPECIFIED.,.F.,.F.,(4,2,2,2,2,4),
(-1.70154286541815,-1.59575144276361,-1.46231153376242,-1.28211315951863,
-1.07813266403525,-0.845411194854867),.UNSPECIFIED.);
#134=B_SPLINE_CURVE_WITH_KNOTS('',3,(#1048,#1049,#1050,#1051),
 .UNSPECIFIED.,.F.,.F.,(4,4),(-7.17161728058902,-7.08860584448552),
 .UNSPECIFIED.);
#135=B_SPLINE_CURVE_WITH_KNOTS('',3,(#1054,#1055,#1056,#1057),
 .UNSPECIFIED.,.F.,.F.,(4,4),(-8.04138730117448,-7.94753796170282),
 .UNSPECIFIED.);
#136=B_SPLINE_CURVE_WITH_KNOTS('',3,(#1067,#1068,#1069,#1070,#1071,#1072),
 .UNSPECIFIED.,.F.,.F.,(4,2,4),(0.102150613154538,0.187277936433587,0.374555000845161),
 .UNSPECIFIED.);
#137=B_SPLINE_CURVE_WITH_KNOTS('',3,(#1083,#1084,#1085,#1086,#1087,#1088,
#1089,#1090,#1091,#1092),.UNSPECIFIED.,.F.,.F.,(4,2,2,2,4),(6.53768436813132,
6.64061466112781,6.70884925893886,6.80419875884854,6.82156442542838),
 .UNSPECIFIED.);
#138=B_SPLINE_CURVE_WITH_KNOTS('',3,(#1124,#1125,#1126,#1127,#1128,#1129,
#1130,#1131),.UNSPECIFIED.,.F.,.F.,(4,2,2,4),(1.11583781314291E-5,0.160265133492846,
0.229423782423668,0.322707237347432),.UNSPECIFIED.);
#139=B_SPLINE_CURVE_WITH_KNOTS('',3,(#1143,#1144,#1145,#1146,#1147,#1148,
#1149,#1150,#1151,#1152),.UNSPECIFIED.,.F.,.F.,(4,2,2,2,4),(2.79180271415126,
3.0495324813693,3.40963178067278,3.76953807231528,4.03239986542934),
 .UNSPECIFIED.);
#140=CIRCLE('',#456,5.5);
#141=CIRCLE('',#457,180.);
#142=CIRCLE('',#458,22.0000003278254);
#143=CIRCLE('',#459,247.5);
#144=CIRCLE('',#460,5.5);
#145=CIRCLE('',#461,210.);
#146=CIRCLE('',#462,22.0000003278255);
#147=CIRCLE('',#463,22.0000003278255);
#148=CIRCLE('',#464,687.5);
#149=CIRCLE('',#467,5.5);
#150=CIRCLE('',#469,247.5);
#151=CIRCLE('',#470,247.5);
#152=CIRCLE('',#472,22.0000003278254);
#153=CIRCLE('',#474,180.);
#154=CIRCLE('',#475,180.);
#155=CIRCLE('',#476,190.694762173063);
#156=CIRCLE('',#478,10.);
#157=CIRCLE('',#480,687.5);
#158=CIRCLE('',#481,687.5);
#159=CIRCLE('',#483,210.);
#160=CIRCLE('',#484,210.);
#161=CIRCLE('',#486,5.5);
#162=CIRCLE('',#488,6.00000000000004);
#163=CIRCLE('',#489,3.35);
#164=CIRCLE('',#491,6.00000000000004);
#165=CIRCLE('',#493,3.35);
#166=CIRCLE('',#496,7.00000000000043);
#167=CIRCLE('',#497,3.35);
#168=CIRCLE('',#499,7.00000000000043);
#169=CIRCLE('',#501,3.35);
#170=CIRCLE('',#503,22.0000003278255);
#171=VERTEX_POINT('',#622);
#172=VERTEX_POINT('',#623);
#173=VERTEX_POINT('',#625);
#174=VERTEX_POINT('',#634);
#175=VERTEX_POINT('',#636);
#176=VERTEX_POINT('',#638);
#177=VERTEX_POINT('',#640);
#178=VERTEX_POINT('',#651);
#179=VERTEX_POINT('',#653);
#180=VERTEX_POINT('',#664);
#181=VERTEX_POINT('',#666);
#182=VERTEX_POINT('',#668);
#183=VERTEX_POINT('',#692);
#184=VERTEX_POINT('',#694);
#185=VERTEX_POINT('',#708);
#186=VERTEX_POINT('',#709);
#187=VERTEX_POINT('',#775);
#188=VERTEX_POINT('',#781);
#189=VERTEX_POINT('',#795);
#190=VERTEX_POINT('',#832);
#191=VERTEX_POINT('',#846);
#192=VERTEX_POINT('',#848);
#193=VERTEX_POINT('',#850);
#194=VERTEX_POINT('',#854);
#195=VERTEX_POINT('',#858);
#196=VERTEX_POINT('',#865);
#197=VERTEX_POINT('',#867);
#198=VERTEX_POINT('',#900);
#199=VERTEX_POINT('',#981);
#200=VERTEX_POINT('',#994);
#201=VERTEX_POINT('',#1047);
#202=VERTEX_POINT('',#1052);
#203=VERTEX_POINT('',#1059);
#204=VERTEX_POINT('',#1061);
#205=VERTEX_POINT('',#1063);
#206=VERTEX_POINT('',#1065);
#207=VERTEX_POINT('',#1074);
#208=VERTEX_POINT('',#1076);
#209=VERTEX_POINT('',#1078);
#210=VERTEX_POINT('',#1082);
#211=VERTEX_POINT('',#1134);
#212=VERTEX_POINT('',#1139);
#213=VERTEX_POINT('',#1155);
#214=VERTEX_POINT('',#1160);
#215=EDGE_CURVE('',#171,#172,#140,.T.);
#216=EDGE_CURVE('',#173,#171,#116,.T.);
#217=EDGE_CURVE('',#174,#173,#141,.T.);
#218=EDGE_CURVE('',#175,#174,#142,.T.);
#219=EDGE_CURVE('',#176,#175,#143,.T.);
#220=EDGE_CURVE('',#177,#176,#117,.T.);
#221=EDGE_CURVE('',#178,#177,#144,.T.);
#222=EDGE_CURVE('',#179,#178,#118,.T.);
#223=EDGE_CURVE('',#180,#179,#145,.T.);
#224=EDGE_CURVE('',#181,#180,#146,.T.);
#225=EDGE_CURVE('',#182,#181,#119,.T.);
#226=EDGE_CURVE('',#183,#182,#147,.T.);
#227=EDGE_CURVE('',#184,#183,#148,.T.);
#228=EDGE_CURVE('',#172,#184,#120,.T.);
#229=EDGE_CURVE('',#185,#186,#61,.T.);
#230=EDGE_CURVE('',#186,#185,#121,.T.);
#231=EDGE_CURVE('',#178,#187,#122,.T.);
#232=EDGE_CURVE('',#187,#188,#123,.F.);
#233=EDGE_CURVE('',#188,#179,#124,.T.);
#234=EDGE_CURVE('',#189,#177,#125,.T.);
#235=EDGE_CURVE('',#187,#189,#149,.T.);
#236=EDGE_CURVE('',#176,#190,#126,.T.);
#237=EDGE_CURVE('',#189,#190,#127,.T.);
#238=EDGE_CURVE('',#191,#175,#16,.T.);
#239=EDGE_CURVE('',#191,#192,#150,.T.);
#240=EDGE_CURVE('',#192,#193,#17,.T.);
#241=EDGE_CURVE('',#190,#193,#151,.T.);
#242=EDGE_CURVE('',#194,#174,#18,.T.);
#243=EDGE_CURVE('',#191,#194,#152,.T.);
#244=EDGE_CURVE('',#195,#173,#128,.T.);
#245=EDGE_CURVE('',#196,#195,#153,.T.);
#246=EDGE_CURVE('',#197,#196,#19,.T.);
#247=EDGE_CURVE('',#197,#194,#154,.T.);
#248=EDGE_CURVE('',#171,#198,#129,.T.);
#249=EDGE_CURVE('',#198,#195,#130,.F.);
#250=EDGE_CURVE('',#185,#199,#131,.T.);
#251=EDGE_CURVE('',#199,#200,#155,.T.);
#252=EDGE_CURVE('',#200,#200,#132,.T.);
#253=EDGE_CURVE('',#199,#186,#133,.T.);
#254=EDGE_CURVE('',#201,#181,#134,.T.);
#255=EDGE_CURVE('',#201,#202,#156,.T.);
#256=EDGE_CURVE('',#182,#202,#135,.T.);
#257=EDGE_CURVE('',#203,#183,#20,.T.);
#258=EDGE_CURVE('',#203,#204,#157,.T.);
#259=EDGE_CURVE('',#204,#205,#21,.T.);
#260=EDGE_CURVE('',#206,#205,#158,.T.);
#261=EDGE_CURVE('',#184,#206,#136,.T.);
#262=EDGE_CURVE('',#207,#188,#159,.T.);
#263=EDGE_CURVE('',#208,#207,#22,.T.);
#264=EDGE_CURVE('',#208,#209,#160,.T.);
#265=EDGE_CURVE('',#209,#180,#23,.T.);
#266=EDGE_CURVE('',#210,#172,#137,.T.);
#267=EDGE_CURVE('',#198,#210,#161,.T.);
#268=EDGE_CURVE('',#210,#206,#138,.T.);
#269=EDGE_CURVE('',#193,#207,#162,.T.);
#270=EDGE_CURVE('',#211,#211,#163,.T.);
#271=EDGE_CURVE('',#208,#192,#164,.T.);
#272=EDGE_CURVE('',#212,#212,#165,.T.);
#273=EDGE_CURVE('',#212,#211,#24,.T.);
#274=EDGE_CURVE('',#201,#202,#139,.T.);
#275=EDGE_CURVE('',#205,#196,#166,.T.);
#276=EDGE_CURVE('',#213,#213,#167,.T.);
#277=EDGE_CURVE('',#197,#204,#168,.T.);
#278=EDGE_CURVE('',#214,#214,#169,.T.);
#279=EDGE_CURVE('',#214,#213,#25,.T.);
#280=EDGE_CURVE('',#203,#209,#170,.T.);
#281=ORIENTED_EDGE('',*,*,#215,.F.);
#282=ORIENTED_EDGE('',*,*,#216,.F.);
#283=ORIENTED_EDGE('',*,*,#217,.F.);
#284=ORIENTED_EDGE('',*,*,#218,.F.);
#285=ORIENTED_EDGE('',*,*,#219,.F.);
#286=ORIENTED_EDGE('',*,*,#220,.F.);
#287=ORIENTED_EDGE('',*,*,#221,.F.);
#288=ORIENTED_EDGE('',*,*,#222,.F.);
#289=ORIENTED_EDGE('',*,*,#223,.F.);
#290=ORIENTED_EDGE('',*,*,#224,.F.);
#291=ORIENTED_EDGE('',*,*,#225,.F.);
#292=ORIENTED_EDGE('',*,*,#226,.F.);
#293=ORIENTED_EDGE('',*,*,#227,.F.);
#294=ORIENTED_EDGE('',*,*,#228,.F.);
#295=ORIENTED_EDGE('',*,*,#229,.F.);
#296=ORIENTED_EDGE('',*,*,#230,.F.);
#297=ORIENTED_EDGE('',*,*,#222,.T.);
#298=ORIENTED_EDGE('',*,*,#231,.T.);
#299=ORIENTED_EDGE('',*,*,#232,.T.);
#300=ORIENTED_EDGE('',*,*,#233,.T.);
#301=ORIENTED_EDGE('',*,*,#221,.T.);
#302=ORIENTED_EDGE('',*,*,#234,.F.);
#303=ORIENTED_EDGE('',*,*,#235,.F.);
#304=ORIENTED_EDGE('',*,*,#231,.F.);
#305=ORIENTED_EDGE('',*,*,#220,.T.);
#306=ORIENTED_EDGE('',*,*,#236,.T.);
#307=ORIENTED_EDGE('',*,*,#237,.F.);
#308=ORIENTED_EDGE('',*,*,#234,.T.);
#309=ORIENTED_EDGE('',*,*,#219,.T.);
#310=ORIENTED_EDGE('',*,*,#238,.F.);
#311=ORIENTED_EDGE('',*,*,#239,.T.);
#312=ORIENTED_EDGE('',*,*,#240,.T.);
#313=ORIENTED_EDGE('',*,*,#241,.F.);
#314=ORIENTED_EDGE('',*,*,#236,.F.);
#315=ORIENTED_EDGE('',*,*,#218,.T.);
#316=ORIENTED_EDGE('',*,*,#242,.F.);
#317=ORIENTED_EDGE('',*,*,#243,.F.);
#318=ORIENTED_EDGE('',*,*,#238,.T.);
#319=ORIENTED_EDGE('',*,*,#217,.T.);
#320=ORIENTED_EDGE('',*,*,#244,.F.);
#321=ORIENTED_EDGE('',*,*,#245,.F.);
#322=ORIENTED_EDGE('',*,*,#246,.F.);
#323=ORIENTED_EDGE('',*,*,#247,.T.);
#324=ORIENTED_EDGE('',*,*,#242,.T.);
#325=ORIENTED_EDGE('',*,*,#216,.T.);
#326=ORIENTED_EDGE('',*,*,#248,.T.);
#327=ORIENTED_EDGE('',*,*,#249,.T.);
#328=ORIENTED_EDGE('',*,*,#244,.T.);
#329=ORIENTED_EDGE('',*,*,#230,.T.);
#330=ORIENTED_EDGE('',*,*,#250,.T.);
#331=ORIENTED_EDGE('',*,*,#251,.T.);
#332=ORIENTED_EDGE('',*,*,#252,.F.);
#333=ORIENTED_EDGE('',*,*,#251,.F.);
#334=ORIENTED_EDGE('',*,*,#253,.T.);
#335=ORIENTED_EDGE('',*,*,#225,.T.);
#336=ORIENTED_EDGE('',*,*,#254,.F.);
#337=ORIENTED_EDGE('',*,*,#255,.T.);
#338=ORIENTED_EDGE('',*,*,#256,.F.);
#339=ORIENTED_EDGE('',*,*,#227,.T.);
#340=ORIENTED_EDGE('',*,*,#257,.F.);
#341=ORIENTED_EDGE('',*,*,#258,.T.);
#342=ORIENTED_EDGE('',*,*,#259,.T.);
#343=ORIENTED_EDGE('',*,*,#260,.F.);
#344=ORIENTED_EDGE('',*,*,#261,.F.);
#345=ORIENTED_EDGE('',*,*,#223,.T.);
#346=ORIENTED_EDGE('',*,*,#233,.F.);
#347=ORIENTED_EDGE('',*,*,#262,.F.);
#348=ORIENTED_EDGE('',*,*,#263,.F.);
#349=ORIENTED_EDGE('',*,*,#264,.T.);
#350=ORIENTED_EDGE('',*,*,#265,.T.);
#351=ORIENTED_EDGE('',*,*,#215,.T.);
#352=ORIENTED_EDGE('',*,*,#266,.F.);
#353=ORIENTED_EDGE('',*,*,#267,.F.);
#354=ORIENTED_EDGE('',*,*,#248,.F.);
#355=ORIENTED_EDGE('',*,*,#228,.T.);
#356=ORIENTED_EDGE('',*,*,#261,.T.);
#357=ORIENTED_EDGE('',*,*,#268,.F.);
#358=ORIENTED_EDGE('',*,*,#266,.T.);
#359=ORIENTED_EDGE('',*,*,#235,.T.);
#360=ORIENTED_EDGE('',*,*,#237,.T.);
#361=ORIENTED_EDGE('',*,*,#241,.T.);
#362=ORIENTED_EDGE('',*,*,#269,.T.);
#363=ORIENTED_EDGE('',*,*,#262,.T.);
#364=ORIENTED_EDGE('',*,*,#232,.F.);
#365=ORIENTED_EDGE('',*,*,#270,.T.);
#366=ORIENTED_EDGE('',*,*,#271,.F.);
#367=ORIENTED_EDGE('',*,*,#263,.T.);
#368=ORIENTED_EDGE('',*,*,#269,.F.);
#369=ORIENTED_EDGE('',*,*,#240,.F.);
#370=ORIENTED_EDGE('',*,*,#272,.F.);
#371=ORIENTED_EDGE('',*,*,#273,.T.);
#372=ORIENTED_EDGE('',*,*,#270,.F.);
#373=ORIENTED_EDGE('',*,*,#273,.F.);
#374=ORIENTED_EDGE('',*,*,#255,.F.);
#375=ORIENTED_EDGE('',*,*,#274,.T.);
#376=ORIENTED_EDGE('',*,*,#267,.T.);
#377=ORIENTED_EDGE('',*,*,#268,.T.);
#378=ORIENTED_EDGE('',*,*,#260,.T.);
#379=ORIENTED_EDGE('',*,*,#275,.T.);
#380=ORIENTED_EDGE('',*,*,#245,.T.);
#381=ORIENTED_EDGE('',*,*,#249,.F.);
#382=ORIENTED_EDGE('',*,*,#276,.T.);
#383=ORIENTED_EDGE('',*,*,#275,.F.);
#384=ORIENTED_EDGE('',*,*,#259,.F.);
#385=ORIENTED_EDGE('',*,*,#277,.F.);
#386=ORIENTED_EDGE('',*,*,#246,.T.);
#387=ORIENTED_EDGE('',*,*,#278,.F.);
#388=ORIENTED_EDGE('',*,*,#279,.T.);
#389=ORIENTED_EDGE('',*,*,#276,.F.);
#390=ORIENTED_EDGE('',*,*,#279,.F.);
#391=ORIENTED_EDGE('',*,*,#258,.F.);
#392=ORIENTED_EDGE('',*,*,#280,.T.);
#393=ORIENTED_EDGE('',*,*,#264,.F.);
#394=ORIENTED_EDGE('',*,*,#271,.T.);
#395=ORIENTED_EDGE('',*,*,#239,.F.);
#396=ORIENTED_EDGE('',*,*,#243,.T.);
#397=ORIENTED_EDGE('',*,*,#247,.F.);
#398=ORIENTED_EDGE('',*,*,#277,.T.);
#399=ORIENTED_EDGE('',*,*,#252,.T.);
#400=ORIENTED_EDGE('',*,*,#272,.T.);
#401=ORIENTED_EDGE('',*,*,#278,.T.);
#402=ORIENTED_EDGE('',*,*,#229,.T.);
#403=ORIENTED_EDGE('',*,*,#253,.F.);
#404=ORIENTED_EDGE('',*,*,#250,.F.);
#405=ORIENTED_EDGE('',*,*,#224,.T.);
#406=ORIENTED_EDGE('',*,*,#265,.F.);
#407=ORIENTED_EDGE('',*,*,#280,.F.);
#408=ORIENTED_EDGE('',*,*,#257,.T.);
#409=ORIENTED_EDGE('',*,*,#226,.T.);
#410=ORIENTED_EDGE('',*,*,#256,.T.);
#411=ORIENTED_EDGE('',*,*,#274,.F.);
#412=ORIENTED_EDGE('',*,*,#254,.T.);
#413=PLANE('',#455);
#414=PLANE('',#487);
#415=PLANE('',#495);
#416=PLANE('',#502);
#417=ADVANCED_FACE('',(#62,#55),#413,.F.);
#418=ADVANCED_FACE('',(#63),#50,.F.);
#419=ADVANCED_FACE('',(#64),#36,.F.);
#420=ADVANCED_FACE('',(#65),#51,.F.);
#421=ADVANCED_FACE('',(#66),#37,.F.);
#422=ADVANCED_FACE('',(#67),#38,.T.);
#423=ADVANCED_FACE('',(#68),#39,.F.);
#424=ADVANCED_FACE('',(#69),#52,.F.);
#425=ADVANCED_FACE('',(#70),#53,.T.);
#426=ADVANCED_FACE('',(#71),#15,.F.);
#427=ADVANCED_FACE('',(#72),#40,.F.);
#428=ADVANCED_FACE('',(#73),#41,.F.);
#429=ADVANCED_FACE('',(#74),#42,.F.);
#430=ADVANCED_FACE('',(#75),#54,.F.);
#431=ADVANCED_FACE('',(#76,#56),#414,.F.);
#432=ADVANCED_FACE('',(#77),#43,.T.);
#433=ADVANCED_FACE('',(#78),#44,.F.);
#434=ADVANCED_FACE('',(#79),#45,.T.);
#435=ADVANCED_FACE('',(#80,#57),#415,.F.);
#436=ADVANCED_FACE('',(#81),#46,.T.);
#437=ADVANCED_FACE('',(#82),#47,.F.);
#438=ADVANCED_FACE('',(#83,#58,#59,#60),#416,.F.);
#439=ADVANCED_FACE('',(#84),#48,.F.);
#440=ADVANCED_FACE('',(#85),#49,.T.);
#441=CLOSED_SHELL('',(#417,#418,#419,#420,#421,#422,#423,#424,#425,#426,
#427,#428,#429,#430,#431,#432,#433,#434,#435,#436,#437,#438,#439,#440));
#442=DERIVED_UNIT_ELEMENT(#444,1.);
#443=DERIVED_UNIT_ELEMENT(#1172,-3.);
#444=(
MASS_UNIT()
NAMED_UNIT(*)
SI_UNIT(.KILO.,.GRAM.)
);
#445=DERIVED_UNIT((#442,#443));
#446=MEASURE_REPRESENTATION_ITEM('density measure',
POSITIVE_RATIO_MEASURE(7850.),#445);
#447=PROPERTY_DEFINITION_REPRESENTATION(#452,#449);
#448=PROPERTY_DEFINITION_REPRESENTATION(#453,#450);
#449=REPRESENTATION('material name',(#451),#1169);
#450=REPRESENTATION('density',(#446),#1169);
#451=DESCRIPTIVE_REPRESENTATION_ITEM('Steel','Steel');
#452=PROPERTY_DEFINITION('material property','material name',#1179);
#453=PROPERTY_DEFINITION('material property','density of part',#1179);
#454=AXIS2_PLACEMENT_3D('',#620,#506,#507);
#455=AXIS2_PLACEMENT_3D('',#621,#508,#509);
#456=AXIS2_PLACEMENT_3D('',#624,#510,#511);
#457=AXIS2_PLACEMENT_3D('',#635,#512,#513);
#458=AXIS2_PLACEMENT_3D('',#637,#514,#515);
#459=AXIS2_PLACEMENT_3D('',#639,#516,#517);
#460=AXIS2_PLACEMENT_3D('',#652,#518,#519);
#461=AXIS2_PLACEMENT_3D('',#665,#520,#521);
#462=AXIS2_PLACEMENT_3D('',#667,#522,#523);
#463=AXIS2_PLACEMENT_3D('',#693,#524,#525);
#464=AXIS2_PLACEMENT_3D('',#695,#526,#527);
#465=AXIS2_PLACEMENT_3D('',#710,#528,#529);
#466=AXIS2_PLACEMENT_3D('',#794,#530,#531);
#467=AXIS2_PLACEMENT_3D('',#801,#532,#533);
#468=AXIS2_PLACEMENT_3D('',#845,#534,#535);
#469=AXIS2_PLACEMENT_3D('',#849,#537,#538);
#470=AXIS2_PLACEMENT_3D('',#852,#540,#541);
#471=AXIS2_PLACEMENT_3D('',#853,#542,#543);
#472=AXIS2_PLACEMENT_3D('',#856,#545,#546);
#473=AXIS2_PLACEMENT_3D('',#857,#547,#548);
#474=AXIS2_PLACEMENT_3D('',#866,#549,#550);
#475=AXIS2_PLACEMENT_3D('',#869,#552,#553);
#476=AXIS2_PLACEMENT_3D('',#995,#554,#555);
#477=AXIS2_PLACEMENT_3D('',#1046,#556,#557);
#478=AXIS2_PLACEMENT_3D('',#1053,#558,#559);
#479=AXIS2_PLACEMENT_3D('',#1058,#560,#561);
#480=AXIS2_PLACEMENT_3D('',#1062,#563,#564);
#481=AXIS2_PLACEMENT_3D('',#1066,#566,#567);
#482=AXIS2_PLACEMENT_3D('',#1073,#568,#569);
#483=AXIS2_PLACEMENT_3D('',#1075,#570,#571);
#484=AXIS2_PLACEMENT_3D('',#1079,#573,#574);
#485=AXIS2_PLACEMENT_3D('',#1081,#576,#577);
#486=AXIS2_PLACEMENT_3D('',#1093,#578,#579);
#487=AXIS2_PLACEMENT_3D('',#1132,#580,#581);
#488=AXIS2_PLACEMENT_3D('',#1133,#582,#583);
#489=AXIS2_PLACEMENT_3D('',#1135,#584,#585);
#490=AXIS2_PLACEMENT_3D('',#1136,#586,#587);
#491=AXIS2_PLACEMENT_3D('',#1137,#588,#589);
#492=AXIS2_PLACEMENT_3D('',#1138,#590,#591);
#493=AXIS2_PLACEMENT_3D('',#1140,#592,#593);
#494=AXIS2_PLACEMENT_3D('',#1142,#595,#596);
#495=AXIS2_PLACEMENT_3D('',#1153,#597,#598);
#496=AXIS2_PLACEMENT_3D('',#1154,#599,#600);
#497=AXIS2_PLACEMENT_3D('',#1156,#601,#602);
#498=AXIS2_PLACEMENT_3D('',#1157,#603,#604);
#499=AXIS2_PLACEMENT_3D('',#1158,#605,#606);
#500=AXIS2_PLACEMENT_3D('',#1159,#607,#608);
#501=AXIS2_PLACEMENT_3D('',#1161,#609,#610);
#502=AXIS2_PLACEMENT_3D('',#1163,#612,#613);
#503=AXIS2_PLACEMENT_3D('',#1164,#614,#615);
#504=AXIS2_PLACEMENT_3D('',#1165,#616,#617);
#505=AXIS2_PLACEMENT_3D('',#1166,#618,#619);
#506=DIRECTION('axis',(0.,0.,1.));
#507=DIRECTION('refdir',(1.,0.,0.));
#508=DIRECTION('center_axis',(0.,0.,-1.));
#509=DIRECTION('ref_axis',(-1.,0.,0.));
#510=DIRECTION('center_axis',(0.,0.,1.));
#511=DIRECTION('ref_axis',(-1.,0.,0.));
#512=DIRECTION('center_axis',(0.,0.,1.));
#513=DIRECTION('ref_axis',(-0.916990344370503,0.398909398649952,0.));
#514=DIRECTION('center_axis',(0.,0.,-1.));
#515=DIRECTION('ref_axis',(0.593667986660781,0.804710085443282,0.));
#516=DIRECTION('center_axis',(0.,0.,1.));
#517=DIRECTION('ref_axis',(-0.593667986660781,-0.804710085443282,0.));
#518=DIRECTION('center_axis',(0.,0.,1.));
#519=DIRECTION('ref_axis',(0.158022959221784,-0.987435438071163,0.));
#520=DIRECTION('center_axis',(0.,0.,1.));
#521=DIRECTION('ref_axis',(0.801367815895425,-0.598171901418812,0.));
#522=DIRECTION('center_axis',(0.,0.,-1.));
#523=DIRECTION('ref_axis',(-0.563938327776087,-0.825816906139073,0.));
#524=DIRECTION('center_axis',(0.,0.,-1.));
#525=DIRECTION('ref_axis',(-0.563938327776087,-0.825816906139073,0.));
#526=DIRECTION('center_axis',(0.,0.,1.));
#527=DIRECTION('ref_axis',(0.563938327776085,0.825816906139074,0.));
#528=DIRECTION('center_axis',(0.,0.,1.));
#529=DIRECTION('ref_axis',(-0.999999999972224,7.45331525007617E-6,0.));
#530=DIRECTION('center_axis',(0.,0.,1.));
#531=DIRECTION('ref_axis',(0.158022959221784,-0.987435438071163,0.));
#532=DIRECTION('center_axis',(0.,0.,1.));
#533=DIRECTION('ref_axis',(-1.,0.,0.));
#534=DIRECTION('center_axis',(0.,0.,1.));
#535=DIRECTION('ref_axis',(-0.593667986660781,-0.804710085443282,0.));
#536=DIRECTION('',(0.,0.,1.));
#537=DIRECTION('center_axis',(0.,0.,-1.));
#538=DIRECTION('ref_axis',(-0.593667986660781,-0.804710085443282,0.));
#539=DIRECTION('',(0.,0.,1.));
#540=DIRECTION('center_axis',(0.,0.,-1.));
#541=DIRECTION('ref_axis',(-0.593667986660781,-0.804710085443282,0.));
#542=DIRECTION('center_axis',(0.,0.,1.));
#543=DIRECTION('ref_axis',(0.593667986660781,0.804710085443282,0.));
#544=DIRECTION('',(0.,0.,1.));
#545=DIRECTION('center_axis',(0.,0.,-1.));
#546=DIRECTION('ref_axis',(0.593667986660781,0.804710085443282,0.));
#547=DIRECTION('center_axis',(0.,0.,1.));
#548=DIRECTION('ref_axis',(-0.916990344370503,0.398909398649952,0.));
#549=DIRECTION('center_axis',(0.,0.,-1.));
#550=DIRECTION('ref_axis',(-0.916990344370503,0.398909398649952,0.));
#551=DIRECTION('',(0.,0.,1.));
#552=DIRECTION('center_axis',(0.,0.,-1.));
#553=DIRECTION('ref_axis',(-0.916990344370503,0.398909398649952,0.));
#554=DIRECTION('center_axis',(-0.10834790137877,0.994113037972451,-1.56305716319805E-15));
#555=DIRECTION('ref_axis',(0.991168447972427,0.108026971932382,-0.0769108645059419));
#556=DIRECTION('center_axis',(-0.557744599670699,4.15704633049962E-6,0.830012627326169));
#557=DIRECTION('ref_axis',(-0.419890884068984,-0.862602382583478,-0.282150270311892));
#558=DIRECTION('center_axis',(-0.557744599670699,4.15704633049962E-6,0.830012627326169));
#559=DIRECTION('ref_axis',(-0.829593959667535,0.0317551672819512,-0.557463426095412));
#560=DIRECTION('center_axis',(0.,0.,1.));
#561=DIRECTION('ref_axis',(0.563938327776085,0.825816906139074,0.));
#562=DIRECTION('',(0.,0.,1.));
#563=DIRECTION('center_axis',(0.,0.,-1.));
#564=DIRECTION('ref_axis',(0.563938327776085,0.825816906139074,0.));
#565=DIRECTION('',(0.,0.,1.));
#566=DIRECTION('center_axis',(0.,0.,-1.));
#567=DIRECTION('ref_axis',(0.563938327776085,0.825816906139074,0.));
#568=DIRECTION('center_axis',(0.,0.,1.));
#569=DIRECTION('ref_axis',(0.801367815895425,-0.598171901418812,0.));
#570=DIRECTION('center_axis',(0.,0.,-1.));
#571=DIRECTION('ref_axis',(0.801367815895425,-0.598171901418812,0.));
#572=DIRECTION('',(0.,0.,1.));
#573=DIRECTION('center_axis',(0.,0.,-1.));
#574=DIRECTION('ref_axis',(0.801367815895425,-0.598171901418812,0.));
#575=DIRECTION('',(0.,0.,1.));
#576=DIRECTION('center_axis',(0.,0.,1.));
#577=DIRECTION('ref_axis',(-1.,0.,0.));
#578=DIRECTION('center_axis',(0.,0.,1.));
#579=DIRECTION('ref_axis',(-1.,0.,0.));
#580=DIRECTION('center_axis',(0.,0.,-1.));
#581=DIRECTION('ref_axis',(1.,0.,0.));
#582=DIRECTION('center_axis',(4.47799126920346E-8,-3.34254570611027E-8,
0.999999999999998));
#583=DIRECTION('ref_axis',(-0.801367815895429,0.598171901418804,5.58793500360362E-8));
#584=DIRECTION('center_axis',(0.,0.,-1.));
#585=DIRECTION('ref_axis',(1.,0.,0.));
#586=DIRECTION('center_axis',(0.,0.,1.));
#587=DIRECTION('ref_axis',(-0.80136781589543,0.598171901418805,0.));
#588=DIRECTION('center_axis',(-4.47799126920346E-8,3.34254570611027E-8,
-0.999999999999998));
#589=DIRECTION('ref_axis',(-0.801367815895429,0.598171901418804,5.58793500360362E-8));
#590=DIRECTION('center_axis',(0.,0.,1.));
#591=DIRECTION('ref_axis',(1.,0.,0.));
#592=DIRECTION('center_axis',(0.,0.,1.));
#593=DIRECTION('ref_axis',(1.,0.,0.));
#594=DIRECTION('',(0.,0.,1.));
#595=DIRECTION('center_axis',(0.557744599670699,-4.15704633049962E-6,-0.830012627326169));
#596=DIRECTION('ref_axis',(-0.829593959667535,0.0317551672819543,-0.557463426095413));
#597=DIRECTION('center_axis',(0.,0.,-1.));
#598=DIRECTION('ref_axis',(1.,0.,0.));
#599=DIRECTION('center_axis',(-4.39207066566358E-8,1.91063982169924E-8,
0.999999999999999));
#600=DIRECTION('ref_axis',(0.9169903443705,-0.398909398649957,4.78965857451712E-8));
#601=DIRECTION('center_axis',(0.,0.,-1.));
#602=DIRECTION('ref_axis',(1.,0.,0.));
#603=DIRECTION('center_axis',(0.,0.,1.));
#604=DIRECTION('ref_axis',(0.916990344370501,-0.398909398649957,0.));
#605=DIRECTION('center_axis',(4.39207066566358E-8,-1.91063982169924E-8,
-0.999999999999999));
#606=DIRECTION('ref_axis',(0.9169903443705,-0.398909398649957,4.78965857451712E-8));
#607=DIRECTION('center_axis',(0.,0.,1.));
#608=DIRECTION('ref_axis',(1.,0.,0.));
#609=DIRECTION('center_axis',(0.,0.,1.));
#610=DIRECTION('ref_axis',(1.,0.,0.));
#611=DIRECTION('',(0.,0.,1.));
#612=DIRECTION('center_axis',(0.,0.,1.));
#613=DIRECTION('ref_axis',(1.,0.,0.));
#614=DIRECTION('center_axis',(0.,0.,-1.));
#615=DIRECTION('ref_axis',(-0.563938327776087,-0.825816906139073,0.));
#616=DIRECTION('center_axis',(0.557744599670699,-4.15704633048656E-6,-0.830012627326169));
#617=DIRECTION('ref_axis',(-0.830004209701861,-0.00450646363697595,-0.557738920699172));
#618=DIRECTION('center_axis',(0.,0.,1.));
#619=DIRECTION('ref_axis',(-0.563938327776087,-0.825816906139073,0.));
#620=CARTESIAN_POINT('',(0.,0.,0.));
#621=CARTESIAN_POINT('Origin',(-82.2188860836456,-0.498624746904395,4.0000003352761));
#622=CARTESIAN_POINT('',(-64.2968025194427,-19.9747395291178,4.00000624065872));
#623=CARTESIAN_POINT('',(-74.7574174906265,-22.2018562116537,4.000000358445));
#624=CARTESIAN_POINT('Origin',(-69.2593146004984,-22.346313027835,4.0000003352761));
#625=CARTESIAN_POINT('',(-61.5895764266219,-22.3292531923298,4.00000033527602));
#626=CARTESIAN_POINT('Ctrl Pts',(-61.5895764266219,-22.3292531923296,4.0000003352761));
#627=CARTESIAN_POINT('Ctrl Pts',(-61.8140732267267,-22.3134632664753,4.0000003352761));
#628=CARTESIAN_POINT('Ctrl Pts',(-62.0340719764003,-22.2584482896586,4.0000003352761));
#629=CARTESIAN_POINT('Ctrl Pts',(-62.5859881227083,-22.0318207132243,4.0000003352761));
#630=CARTESIAN_POINT('Ctrl Pts',(-62.8843572259442,-21.8150879815114,4.0000003352761));
#631=CARTESIAN_POINT('Ctrl Pts',(-63.6588921411831,-21.1071210076449,4.0000003352761));
#632=CARTESIAN_POINT('Ctrl Pts',(-64.0470516564807,-20.497295092699,4.0000003352761));
#633=CARTESIAN_POINT('Ctrl Pts',(-64.2968007956525,-19.9747431350737,4.0000003352761));
#634=CARTESIAN_POINT('',(-55.699042538126,-10.5580801038481,4.0000003352761));
#635=CARTESIAN_POINT('Origin',(102.217879796786,-96.9423705753763,4.0000003352761));
#636=CARTESIAN_POINT('',(-61.9393040988434,17.7036221435566,4.0000003352761));
#637=CARTESIAN_POINT('Origin',(-75.,0.,4.0000003352761));
#638=CARTESIAN_POINT('',(-70.2963742403597,24.1485911560666,4.00000033527559));
#639=CARTESIAN_POINT('Origin',(84.9935225997,216.869368290769,4.0000003352761));
#640=CARTESIAN_POINT('',(-72.1633889384207,21.2930252038741,4.00000033527608));
#641=CARTESIAN_POINT('Ctrl Pts',(-72.1633889384207,21.2930252038741,4.0000003352761));
#642=CARTESIAN_POINT('Ctrl Pts',(-72.0910182745301,21.6643309341252,4.0000003352761));
#643=CARTESIAN_POINT('Ctrl Pts',(-71.9795661810713,22.0388087633012,4.0000003352761));
#644=CARTESIAN_POINT('Ctrl Pts',(-71.6424426952611,22.8419331946104,4.0000003352761));
#645=CARTESIAN_POINT('Ctrl Pts',(-71.4268611404625,23.1704025382169,4.0000003352761));
#646=CARTESIAN_POINT('Ctrl Pts',(-71.0518464561318,23.6354556774524,4.0000003352761));
#647=CARTESIAN_POINT('Ctrl Pts',(-70.8332832781816,23.8416835012423,4.00000033527826));
#648=CARTESIAN_POINT('Ctrl Pts',(-70.4874815255993,24.0568760316653,4.00000033527826));
#649=CARTESIAN_POINT('Ctrl Pts',(-70.3934694658824,24.106527589598,4.0000003352761));
#650=CARTESIAN_POINT('Ctrl Pts',(-70.2963742403593,24.1485911560657,4.0000003352761));
#651=CARTESIAN_POINT('',(-82.3604028134507,19.6612607778942,3.99996164513097));
#652=CARTESIAN_POINT('Origin',(-77.5613943894332,22.3490635340266,4.0000003352761));
#653=CARTESIAN_POINT('',(-85.5661326122197,21.7656837005058,4.00000033524986));
#654=CARTESIAN_POINT('Ctrl Pts',(-85.5661326122097,21.7656837004547,4.0000003352761));
#655=CARTESIAN_POINT('Ctrl Pts',(-85.4943172528272,21.7796964528346,4.0000003352761));
#656=CARTESIAN_POINT('Ctrl Pts',(-85.4216750504444,21.789340782167,4.0000003351673));
#657=CARTESIAN_POINT('Ctrl Pts',(-85.0922871470809,21.8135953374498,4.0000003351673));
#658=CARTESIAN_POINT('Ctrl Pts',(-84.8359437712333,21.7799762093236,4.0000003352761));
#659=CARTESIAN_POINT('Ctrl Pts',(-84.1779522470748,21.5807958225402,4.0000003352761));
#660=CARTESIAN_POINT('Ctrl Pts',(-83.845452859499,21.3588193994847,4.00000033547181));
#661=CARTESIAN_POINT('Ctrl Pts',(-83.0643093009667,20.7361707439012,4.00000033547181));
#662=CARTESIAN_POINT('Ctrl Pts',(-82.6451414786669,20.1705105738258,4.0000003352761));
#663=CARTESIAN_POINT('Ctrl Pts',(-82.3604028438639,19.6612607608892,4.0000003352761));
#664=CARTESIAN_POINT('',(-91.6571146113224,14.3715186132015,4.0000003352761));
#665=CARTESIAN_POINT('Origin',(-250.656842622845,151.55419424049,4.0000003352761));
#666=CARTESIAN_POINT('',(-95.8968680897655,6.87902016738313,4.00000033576715));
#667=CARTESIAN_POINT('Origin',(-75.,0.,4.0000003352761));
#668=CARTESIAN_POINT('',(-95.8751795950174,-6.94455839489383,4.00000033527792));
#669=CARTESIAN_POINT('Ctrl Pts',(-95.8751795950163,-6.9445583948925,4.0000003352761));
#670=CARTESIAN_POINT('Ctrl Pts',(-96.0673009152179,-6.78329907505586,4.0000003352761));
#671=CARTESIAN_POINT('Ctrl Pts',(-96.2505380554318,-6.61951515211742,4.0000003352761));
#672=CARTESIAN_POINT('Ctrl Pts',(-96.9714368461916,-5.93581335465355,4.0000003352761));
#673=CARTESIAN_POINT('Ctrl Pts',(-97.5617385336058,-5.24681211139273,4.0000003352761));
#674=CARTESIAN_POINT('Ctrl Pts',(-98.2439194409938,-4.21828242017185,4.0000003352761));
#675=CARTESIAN_POINT('Ctrl Pts',(-98.5222096316291,-3.71654718936645,4.0000003352761));
#676=CARTESIAN_POINT('Ctrl Pts',(-98.9314205839038,-2.79755960788339,4.0000003352761));
#677=CARTESIAN_POINT('Ctrl Pts',(-99.1190893906916,-2.24982837847106,4.0000003352761));
#678=CARTESIAN_POINT('Ctrl Pts',(-99.3654852467687,-1.1268124160058,4.0000003352761));
#679=CARTESIAN_POINT('Ctrl Pts',(-99.4237808104463,-0.551433056084979,4.0000003352761));
#680=CARTESIAN_POINT('Ctrl Pts',(-99.4237768761622,-0.0235761206152541,
4.0000003352761));
#681=CARTESIAN_POINT('Ctrl Pts',(-99.423772941878,0.504280814854471,4.0000003352761));
#682=CARTESIAN_POINT('Ctrl Pts',(-99.3654688012394,1.07965930572094,4.0000003352761));
#683=CARTESIAN_POINT('Ctrl Pts',(-99.1190562048057,2.20267159512944,4.0000003352761));
#684=CARTESIAN_POINT('Ctrl Pts',(-98.9313792332116,2.75040002697136,4.0000003352761));
#685=CARTESIAN_POINT('Ctrl Pts',(-98.5221545819741,3.66938150839585,4.0000003352761));
#686=CARTESIAN_POINT('Ctrl Pts',(-98.243856912188,4.17111259077647,4.0000003352761));
#687=CARTESIAN_POINT('Ctrl Pts',(-97.5616606729638,5.19963211286435,4.0000003352761));
#688=CARTESIAN_POINT('Ctrl Pts',(-96.9713487149282,5.88862455663948,4.0000003352761));
#689=CARTESIAN_POINT('Ctrl Pts',(-96.2569655711078,6.5661266748181,4.0000003352761));
#690=CARTESIAN_POINT('Ctrl Pts',(-96.0810676614516,6.72369445546088,4.0000003352761));
#691=CARTESIAN_POINT('Ctrl Pts',(-95.896868089461,6.87902016702206,4.0000003352761));
#692=CARTESIAN_POINT('',(-87.4066433959473,-18.1679722057834,4.0000003352761));
#693=CARTESIAN_POINT('Origin',(-75.,0.,4.0000003352761));
#694=CARTESIAN_POINT('',(-76.7121589015485,-25.6207193227093,4.00000033527319));
#695=CARTESIAN_POINT('Origin',(-475.114243742006,-585.917095176397,4.0000003352761));
#696=CARTESIAN_POINT('Ctrl Pts',(-74.7579504904251,-22.2018425147775,4.0000003352761));
#697=CARTESIAN_POINT('Ctrl Pts',(-74.7706978085507,-22.6978912396593,4.0000003352761));
#698=CARTESIAN_POINT('Ctrl Pts',(-74.8483858890673,-23.2206549631844,4.0000003352761));
#699=CARTESIAN_POINT('Ctrl Pts',(-75.1080880078936,-24.0574967827389,4.0000003352761));
#700=CARTESIAN_POINT('Ctrl Pts',(-75.2674820437288,-24.4171663103263,4.0000003354074));
#701=CARTESIAN_POINT('Ctrl Pts',(-75.6633145213341,-24.9917141446679,4.0000003354074));
#702=CARTESIAN_POINT('Ctrl Pts',(-75.8544817698125,-25.1760443457958,4.00000033527609));
#703=CARTESIAN_POINT('Ctrl Pts',(-76.2351414706057,-25.4494736556945,4.00000033527609));
#704=CARTESIAN_POINT('Ctrl Pts',(-76.445253481023,-25.5515940356804,4.00000033523713));
#705=CARTESIAN_POINT('Ctrl Pts',(-76.68465916262,-25.614067483021,4.00000033523713));
#706=CARTESIAN_POINT('Ctrl Pts',(-76.6983972488079,-25.6174775378465,4.0000003352761));
#707=CARTESIAN_POINT('Ctrl Pts',(-76.7121589015498,-25.6207193227034,4.0000003352761));
#708=CARTESIAN_POINT('',(-86.7953626236059,4.46624051767743,4.00000033527553));
#709=CARTESIAN_POINT('',(-86.7466229096736,-4.51068041246366,4.00000033527652));
#710=CARTESIAN_POINT('Origin',(-87.1582419550791,-0.0236675395137327,4.0000003352761));
#711=CARTESIAN_POINT('Ctrl Pts',(-86.7466229096737,-4.51068041246366,4.0000003352761));
#712=CARTESIAN_POINT('Ctrl Pts',(-86.5568476397546,-5.09254001128445,4.0000003352761));
#713=CARTESIAN_POINT('Ctrl Pts',(-86.3308004161717,-5.66254522850946,4.00000033527614));
#714=CARTESIAN_POINT('Ctrl Pts',(-85.2512219112367,-7.94839738158699,4.00000033527614));
#715=CARTESIAN_POINT('Ctrl Pts',(-84.0882570596295,-9.51216719993035,4.00000033527613));
#716=CARTESIAN_POINT('Ctrl Pts',(-81.2913926054377,-12.0635145936263,4.00000033527613));
#717=CARTESIAN_POINT('Ctrl Pts',(-79.6786952592903,-13.0509038287264,4.00000033527613));
#718=CARTESIAN_POINT('Ctrl Pts',(-76.1142493755628,-14.3752361639968,4.00000033527613));
#719=CARTESIAN_POINT('Ctrl Pts',(-74.169121204024,-14.682164330278,4.00000033527612));
#720=CARTESIAN_POINT('Ctrl Pts',(-70.3360829016422,-14.5450831856976,4.00000033527612));
#721=CARTESIAN_POINT('Ctrl Pts',(-68.4826190677211,-14.1136544980543,4.00000033527614));
#722=CARTESIAN_POINT('Ctrl Pts',(-64.5745987285069,-12.3486471046174,4.00000033527614));
#723=CARTESIAN_POINT('Ctrl Pts',(-63.0458073341706,-11.0152603833471,4.00000033527613));
#724=CARTESIAN_POINT('Ctrl Pts',(-60.9937049497566,-8.81505437767093,4.00000033527613));
#725=CARTESIAN_POINT('Ctrl Pts',(-59.8632410499221,-7.25777950998952,4.00000033527614));
#726=CARTESIAN_POINT('Ctrl Pts',(-58.3985421865539,-3.40494660083353,4.00000033527614));
#727=CARTESIAN_POINT('Ctrl Pts',(-58.0714461206956,-1.48522494692231,4.00000033527614));
#728=CARTESIAN_POINT('Ctrl Pts',(-58.1729903735295,2.89289572523706,4.00000033527614));
#729=CARTESIAN_POINT('Ctrl Pts',(-58.8357031784858,4.80197351353858,4.00000033527613));
#730=CARTESIAN_POINT('Ctrl Pts',(-59.8914800483805,7.16987694786188,4.00000033527613));
#731=CARTESIAN_POINT('Ctrl Pts',(-60.8318508992726,8.92192330535629,4.00000033527612));
#732=CARTESIAN_POINT('Ctrl Pts',(-63.9716917191363,11.9459740672379,4.00000033527612));
#733=CARTESIAN_POINT('Ctrl Pts',(-65.6167427879641,13.0010526635555,4.00000033527613));
#734=CARTESIAN_POINT('Ctrl Pts',(-69.6201346626598,14.5914474145443,4.00000033527613));
#735=CARTESIAN_POINT('Ctrl Pts',(-71.5961381247965,14.7586934892879,4.00000033527612));
#736=CARTESIAN_POINT('Ctrl Pts',(-74.9602847364939,14.7024031025113,4.00000033527612));
#737=CARTESIAN_POINT('Ctrl Pts',(-76.8560398723351,14.2940002272139,4.00000033527612));
#738=CARTESIAN_POINT('Ctrl Pts',(-79.9427250133506,12.9554949344194,4.00000033527612));
#739=CARTESIAN_POINT('Ctrl Pts',(-81.673489683243,11.9851706818208,4.00000033527613));
#740=CARTESIAN_POINT('Ctrl Pts',(-84.3760284973776,9.19978332992541,4.00000033527613));
#741=CARTESIAN_POINT('Ctrl Pts',(-85.565532132707,7.64131160617297,4.00000033527613));
#742=CARTESIAN_POINT('Ctrl Pts',(-86.551306295126,5.19301958144209,4.00000033527613));
#743=CARTESIAN_POINT('Ctrl Pts',(-86.6804566565682,4.83187599269841,4.0000003352761));
#744=CARTESIAN_POINT('Ctrl Pts',(-86.7953626236059,4.46624051767742,4.0000003352761));
#745=CARTESIAN_POINT('Ctrl Pts',(-80.8211425518183,17.919160383951,7.3718127536121));
#746=CARTESIAN_POINT('Ctrl Pts',(-81.5853590630573,18.4815112166683,6.1075158051304));
#747=CARTESIAN_POINT('Ctrl Pts',(-82.5880695528509,19.7332226604154,3.73500900971355));
#748=CARTESIAN_POINT('Ctrl Pts',(-83.0043021011091,21.2906158979957,1.41230439316633));
#749=CARTESIAN_POINT('Ctrl Pts',(-83.0498630245092,21.9930971847922,0.45185837691318));
#750=CARTESIAN_POINT('Ctrl Pts',(-80.982315401589,18.0377595491827,7.59024897538991));
#751=CARTESIAN_POINT('Ctrl Pts',(-81.7530877489153,18.6478944841229,6.34010433188023));
#752=CARTESIAN_POINT('Ctrl Pts',(-82.7258644732266,19.9836440475947,3.99694702437161));
#753=CARTESIAN_POINT('Ctrl Pts',(-83.0625360238257,21.5865189932214,1.71511711874564));
#754=CARTESIAN_POINT('Ctrl Pts',(-83.0695059807883,22.2959621878183,0.77542312179554));
#755=CARTESIAN_POINT('Ctrl Pts',(-81.3676307312038,18.1887964507775,8.02674131698451));
#756=CARTESIAN_POINT('Ctrl Pts',(-82.1806755846915,18.8857574328061,6.80475844259096));
#757=CARTESIAN_POINT('Ctrl Pts',(-83.1568406332313,20.3905969813236,4.51969525405198));
#758=CARTESIAN_POINT('Ctrl Pts',(-83.3977555091395,22.1309178406116,2.3187517325825));
#759=CARTESIAN_POINT('Ctrl Pts',(-83.3501938538232,22.8838679931494,1.42024660531196));
#760=CARTESIAN_POINT('Ctrl Pts',(-82.1786190365488,18.1213673021245,8.69615092531962));
#761=CARTESIAN_POINT('Ctrl Pts',(-83.1393357429897,18.9145749152951,7.49639485389929));
#762=CARTESIAN_POINT('Ctrl Pts',(-84.2993623112741,20.648800086386,5.25656972343555));
#763=CARTESIAN_POINT('Ctrl Pts',(-84.5995508028273,22.6896616502771,3.11300879817522));
#764=CARTESIAN_POINT('Ctrl Pts',(-84.5497622977145,23.5785495872262,2.24206822026707));
#765=CARTESIAN_POINT('Ctrl Pts',(-82.7887456165749,17.7814529846227,9.01266919305575));
#766=CARTESIAN_POINT('Ctrl Pts',(-83.8842154602358,18.5839632710289,7.78509805697874));
#767=CARTESIAN_POINT('Ctrl Pts',(-85.2574656216743,20.3820568936021,5.48411607815286));
#768=CARTESIAN_POINT('Ctrl Pts',(-85.7334656825454,22.5996706888518,3.25290111789019));
#769=CARTESIAN_POINT('Ctrl Pts',(-85.7424877549275,23.5911375690095,2.33775784592465));
#770=CARTESIAN_POINT('Ctrl Pts',(-83.1157479118223,17.4995445326314,9.11778808513927));
#771=CARTESIAN_POINT('Ctrl Pts',(-84.2805893064647,18.2903506263928,7.85349113665756));
#772=CARTESIAN_POINT('Ctrl Pts',(-85.7618180126232,20.0966252859092,5.48098434124071));
#773=CARTESIAN_POINT('Ctrl Pts',(-86.3294909377534,22.3836647021266,3.15827972469349));
#774=CARTESIAN_POINT('Ctrl Pts',(-86.3698475828258,23.4189252526407,2.19783370844034));
#775=CARTESIAN_POINT('',(-82.8700628000041,20.9118845128323,1.99999998281156));
#776=CARTESIAN_POINT('Ctrl Pts',(-82.3604028134498,19.6612607778927,3.99996164513356));
#777=CARTESIAN_POINT('Ctrl Pts',(-82.4242982478933,19.7758995676181,3.80394051755713));
#778=CARTESIAN_POINT('Ctrl Pts',(-82.6289058296936,20.1759268019978,3.13339858593774));
#779=CARTESIAN_POINT('Ctrl Pts',(-82.7856909804387,20.6008798613319,2.46691761057385));
#780=CARTESIAN_POINT('Ctrl Pts',(-82.8700628000042,20.9118845128323,1.99999998281156));
#781=CARTESIAN_POINT('',(-84.3211193065951,23.3651652682272,2.00000033491859));
#782=CARTESIAN_POINT('Ctrl Pts',(-84.3211193070488,23.3651652676458,2.0000003352761));
#783=CARTESIAN_POINT('Ctrl Pts',(-83.987300086815,23.098938917882,2.0000003352761));
#784=CARTESIAN_POINT('Ctrl Pts',(-83.6848105040898,22.7247068925336,2.0000003352761));
#785=CARTESIAN_POINT('Ctrl Pts',(-83.1924149393047,21.8689959120815,2.0000003352761));
#786=CARTESIAN_POINT('Ctrl Pts',(-82.9985337069672,21.3860412500543,2.0000003352761));
#787=CARTESIAN_POINT('Ctrl Pts',(-82.8700629113401,20.911884924044,2.0000003352761));
#788=CARTESIAN_POINT('Ctrl Pts',(-84.3211193067509,23.3651652679926,2.00000033469693));
#789=CARTESIAN_POINT('Ctrl Pts',(-84.5300983562201,23.0939979018771,2.43394501243514));
#790=CARTESIAN_POINT('Ctrl Pts',(-84.752461752488,22.806807527942,2.85695503384681));
#791=CARTESIAN_POINT('Ctrl Pts',(-85.1459903848695,22.3016515962331,3.47955210897395));
#792=CARTESIAN_POINT('Ctrl Pts',(-85.3431161377712,22.0493601827889,3.76243302397664));
#793=CARTESIAN_POINT('Ctrl Pts',(-85.5661326122271,21.7656837004963,4.00000033523157));
#794=CARTESIAN_POINT('Origin',(-77.5613943894332,22.3490635340266,2.));
#795=CARTESIAN_POINT('',(-72.0693142960747,22.6403671598157,2.00000004085904));
#796=CARTESIAN_POINT('Ctrl Pts',(-72.0693142960747,22.6403671598157,2.00000004085904));
#797=CARTESIAN_POINT('Ctrl Pts',(-72.0516420830128,22.3039951492159,2.48806746330029));
#798=CARTESIAN_POINT('Ctrl Pts',(-72.0698232476825,21.8514104735831,3.15486925745726));
#799=CARTESIAN_POINT('Ctrl Pts',(-72.1411710992743,21.4078026141002,3.82540597644975));
#800=CARTESIAN_POINT('Ctrl Pts',(-72.1633889384211,21.2930252038719,4.00000033527946));
#801=CARTESIAN_POINT('Origin',(-77.5613943894332,22.3490635340266,2.));
#802=CARTESIAN_POINT('Ctrl Pts',(-72.2169311513123,23.6477985710429,0.55886385871901));
#803=CARTESIAN_POINT('Ctrl Pts',(-72.0537321929224,22.97621367593,1.50689368291583));
#804=CARTESIAN_POINT('Ctrl Pts',(-71.9813086143793,21.39375925896,3.79526359719017));
#805=CARTESIAN_POINT('Ctrl Pts',(-72.5402679698404,19.9179093503171,6.12798774787565));
#806=CARTESIAN_POINT('Ctrl Pts',(-73.0822410744228,19.157326455157,7.37237698823751));
#807=CARTESIAN_POINT('Ctrl Pts',(-72.2884743616673,23.9422081671359,0.8801377024932));
#808=CARTESIAN_POINT('Ctrl Pts',(-72.0870445474859,23.2750055259536,1.80797321877016));
#809=CARTESIAN_POINT('Ctrl Pts',(-71.926912577294,21.6729915361327,4.05644174610105));
#810=CARTESIAN_POINT('Ctrl Pts',(-72.432692212779,20.127561518419,6.3603466152892));
#811=CARTESIAN_POINT('Ctrl Pts',(-72.9661250435831,19.3202789451677,7.59080690920174));
#812=CARTESIAN_POINT('Ctrl Pts',(-72.1980466617397,24.58560059046,1.52044732689147));
#813=CARTESIAN_POINT('Ctrl Pts',(-71.9328018341568,23.8930778652944,2.40820027817154));
#814=CARTESIAN_POINT('Ctrl Pts',(-71.642763733124,22.1901004457024,4.57770065831838));
#815=CARTESIAN_POINT('Ctrl Pts',(-72.100889439111,20.4854419056559,6.82454685187852));
#816=CARTESIAN_POINT('Ctrl Pts',(-72.647194746491,19.5839808967266,8.02728984752659));
#817=CARTESIAN_POINT('Ctrl Pts',(-71.2703303239289,25.6056489813648,2.33921213477724));
#818=CARTESIAN_POINT('Ctrl Pts',(-70.9633165621261,24.7865526466468,3.20006606311716));
#819=CARTESIAN_POINT('Ctrl Pts',(-70.6399688087042,22.784800727907,5.31342235564323));
#820=CARTESIAN_POINT('Ctrl Pts',(-71.2008659999532,20.809767645075,7.51582779092704));
#821=CARTESIAN_POINT('Ctrl Pts',(-71.8557149824079,19.772949986129,8.696694428131));
#822=CARTESIAN_POINT('Ctrl Pts',(-70.143869235558,25.9770424792528,2.43983802474889));
#823=CARTESIAN_POINT('Ctrl Pts',(-69.8621231243702,25.0453794877769,3.34366163333015));
#824=CARTESIAN_POINT('Ctrl Pts',(-69.6509389456391,22.8268648975503,5.54254663511267));
#825=CARTESIAN_POINT('Ctrl Pts',(-70.3920259585714,20.7272836543954,7.80497461796409));
#826=CARTESIAN_POINT('Ctrl Pts',(-71.1700354193669,19.6403818958606,9.01321726618583));
#827=CARTESIAN_POINT('Ctrl Pts',(-69.4959079401699,26.0034849293316,2.30483919024618));
#828=CARTESIAN_POINT('Ctrl Pts',(-69.2309251976819,25.0220729122281,3.25286901444299));
#829=CARTESIAN_POINT('Ctrl Pts',(-69.085138212198,22.7118837717786,5.54123892871733));
#830=CARTESIAN_POINT('Ctrl Pts',(-69.9249397639276,20.5718578034812,7.87396307940281));
#831=CARTESIAN_POINT('Ctrl Pts',(-70.7714194537742,19.4745955703883,9.11835231976467));
#832=CARTESIAN_POINT('',(-71.5897421572539,25.1979536302262,2.00000033499786));
#833=CARTESIAN_POINT('Ctrl Pts',(-70.2963742403593,24.1485911560663,4.00000033527552));
#834=CARTESIAN_POINT('Ctrl Pts',(-70.4167141324784,24.2455582278618,3.85102456458758));
#835=CARTESIAN_POINT('Ctrl Pts',(-70.527681400157,24.335159735143,3.7019839735127));
#836=CARTESIAN_POINT('Ctrl Pts',(-70.9731959637801,24.6954086393786,3.07407939410454));
#837=CARTESIAN_POINT('Ctrl Pts',(-71.290922920916,24.9538374602657,2.53703476293992));
#838=CARTESIAN_POINT('Ctrl Pts',(-71.5897421571591,25.1979536299402,2.00000033481513));
#839=CARTESIAN_POINT('Ctrl Pts',(-72.069314315104,22.6403675189034,2.0000003352761));
#840=CARTESIAN_POINT('Ctrl Pts',(-72.0934097279909,23.0964692548012,2.0000003352761));
#841=CARTESIAN_POINT('Ctrl Pts',(-72.0660612139856,23.5754525367129,2.00000033527615));
#842=CARTESIAN_POINT('Ctrl Pts',(-71.8903371111749,24.5240604042056,2.00000033527615));
#843=CARTESIAN_POINT('Ctrl Pts',(-71.7414105876098,24.9123420551236,2.0000003352761));
#844=CARTESIAN_POINT('Ctrl Pts',(-71.5897421567746,25.1979536299717,2.0000003352761));
#845=CARTESIAN_POINT('Origin',(84.9935225997,216.869368290769,-6.9999996647239));
#846=CARTESIAN_POINT('',(-61.9393040988434,17.7036221435566,-6.9999996647239));
#847=CARTESIAN_POINT('',(-61.9393040988434,17.7036221435566,-6.9999996647239));
#848=CARTESIAN_POINT('',(-73.7139407328855,26.9530944158427,-6.99999984131964));
#849=CARTESIAN_POINT('Origin',(84.9935225997,216.869368290769,-6.9999996647239));
#850=CARTESIAN_POINT('',(-73.7139407328855,26.9530944158427,2.00000015868036));
#851=CARTESIAN_POINT('',(-73.7139407328855,26.9530944158427,-6.9999996647239));
#852=CARTESIAN_POINT('Origin',(84.9935225997,216.869368290769,2.0000003352761));
#853=CARTESIAN_POINT('Origin',(-75.,0.,-6.9999996647239));
#854=CARTESIAN_POINT('',(-55.699042538126,-10.5580801038481,-6.9999996647239));
#855=CARTESIAN_POINT('',(-55.699042538126,-10.5580801038481,-6.9999996647239));
#856=CARTESIAN_POINT('Origin',(-75.,0.,-6.9999996647239));
#857=CARTESIAN_POINT('Origin',(102.217879796786,-96.9423705753763,-6.9999996647239));
#858=CARTESIAN_POINT('',(-62.3847466838526,-24.1002443324913,2.00000033489499));
#859=CARTESIAN_POINT('Ctrl Pts',(-62.3847466839571,-24.100244332103,2.000000334593));
#860=CARTESIAN_POINT('Ctrl Pts',(-62.1538620406294,-23.578510266037,2.59101203188675));
#861=CARTESIAN_POINT('Ctrl Pts',(-61.9260560523521,-23.0702065377177,3.20274602728692));
#862=CARTESIAN_POINT('Ctrl Pts',(-61.6566166346193,-22.47656866045,3.84464279384074));
#863=CARTESIAN_POINT('Ctrl Pts',(-61.6233643757402,-22.403432079236,3.92253855220633));
#864=CARTESIAN_POINT('Ctrl Pts',(-61.5895764266219,-22.3292531923297,4.00000033527597));
#865=CARTESIAN_POINT('',(-62.8403821899045,-25.1386788183849,2.0000003352761));
#866=CARTESIAN_POINT('Origin',(102.217879796786,-96.9423705753763,2.0000003352761));
#867=CARTESIAN_POINT('',(-62.8403821899045,-25.1386788183849,-6.9999996647239));
#868=CARTESIAN_POINT('',(-62.8403821899045,-25.1386788183849,-6.9999996647239));
#869=CARTESIAN_POINT('Origin',(102.217879796786,-96.9423705753763,-6.9999996647239));
#870=CARTESIAN_POINT('Ctrl Pts',(-65.6415771095125,-18.2036115606381,7.30383789972437));
#871=CARTESIAN_POINT('Ctrl Pts',(-65.1131601615687,-18.6650674049914,6.3022163825816));
#872=CARTESIAN_POINT('Ctrl Pts',(-64.120625699637,-19.9395712533048,3.89765180791329));
#873=CARTESIAN_POINT('Ctrl Pts',(-63.7248042543563,-21.5726215149133,1.54262079225844));
#874=CARTESIAN_POINT('Ctrl Pts',(-63.7635262583502,-22.5615117692525,0.29177561191452));
#875=CARTESIAN_POINT('Ctrl Pts',(-65.4702727073069,-18.3532082340015,7.53553842404619));
#876=CARTESIAN_POINT('Ctrl Pts',(-64.9446203383791,-18.8508759009857,6.54612765974671));
#877=CARTESIAN_POINT('Ctrl Pts',(-63.9876724177885,-20.2062683686467,4.17371101772865));
#878=CARTESIAN_POINT('Ctrl Pts',(-63.681614228714,-21.8817015130582,1.86286200130384));
#879=CARTESIAN_POINT('Ctrl Pts',(-63.7755026210395,-22.867366506207,0.644026768628361));
#880=CARTESIAN_POINT('Ctrl Pts',(-65.0435871242584,-18.5552485318847,7.99835242833768));
#881=CARTESIAN_POINT('Ctrl Pts',(-64.4984813561838,-19.1213940348342,7.03314407196993));
#882=CARTESIAN_POINT('Ctrl Pts',(-63.5468779523648,-20.6444179723997,4.7244697544898));
#883=CARTESIAN_POINT('Ctrl Pts',(-63.3533709772345,-22.4583970649814,2.50107651030948));
#884=CARTESIAN_POINT('Ctrl Pts',(-63.5312765498225,-23.486907845318,1.34545966330374));
#885=CARTESIAN_POINT('Ctrl Pts',(-64.1134116301361,-18.5201817425359,8.68863489914121));
#886=CARTESIAN_POINT('Ctrl Pts',(-63.4685893289012,-19.1681636412119,7.74214079030998));
#887=CARTESIAN_POINT('Ctrl Pts',(-62.3377320060033,-20.9282142709963,5.48184023757));
#888=CARTESIAN_POINT('Ctrl Pts',(-62.0933518333354,-23.0624368480958,3.32036150127862));
#889=CARTESIAN_POINT('Ctrl Pts',(-62.296538431751,-24.2836530921668,2.20606418556433));
#890=CARTESIAN_POINT('Ctrl Pts',(-63.4109084581753,-18.1480243315952,8.97831843740943));
#891=CARTESIAN_POINT('Ctrl Pts',(-62.6677309969893,-18.8094297646311,8.00739148474434));
#892=CARTESIAN_POINT('Ctrl Pts',(-61.3212033851787,-20.642980896427,5.68012924748015));
#893=CARTESIAN_POINT('Ctrl Pts',(-60.8930682511943,-22.9722072086239,3.42171786913175));
#894=CARTESIAN_POINT('Ctrl Pts',(-61.0309324316117,-24.3611828154936,2.23823046529226));
#895=CARTESIAN_POINT('Ctrl Pts',(-63.0445650640189,-17.8352106846533,9.04981323125153));
#896=CARTESIAN_POINT('Ctrl Pts',(-62.2520534570346,-18.4913848419679,8.04819171410876));
#897=CARTESIAN_POINT('Ctrl Pts',(-60.7975099851998,-20.3376789944634,5.64362713944046));
#898=CARTESIAN_POINT('Ctrl Pts',(-60.274027499815,-22.7473971315062,3.2885961237856));
#899=CARTESIAN_POINT('Ctrl Pts',(-60.3769659544456,-24.2124497413903,2.03775094344168));
#900=CARTESIAN_POINT('',(-63.8616040789609,-21.2874013850662,2.00033952904781));
#901=CARTESIAN_POINT('Ctrl Pts',(-64.2968025194427,-19.9747395291178,4.00000624065871));
#902=CARTESIAN_POINT('Ctrl Pts',(-64.0997870627982,-20.3868711315,3.32506860025112));
#903=CARTESIAN_POINT('Ctrl Pts',(-63.9518449207022,-20.8269265953757,2.65530573920043));
#904=CARTESIAN_POINT('Ctrl Pts',(-63.8615465721877,-21.2874000649681,2.00034652932581));
#905=CARTESIAN_POINT('Ctrl Pts',(-62.3847466833125,-24.1002443317915,2.0000003352761));
#906=CARTESIAN_POINT('Ctrl Pts',(-62.6342324484084,-23.907680723554,2.0000003352761));
#907=CARTESIAN_POINT('Ctrl Pts',(-62.8244061869445,-23.6771051548751,2.0000003352761));
#908=CARTESIAN_POINT('Ctrl Pts',(-63.1197425247978,-23.2690995579354,2.0000003352761));
#909=CARTESIAN_POINT('Ctrl Pts',(-63.2613274977901,-23.0220880726964,2.00000033527605));
#910=CARTESIAN_POINT('Ctrl Pts',(-63.5988963871612,-22.3076229949269,2.00000033527605));
#911=CARTESIAN_POINT('Ctrl Pts',(-63.7633868303616,-21.7888638117429,2.0000003352761));
#912=CARTESIAN_POINT('Ctrl Pts',(-63.8614988480563,-21.2876434618898,2.0000003352761));
#913=CARTESIAN_POINT('Ctrl Pts',(-93.3904254203842,-0.589909663848649,54.5000025779008));
#914=CARTESIAN_POINT('Ctrl Pts',(-88.2093803769114,-0.025230059048201,34.2040851674502));
#915=CARTESIAN_POINT('Ctrl Pts',(-86.4125720320787,0.170603217356238,13.7040844199087));
#916=CARTESIAN_POINT('Ctrl Pts',(-88.0000003858861,-0.00240983463533113,
-6.9999996647239));
#917=CARTESIAN_POINT('Ctrl Pts',(-93.3904254203842,-3.50710284218203,54.5000025779008));
#918=CARTESIAN_POINT('Ctrl Pts',(-88.2088071814083,-2.31272950494607,34.2040851674502));
#919=CARTESIAN_POINT('Ctrl Pts',(-86.4123964098275,-1.89687364771859,13.7040844199087));
#920=CARTESIAN_POINT('Ctrl Pts',(-88.0000003858861,-2.26281953019042,-6.9999996647239));
#921=CARTESIAN_POINT('Ctrl Pts',(-92.0609002744672,-9.34480847004102,54.5000025779008));
#922=CARTESIAN_POINT('Ctrl Pts',(-87.1678292110097,-6.88397568464458,34.2040851674502));
#923=CARTESIAN_POINT('Ctrl Pts',(-85.4706119806654,-6.03223254499325,13.7040844199086));
#924=CARTESIAN_POINT('Ctrl Pts',(-86.9698075441382,-6.78621088425488,-6.9999996647239));
#925=CARTESIAN_POINT('Ctrl Pts',(-87.0850929235414,-15.5680492362162,54.5000025779008));
#926=CARTESIAN_POINT('Ctrl Pts',(-83.2683701873055,-11.7630054374339,34.2040851674502));
#927=CARTESIAN_POINT('Ctrl Pts',(-81.944853190587,-10.4425039043195,13.7040844199087));
#928=CARTESIAN_POINT('Ctrl Pts',(-83.1142647358032,-11.6083371219396,-6.9999996647239));
#929=CARTESIAN_POINT('Ctrl Pts',(-79.4173208144564,-20.0107010770006,54.5000025779008));
#930=CARTESIAN_POINT('Ctrl Pts',(-77.2601528094169,-15.2421554637889,34.2040851674502));
#931=CARTESIAN_POINT('Ctrl Pts',(-76.511894194688,-13.5897182404778,13.7040844199087));
#932=CARTESIAN_POINT('Ctrl Pts',(-77.1728322151825,-15.0507602598621,-6.9999996647239));
#933=CARTESIAN_POINT('Ctrl Pts',(-71.3210120888003,-20.6149084833293,54.5000025779008));
#934=CARTESIAN_POINT('Ctrl Pts',(-70.9155215327172,-15.7178346561536,34.2040851674503));
#935=CARTESIAN_POINT('Ctrl Pts',(-70.7751059082545,-14.0185130651441,13.7040844199087));
#936=CARTESIAN_POINT('Ctrl Pts',(-70.8993447829461,-15.5189350415445,-6.9999996647239));
#937=CARTESIAN_POINT('Ctrl Pts',(-62.1565265331117,-17.0189196369639,54.5000025779008));
#938=CARTESIAN_POINT('Ctrl Pts',(-63.734588365613,-12.8992651932285,34.2040851674502));
#939=CARTESIAN_POINT('Ctrl Pts',(-64.2816770630115,-11.4703280162031,13.7040844199086));
#940=CARTESIAN_POINT('Ctrl Pts',(-63.7981722727704,-12.7325552728669,-6.9999996647239));
#941=CARTESIAN_POINT('Ctrl Pts',(-55.2357667401813,-9.57865864644883,54.5000025779008));
#942=CARTESIAN_POINT('Ctrl Pts',(-58.3110055235952,-7.068621579381,34.2040851674503));
#943=CARTESIAN_POINT('Ctrl Pts',(-59.377795159949,-6.19835738727502,13.7040844199087));
#944=CARTESIAN_POINT('Ctrl Pts',(-58.4355680226517,-6.9674115020218,-6.9999996647239));
#945=CARTESIAN_POINT('Ctrl Pts',(-53.7245525693295,0.484959014047182,54.5000025779008));
#946=CARTESIAN_POINT('Ctrl Pts',(-57.1274628089531,0.816334053672127,34.2040851674503));
#947=CARTESIAN_POINT('Ctrl Pts',(-58.3072149331412,0.931990981068142,13.7040844199086));
#948=CARTESIAN_POINT('Ctrl Pts',(-57.2645920347655,0.830460473375026,-6.9999996647239));
#949=CARTESIAN_POINT('Ctrl Pts',(-56.0635056701539,7.99336370089567,54.5000025779008));
#950=CARTESIAN_POINT('Ctrl Pts',(-58.9592778235485,6.70130568483518,34.2040851674502));
#951=CARTESIAN_POINT('Ctrl Pts',(-59.9641880149002,6.25253027298961,13.7040844199087));
#952=CARTESIAN_POINT('Ctrl Pts',(-59.0769479342034,6.64840591434165,-6.9999996647239));
#953=CARTESIAN_POINT('Ctrl Pts',(-60.4793468635244,14.51117189096,54.5000025779008));
#954=CARTESIAN_POINT('Ctrl Pts',(-62.4206378103224,11.8077867320891,34.2040851674502));
#955=CARTESIAN_POINT('Ctrl Pts',(-63.0933917514566,10.8704856648281,13.7040844199087));
#956=CARTESIAN_POINT('Ctrl Pts',(-62.498596634626,11.6987799985862,-6.9999996647239));
#957=CARTESIAN_POINT('Ctrl Pts',(-68.4000744655331,19.0805360990412,54.5000025779008));
#958=CARTESIAN_POINT('Ctrl Pts',(-68.6266798807089,15.3887615133676,34.2040851674502));
#959=CARTESIAN_POINT('Ctrl Pts',(-68.7054636567087,14.1082587049633,13.7040844199086));
#960=CARTESIAN_POINT('Ctrl Pts',(-68.6360336752748,15.2393871942914,-6.9999996647239));
#961=CARTESIAN_POINT('Ctrl Pts',(-78.3810622067235,19.0662912318468,54.5000025779008));
#962=CARTESIAN_POINT('Ctrl Pts',(-76.4481566055057,15.3773779770222,34.2040851674502));
#963=CARTESIAN_POINT('Ctrl Pts',(-75.7776533007345,14.0980976470056,13.7040844199087));
#964=CARTESIAN_POINT('Ctrl Pts',(-76.369879218645,15.2283494487771,-6.9999996647239));
#965=CARTESIAN_POINT('Ctrl Pts',(-86.4622389013349,15.17923090632,54.5000025779008));
#966=CARTESIAN_POINT('Ctrl Pts',(-82.7802368727334,12.3312996057789,34.2040851674503));
#967=CARTESIAN_POINT('Ctrl Pts',(-81.5035072190497,11.3438486450867,13.7040844199087));
#968=CARTESIAN_POINT('Ctrl Pts',(-82.6316414795966,12.2164306933494,-6.9999996647239));
#969=CARTESIAN_POINT('Ctrl Pts',(-92.0606241484953,8.15855529220784,54.5000025779008));
#970=CARTESIAN_POINT('Ctrl Pts',(-87.1674728448334,6.83029912632052,34.2040851674502));
#971=CARTESIAN_POINT('Ctrl Pts',(-85.4703734374009,6.36943944833583,13.7040844199086));
#972=CARTESIAN_POINT('Ctrl Pts',(-86.9695935857933,6.77640589644758,-6.9999996647239));
#973=CARTESIAN_POINT('Ctrl Pts',(-93.3904254203842,2.32728351448473,54.5000025779008));
#974=CARTESIAN_POINT('Ctrl Pts',(-88.2088451876486,2.26047163763591,34.2040851674503));
#975=CARTESIAN_POINT('Ctrl Pts',(-86.4124080546179,2.23752926728644,13.7040844199087));
#976=CARTESIAN_POINT('Ctrl Pts',(-88.0000003858861,2.25799986091976,-6.9999996647239));
#977=CARTESIAN_POINT('Ctrl Pts',(-93.3904254203842,-0.589909663848644,54.5000025779008));
#978=CARTESIAN_POINT('Ctrl Pts',(-88.2093803769114,-0.0252300590481973,
34.2040851674502));
#979=CARTESIAN_POINT('Ctrl Pts',(-86.4125720320787,0.170603217356242,13.7040844199087));
#980=CARTESIAN_POINT('Ctrl Pts',(-88.0000003858861,-0.00240983463532742,
-6.9999996647239));
#981=CARTESIAN_POINT('',(-87.7461133919663,0.0252611865944937,-3.19288512027252));
#982=CARTESIAN_POINT('Ctrl Pts',(-86.7953626236059,4.46624051767741,4.00000033527552));
#983=CARTESIAN_POINT('Ctrl Pts',(-86.8017587139525,4.50098216482992,3.08088365654255));
#984=CARTESIAN_POINT('Ctrl Pts',(-86.8438834356157,4.44858969357383,2.1531108570535));
#985=CARTESIAN_POINT('Ctrl Pts',(-87.0105848501707,4.09289833882375,0.337401871078562));
#986=CARTESIAN_POINT('Ctrl Pts',(-87.1304651941903,3.79220650568118,-0.457746630056073));
#987=CARTESIAN_POINT('Ctrl Pts',(-87.3600120242097,3.04391595136443,-1.67989674565353));
#988=CARTESIAN_POINT('Ctrl Pts',(-87.4658471447328,2.6282448104847,-2.12894875549725));
#989=CARTESIAN_POINT('Ctrl Pts',(-87.6147993434218,1.81801925746183,-2.71687905805082));
#990=CARTESIAN_POINT('Ctrl Pts',(-87.6691087086485,1.43213711537854,-2.91233920998839));
#991=CARTESIAN_POINT('Ctrl Pts',(-87.7310307151614,0.695075819310923,-3.13426313299742));
#992=CARTESIAN_POINT('Ctrl Pts',(-87.7457653272973,0.362183173548229,-3.18683137377137));
#993=CARTESIAN_POINT('Ctrl Pts',(-87.7461133919663,0.0252611865944992,-3.19288512027257));
#994=CARTESIAN_POINT('',(-88.0000003858861,-0.00240983463533113,-6.9999996647239));
#995=CARTESIAN_POINT('Origin',(-277.010631845432,-20.602587555557,7.66649935076133));
#996=CARTESIAN_POINT('Ctrl Pts',(-88.0000003858861,-0.00240983463533097,
-6.9999996647239));
#997=CARTESIAN_POINT('Ctrl Pts',(-88.0000003858861,-0.160789215183007,-6.9999996647239));
#998=CARTESIAN_POINT('Ctrl Pts',(-87.9974716034026,-0.319167728763634,-6.99999966455841));
#999=CARTESIAN_POINT('Ctrl Pts',(-87.9308659618472,-2.4112502696398,-6.99999966455841));
#1000=CARTESIAN_POINT('Ctrl Pts',(-87.4945309528562,-4.33483860374696,-6.99999966455841));
#1001=CARTESIAN_POINT('Ctrl Pts',(-85.8375071448312,-8.09301857260484,-6.99999966455841));
#1002=CARTESIAN_POINT('Ctrl Pts',(-84.6136644374738,-9.69356957100268,-6.99999966455841));
#1003=CARTESIAN_POINT('Ctrl Pts',(-81.8113140566523,-12.3776968431277,-6.99999966455841));
#1004=CARTESIAN_POINT('Ctrl Pts',(-80.135494500663,-13.3776449399235,-6.99999966455841));
#1005=CARTESIAN_POINT('Ctrl Pts',(-76.6795863396725,-14.7655580066395,-6.99999966455841));
#1006=CARTESIAN_POINT('Ctrl Pts',(-74.6813830092532,-15.129534684981,-6.99999966455841));
#1007=CARTESIAN_POINT('Ctrl Pts',(-70.7359880074864,-15.0839940855965,-6.99999966455841));
#1008=CARTESIAN_POINT('Ctrl Pts',(-68.813485480768,-14.6884111681085,-6.99999966455841));
#1009=CARTESIAN_POINT('Ctrl Pts',(-64.8985702060325,-13.0342976706169,-6.99999966455841));
#1010=CARTESIAN_POINT('Ctrl Pts',(-63.2814072243053,-11.7822488787096,-6.99999966455841));
#1011=CARTESIAN_POINT('Ctrl Pts',(-60.7867151540326,-9.23147407393668,-6.99999966455841));
#1012=CARTESIAN_POINT('Ctrl Pts',(-59.6909361150444,-7.64054479475738,-6.99999966455841));
#1013=CARTESIAN_POINT('Ctrl Pts',(-58.1723070308791,-3.949787420572,-6.99999966455841));
#1014=CARTESIAN_POINT('Ctrl Pts',(-57.7849105565533,-1.97485856345574,-6.99999966455841));
#1015=CARTESIAN_POINT('Ctrl Pts',(-57.7769806250219,2.46346672969581,-6.99999966455841));
#1016=CARTESIAN_POINT('Ctrl Pts',(-58.3649098530643,4.4093345222814,-6.9999996645584));
#1017=CARTESIAN_POINT('Ctrl Pts',(-59.5838131056321,7.35502737443434,-6.9999996645584));
#1018=CARTESIAN_POINT('Ctrl Pts',(-60.6215766118575,9.10461140746889,-6.99999966455839));
#1019=CARTESIAN_POINT('Ctrl Pts',(-63.5663287470992,12.0423214052263,-6.99999966455839));
#1020=CARTESIAN_POINT('Ctrl Pts',(-65.1917741693166,13.1349192409075,-6.99999966455839));
#1021=CARTESIAN_POINT('Ctrl Pts',(-68.7969700489029,14.6808184092626,-6.99999966455839));
#1022=CARTESIAN_POINT('Ctrl Pts',(-70.7437792422803,15.0878575194891,-6.99999966455839));
#1023=CARTESIAN_POINT('Ctrl Pts',(-74.5359477494601,15.1237317030599,-6.99999966455839));
#1024=CARTESIAN_POINT('Ctrl Pts',(-76.514307152307,14.8241519303654,-6.99999966455839));
#1025=CARTESIAN_POINT('Ctrl Pts',(-79.8098562076024,13.4991121214044,-6.99999966455839));
#1026=CARTESIAN_POINT('Ctrl Pts',(-81.6555060005249,12.5624926610348,-6.99999966455839));
#1027=CARTESIAN_POINT('Ctrl Pts',(-84.7018662080165,9.57822853984369,-6.99999966455839));
#1028=CARTESIAN_POINT('Ctrl Pts',(-85.9061756437588,7.97738827659515,-6.99999966455839));
#1029=CARTESIAN_POINT('Ctrl Pts',(-87.5349708384493,4.19175419299416,-6.99999966455839));
#1030=CARTESIAN_POINT('Ctrl Pts',(-87.9554327321893,2.2569149553163,-6.99999966455839));
#1031=CARTESIAN_POINT('Ctrl Pts',(-87.9988807246176,0.208341261278995,-6.99999966455839));
#1032=CARTESIAN_POINT('Ctrl Pts',(-88.0000003858861,0.102966022979028,-6.9999996647239));
#1033=CARTESIAN_POINT('Ctrl Pts',(-88.0000003858861,-0.0024098346353274,
-6.9999996647239));
#1034=CARTESIAN_POINT('Ctrl Pts',(-87.7461133919663,0.0252611865944938,
-3.19288512027258));
#1035=CARTESIAN_POINT('Ctrl Pts',(-87.7464405370712,-0.300111789659123,
-3.19874473294339));
#1036=CARTESIAN_POINT('Ctrl Pts',(-87.733346925592,-0.623432483930084,-3.16110723971725));
#1037=CARTESIAN_POINT('Ctrl Pts',(-87.6766032777896,-1.33482898691202,-2.98086984678325));
#1038=CARTESIAN_POINT('Ctrl Pts',(-87.6267116790623,-1.70822449720893,-2.81592860051454));
#1039=CARTESIAN_POINT('Ctrl Pts',(-87.4845237632457,-2.51271727273083,-2.29987741601041));
#1040=CARTESIAN_POINT('Ctrl Pts',(-87.3800293335025,-2.93556643203511,-1.89270978855295));
#1041=CARTESIAN_POINT('Ctrl Pts',(-87.1484956699221,-3.702996323676,-0.780104550708415));
#1042=CARTESIAN_POINT('Ctrl Pts',(-87.0234089932871,-4.02256935226097,-0.0542526314986162));
#1043=CARTESIAN_POINT('Ctrl Pts',(-86.815949810196,-4.47611651828137,1.79415667009639));
#1044=CARTESIAN_POINT('Ctrl Pts',(-86.7535878960282,-4.55868222870742,2.88014129259423));
#1045=CARTESIAN_POINT('Ctrl Pts',(-86.7466229096737,-4.51068041246367,4.00000033527652));
#1046=CARTESIAN_POINT('Origin',(-89.4783135170911,-0.0236502472889796,7.45263563449258));
#1047=CARTESIAN_POINT('',(-96.2182769091855,5.81246414435803,2.92354496628577));
#1048=CARTESIAN_POINT('Ctrl Pts',(-96.2182769091855,5.81246414435804,2.92354496628577));
#1049=CARTESIAN_POINT('Ctrl Pts',(-96.1114061822388,6.20259346327057,3.26721981393848));
#1050=CARTESIAN_POINT('Ctrl Pts',(-96.0027937557641,6.5572425572123,3.63048965136893));
#1051=CARTESIAN_POINT('Ctrl Pts',(-95.896868089842,6.87902016715077,4.00000033599136));
#1052=CARTESIAN_POINT('',(-96.1940405594718,-5.9002253505935,2.93988975781639));
#1053=CARTESIAN_POINT('Origin',(-89.4783135170911,-0.0236502472889796,7.45263563449258));
#1054=CARTESIAN_POINT('Ctrl Pts',(-95.875179595017,-6.94455839489501,4.0000003352811));
#1055=CARTESIAN_POINT('Ctrl Pts',(-95.9831937564667,-6.61987035991154,3.62570554865969));
#1056=CARTESIAN_POINT('Ctrl Pts',(-96.0906484976689,-6.27161719093358,3.26965775667207));
#1057=CARTESIAN_POINT('Ctrl Pts',(-96.1940405594718,-5.9002253505935,2.93988975781639));
#1058=CARTESIAN_POINT('Origin',(-475.114243742006,-585.917095176397,-6.9999996647239));
#1059=CARTESIAN_POINT('',(-87.4066433959473,-18.1679722057834,-6.9999996647239));
#1060=CARTESIAN_POINT('',(-87.4066433959473,-18.1679722057834,-6.9999996647239));
#1061=CARTESIAN_POINT('',(-73.3500050310173,-28.0266520847631,-6.99999986765295));
#1062=CARTESIAN_POINT('Origin',(-475.114243742006,-585.917095176397,-6.9999996647239));
#1063=CARTESIAN_POINT('',(-73.3500050310173,-28.0266520847631,2.00000013234705));
#1064=CARTESIAN_POINT('',(-73.3500050310172,-28.026652084763,-6.9999996647239));
#1065=CARTESIAN_POINT('',(-74.9152441788731,-26.9027744755696,2.00000033497915));
#1066=CARTESIAN_POINT('Origin',(-475.114243742006,-585.917095176397,2.0000003352761));
#1067=CARTESIAN_POINT('Ctrl Pts',(-76.7121589015543,-25.6207193227051,4.00000033527556));
#1068=CARTESIAN_POINT('Ctrl Pts',(-76.5101277128005,-25.764374806251,3.81977307654592));
#1069=CARTESIAN_POINT('Ctrl Pts',(-76.3137430529023,-25.9041817578113,3.62287896287598));
#1070=CARTESIAN_POINT('Ctrl Pts',(-75.7163848289328,-26.3298771242278,2.98421640155274));
#1071=CARTESIAN_POINT('Ctrl Pts',(-75.3134058868949,-26.6177300476472,2.48995535422947));
#1072=CARTESIAN_POINT('Ctrl Pts',(-74.9152441790194,-26.9027744754111,2.00000033476813));
#1073=CARTESIAN_POINT('Origin',(-250.656842622845,151.55419424049,-6.9999996647239));
#1074=CARTESIAN_POINT('',(-82.3696012848058,25.9380949425394,2.0000003352761));
#1075=CARTESIAN_POINT('Origin',(-250.656842622845,151.55419424049,2.0000003352761));
#1076=CARTESIAN_POINT('',(-82.3696012848058,25.9380949425394,-6.9999996647239));
#1077=CARTESIAN_POINT('',(-82.3696012848058,25.9380949425394,-6.9999996647239));
#1078=CARTESIAN_POINT('',(-91.6571146113224,14.3715186132015,-6.9999996647239));
#1079=CARTESIAN_POINT('Origin',(-250.656842622845,151.55419424049,-6.9999996647239));
#1080=CARTESIAN_POINT('',(-91.6571146113224,14.3715186132015,-6.9999996647239));
#1081=CARTESIAN_POINT('Origin',(-69.2593146004984,-22.346313027835,2.));
#1082=CARTESIAN_POINT('',(-74.6198447871061,-23.5770510659517,2.00000020040342));
#1083=CARTESIAN_POINT('Ctrl Pts',(-74.6198447871061,-23.5770510659517,2.00000020040342));
#1084=CARTESIAN_POINT('Ctrl Pts',(-74.6579344640447,-23.4111499102907,2.2374636019641));
#1085=CARTESIAN_POINT('Ctrl Pts',(-74.6880594180933,-23.2446304171195,2.47689038451037));
#1086=CARTESIAN_POINT('Ctrl Pts',(-74.7252418939167,-22.9676432289553,2.87755082405605));
#1087=CARTESIAN_POINT('Ctrl Pts',(-74.7366521859812,-22.8572007617517,3.03793748691323));
#1088=CARTESIAN_POINT('Ctrl Pts',(-74.7559643904756,-22.5927447980921,3.42372093104711));
#1089=CARTESIAN_POINT('Ctrl Pts',(-74.7606725248392,-22.4388847606623,3.6496247852451));
#1090=CARTESIAN_POINT('Ctrl Pts',(-74.758670744527,-22.25764634633,3.9174222267614));
#1091=CARTESIAN_POINT('Ctrl Pts',(-74.7581499996276,-22.2297415434923,3.95870198463641));
#1092=CARTESIAN_POINT('Ctrl Pts',(-74.7574174906265,-22.2018562116537,4.00000035844497));
#1093=CARTESIAN_POINT('Origin',(-69.2593146004984,-22.346313027835,2.));
#1094=CARTESIAN_POINT('Ctrl Pts',(-74.1713637940452,-24.8205346732869,0.23606558602254));
#1095=CARTESIAN_POINT('Ctrl Pts',(-74.5086952715494,-24.1508335648714,1.17986563416586));
#1096=CARTESIAN_POINT('Ctrl Pts',(-74.9383480322472,-22.5063480061352,3.51032092685289));
#1097=CARTESIAN_POINT('Ctrl Pts',(-74.646773687705,-20.8919910262303,5.95723949371696));
#1098=CARTESIAN_POINT('Ctrl Pts',(-74.2505399223336,-20.0359732689142,7.30398841626316));
#1099=CARTESIAN_POINT('Ctrl Pts',(-74.0336582209304,-25.0938660197339,0.589767633708129));
#1100=CARTESIAN_POINT('Ctrl Pts',(-74.407884080017,-24.4439726482192,1.50920848888188));
#1101=CARTESIAN_POINT('Ctrl Pts',(-74.9351789094574,-22.8101940379969,3.79196733469283));
#1102=CARTESIAN_POINT('Ctrl Pts',(-74.7190760146778,-21.1413576468848,6.20537441387899));
#1103=CARTESIAN_POINT('Ctrl Pts',(-74.3460691453017,-20.2423816437831,7.53570414925919));
#1104=CARTESIAN_POINT('Ctrl Pts',(-74.0001357834485,-25.7594030709259,1.2941064062691));
#1105=CARTESIAN_POINT('Ctrl Pts',(-74.4455965962982,-25.1067230449558,2.16544009784837));
#1106=CARTESIAN_POINT('Ctrl Pts',(-75.1367813677625,-23.4109558808025,4.35385147587732));
#1107=CARTESIAN_POINT('Ctrl Pts',(-75.0128763911499,-21.5944290937781,6.70075812780871));
#1108=CARTESIAN_POINT('Ctrl Pts',(-74.6534781208164,-20.6007042060343,7.99854468446317));
#1109=CARTESIAN_POINT('Ctrl Pts',(-74.7987782190094,-26.9974203069713,2.15667008530852));
#1110=CARTESIAN_POINT('Ctrl Pts',(-75.322264039974,-26.2197447448224,2.99660919729387));
#1111=CARTESIAN_POINT('Ctrl Pts',(-76.1233984894577,-24.2131522968575,5.11980663652573));
#1112=CARTESIAN_POINT('Ctrl Pts',(-75.9543468728107,-22.0963389565538,7.41623013320223));
#1113=CARTESIAN_POINT('Ctrl Pts',(-75.5173028795931,-20.9475114379044,8.6888538632795));
#1114=CARTESIAN_POINT('Ctrl Pts',(-75.9227402942074,-27.5915704512746,2.18555629209748));
#1115=CARTESIAN_POINT('Ctrl Pts',(-76.4541956044753,-26.6771684305199,3.07817130795683));
#1116=CARTESIAN_POINT('Ctrl Pts',(-77.1913859839927,-24.3976987764118,5.30544426439688));
#1117=CARTESIAN_POINT('Ctrl Pts',(-76.860940555414,-22.1128514671472,7.67304097567769));
#1118=CARTESIAN_POINT('Ctrl Pts',(-76.3104641286578,-20.8936827365491,8.97851569109266));
#1119=CARTESIAN_POINT('Ctrl Pts',(-76.5805866914325,-27.7258365095484,1.9821216822362));
#1120=CARTESIAN_POINT('Ctrl Pts',(-77.1121005168053,-26.7476838868058,2.92591616818002));
#1121=CARTESIAN_POINT('Ctrl Pts',(-77.8070649986871,-24.345388920755,5.25636056981719));
#1122=CARTESIAN_POINT('Ctrl Pts',(-77.3863635902477,-21.9969441014912,7.70327148463602));
#1123=CARTESIAN_POINT('Ctrl Pts',(-76.7724385166133,-20.7571853057323,9.05001665800957));
#1124=CARTESIAN_POINT('Ctrl Pts',(-74.619646211685,-23.5770056425823,2.0000003352761));
#1125=CARTESIAN_POINT('Ctrl Pts',(-74.5001804982627,-24.0976727079,2.0000003352761));
#1126=CARTESIAN_POINT('Ctrl Pts',(-74.4234694855853,-24.7316225043289,2.0000003352761));
#1127=CARTESIAN_POINT('Ctrl Pts',(-74.4846957858125,-25.6293420244481,2.0000003352761));
#1128=CARTESIAN_POINT('Ctrl Pts',(-74.5259169875061,-25.9047938922538,2.0000003352761));
#1129=CARTESIAN_POINT('Ctrl Pts',(-74.6926828918826,-26.5190035244917,2.0000003352761));
#1130=CARTESIAN_POINT('Ctrl Pts',(-74.8170778854549,-26.7522726145936,2.0000003352761));
#1131=CARTESIAN_POINT('Ctrl Pts',(-74.9152441794731,-26.9027744751782,2.0000003352761));
#1132=CARTESIAN_POINT('Origin',(-75.,-0.498624746904399,2.0000003352761));
#1133=CARTESIAN_POINT('Origin',(-77.5613943894332,22.3490635340266,2.));
#1134=CARTESIAN_POINT('',(-80.9113943894332,22.3490635340266,2.0000003352761));
#1135=CARTESIAN_POINT('Origin',(-77.5613943894332,22.3490635340266,2.0000003352761));
#1136=CARTESIAN_POINT('Origin',(-77.5613943894332,22.3490635340266,-7.));
#1137=CARTESIAN_POINT('Origin',(-77.5613943894332,22.3490635340266,-7.));
#1138=CARTESIAN_POINT('Origin',(-77.5613943894332,22.3490635340266,-7.));
#1139=CARTESIAN_POINT('',(-80.9113943894332,22.3490635340266,-6.9999996647239));
#1140=CARTESIAN_POINT('Origin',(-77.5613943894332,22.3490635340266,-6.9999996647239));
#1141=CARTESIAN_POINT('',(-80.9113943894332,22.3490635340266,-7.));
#1142=CARTESIAN_POINT('Origin',(-102.464990062631,-0.023553453494632,26.7788747879736));
#1143=CARTESIAN_POINT('Ctrl Pts',(-96.2182769091855,5.81246414435803,2.92354496628577));
#1144=CARTESIAN_POINT('Ctrl Pts',(-96.3967982491986,5.16077578422004,2.34945610131203));
#1145=CARTESIAN_POINT('Ctrl Pts',(-96.5708127282444,4.40310236679316,1.85375951479896));
#1146=CARTESIAN_POINT('Ctrl Pts',(-96.8946670216433,2.44237416086579,0.97536704703154));
#1147=CARTESIAN_POINT('Ctrl Pts',(-97.0012749847711,1.17673457144041,0.718658177376071));
#1148=CARTESIAN_POINT('Ctrl Pts',(-96.9987010569594,-1.2232795855318,0.714801143342785));
#1149=CARTESIAN_POINT('Ctrl Pts',(-96.8894661810927,-2.48889397177455,0.967199899031529));
#1150=CARTESIAN_POINT('Ctrl Pts',(-96.5583737304087,-4.46688970650739,1.84659417162182));
#1151=CARTESIAN_POINT('Ctrl Pts',(-96.3780922836842,-5.23909810947777,2.3528585320036));
#1152=CARTESIAN_POINT('Ctrl Pts',(-96.1940405594718,-5.90022535059349,2.93988975781639));
#1153=CARTESIAN_POINT('Origin',(-75.,-0.498624746904399,2.0000003352761));
#1154=CARTESIAN_POINT('Origin',(-69.2593146004984,-22.346313027835,2.));
#1155=CARTESIAN_POINT('',(-72.6093146004984,-22.346313027835,2.0000003352761));
#1156=CARTESIAN_POINT('Origin',(-69.2593146004984,-22.346313027835,2.0000003352761));
#1157=CARTESIAN_POINT('Origin',(-69.2593146004984,-22.346313027835,-7.));
#1158=CARTESIAN_POINT('Origin',(-69.2593146004984,-22.346313027835,-7.));
#1159=CARTESIAN_POINT('Origin',(-69.2593146004984,-22.346313027835,-7.));
#1160=CARTESIAN_POINT('',(-72.6093146004984,-22.346313027835,-6.9999996647239));
#1161=CARTESIAN_POINT('Origin',(-69.2593146004984,-22.346313027835,-6.9999996647239));
#1162=CARTESIAN_POINT('',(-72.6093146004984,-22.346313027835,-7.));
#1163=CARTESIAN_POINT('Origin',(-58.6404254203842,-0.589909663848651,-6.9999996647239));
#1164=CARTESIAN_POINT('Origin',(-75.,0.,-6.9999996647239));
#1165=CARTESIAN_POINT('Origin',(-99.6762670642773,-0.0235742387262829,22.6288116513427));
#1166=CARTESIAN_POINT('Origin',(-75.,0.,-6.9999996647239));
#1167=UNCERTAINTY_MEASURE_WITH_UNIT(LENGTH_MEASURE(0.01),#1171,
'DISTANCE_ACCURACY_VALUE',
'Maximum model space distance between geometric entities at asserted c
onnectivities');
#1168=UNCERTAINTY_MEASURE_WITH_UNIT(LENGTH_MEASURE(0.01),#1171,
'DISTANCE_ACCURACY_VALUE',
'Maximum model space distance between geometric entities at asserted c
onnectivities');
#1169=(
GEOMETRIC_REPRESENTATION_CONTEXT(3)
GLOBAL_UNCERTAINTY_ASSIGNED_CONTEXT((#1167))
GLOBAL_UNIT_ASSIGNED_CONTEXT((#1171,#1173,#1174))
REPRESENTATION_CONTEXT('','3D')
);
#1170=(
GEOMETRIC_REPRESENTATION_CONTEXT(3)
GLOBAL_UNCERTAINTY_ASSIGNED_CONTEXT((#1168))
GLOBAL_UNIT_ASSIGNED_CONTEXT((#1171,#1173,#1174))
REPRESENTATION_CONTEXT('','3D')
);
#1171=(
LENGTH_UNIT()
NAMED_UNIT(*)
SI_UNIT(.MILLI.,.METRE.)
);
#1172=(
LENGTH_UNIT()
NAMED_UNIT(*)
SI_UNIT($,.METRE.)
);
#1173=(
NAMED_UNIT(*)
PLANE_ANGLE_UNIT()
SI_UNIT($,.RADIAN.)
);
#1174=(
NAMED_UNIT(*)
SI_UNIT($,.STERADIAN.)
SOLID_ANGLE_UNIT()
);
#1175=SHAPE_DEFINITION_REPRESENTATION(#1176,#1177);
#1176=PRODUCT_DEFINITION_SHAPE('',$,#1179);
#1177=SHAPE_REPRESENTATION('',(#454),#1169);
#1178=PRODUCT_DEFINITION_CONTEXT('part definition',#1183,'design');
#1179=PRODUCT_DEFINITION('fixed flange (2 bolt) intake port bore (id)',
'fixed flange (2 bolt) intake port bore (id)',#1180,#1178);
#1180=PRODUCT_DEFINITION_FORMATION('',$,#1185);
#1181=PRODUCT_RELATED_PRODUCT_CATEGORY(
'fixed flange (2 bolt) intake port bore (id)',
'fixed flange (2 bolt) intake port bore (id)',(#1185));
#1182=APPLICATION_PROTOCOL_DEFINITION('international standard',
'automotive_design',2009,#1183);
#1183=APPLICATION_CONTEXT(
'Core Data for Automotive Mechanical Design Process');
#1184=PRODUCT_CONTEXT('part definition',#1183,'mechanical');
#1185=PRODUCT('fixed flange (2 bolt) intake port bore (id)',
'fixed flange (2 bolt) intake port bore (id)',$,(#1184));
#1186=PRESENTATION_STYLE_ASSIGNMENT((#1188));
#1187=PRESENTATION_STYLE_ASSIGNMENT((#1189));
#1188=SURFACE_STYLE_USAGE(.BOTH.,#1190);
#1189=SURFACE_STYLE_USAGE(.BOTH.,#1191);
#1190=SURFACE_SIDE_STYLE('',(#1192));
#1191=SURFACE_SIDE_STYLE('',(#1193));
#1192=SURFACE_STYLE_FILL_AREA(#1194);
#1193=SURFACE_STYLE_FILL_AREA(#1195);
#1194=FILL_AREA_STYLE('Steel - Satin',(#1196));
#1195=FILL_AREA_STYLE('Opaque(160,160,160)',(#1197));
#1196=FILL_AREA_STYLE_COLOUR('Steel - Satin',#1198);
#1197=FILL_AREA_STYLE_COLOUR('Opaque(160,160,160)',#1199);
#1198=COLOUR_RGB('Steel - Satin',0.627450980392157,0.627450980392157,0.627450980392157);
#1199=COLOUR_RGB('Opaque(160,160,160)',0.627450980392157,0.627450980392157,
0.627450980392157);
ENDSEC;
END-ISO-10303-21;
