ISO-10303-21;
HEADER;
/* Generated by software containing ST-Developer
 * from STEP Tools, Inc. (www.steptools.com) 
 */

FILE_DESCRIPTION(
/* description */ (''),
/* implementation_level */ '2;1');

FILE_NAME(
/* name */ 'injector honda + yamaha joint.step',
/* time_stamp */ '2026-06-21T21:37:55+07:00',
/* author */ (''),
/* organization */ (''),
/* preprocessor_version */ 'ST-DEVELOPER v20.1',
/* originating_system */ 'Autodesk Translation Framework v15.8.0.0',
/* authorisation */ '');

FILE_SCHEMA (('AUTOMOTIVE_DESIGN { 1 0 10303 214 3 1 1 }'));
ENDSEC;

DATA;
#10=MECHANICAL_DESIGN_GEOMETRIC_PRESENTATION_REPRESENTATION('',(#13),#228);
#11=SHAPE_REPRESENTATION_RELATIONSHIP('SRR','None',#235,#12);
#12=ADVANCED_BREP_SHAPE_REPRESENTATION('',(#14),#227);
#13=STYLED_ITEM('',(#244),#14);
#14=MANIFOLD_SOLID_BREP('injector honda + yamaha joint',#117);
#15=FACE_BOUND('',#42,.T.);
#16=TOROIDAL_SURFACE('',#140,7.65,2.25);
#17=TOROIDAL_SURFACE('',#144,21.1652460027913,16.5);
#18=CYLINDRICAL_SURFACE('',#137,9.9);
#19=CYLINDRICAL_SURFACE('',#149,4.5);
#20=LINE('',#202,#23);
#21=LINE('',#209,#24);
#22=LINE('',#224,#25);
#23=VECTOR('',#162,10.4);
#24=VECTOR('',#171,9.9);
#25=VECTOR('',#192,4.5);
#26=CONICAL_SURFACE('',#135,10.4,0.785398163397449);
#27=FACE_OUTER_BOUND('',#35,.T.);
#28=FACE_OUTER_BOUND('',#36,.T.);
#29=FACE_OUTER_BOUND('',#37,.T.);
#30=FACE_OUTER_BOUND('',#38,.T.);
#31=FACE_OUTER_BOUND('',#39,.T.);
#32=FACE_OUTER_BOUND('',#40,.T.);
#33=FACE_OUTER_BOUND('',#41,.T.);
#34=FACE_OUTER_BOUND('',#43,.T.);
#35=EDGE_LOOP('',(#78));
#36=EDGE_LOOP('',(#79));
#37=EDGE_LOOP('',(#80,#81,#82,#83));
#38=EDGE_LOOP('',(#84,#85,#86,#87,#88));
#39=EDGE_LOOP('',(#89,#90,#91,#92,#93,#94));
#40=EDGE_LOOP('',(#95,#96,#97,#98,#99));
#41=EDGE_LOOP('',(#100));
#42=EDGE_LOOP('',(#101));
#43=EDGE_LOOP('',(#102,#103,#104,#105));
#44=CIRCLE('',#132,4.5);
#45=CIRCLE('',#134,10.9);
#46=CIRCLE('',#136,9.9);
#47=CIRCLE('',#138,9.9);
#48=CIRCLE('',#139,9.9);
#49=CIRCLE('',#141,9.27182952033496);
#50=CIRCLE('',#142,2.25);
#51=CIRCLE('',#143,9.27182952033496);
#52=CIRCLE('',#145,6.25);
#53=CIRCLE('',#146,16.5);
#54=CIRCLE('',#148,4.5);
#55=VERTEX_POINT('',#195);
#56=VERTEX_POINT('',#198);
#57=VERTEX_POINT('',#201);
#58=VERTEX_POINT('',#205);
#59=VERTEX_POINT('',#206);
#60=VERTEX_POINT('',#211);
#61=VERTEX_POINT('',#212);
#62=VERTEX_POINT('',#217);
#63=VERTEX_POINT('',#221);
#64=EDGE_CURVE('',#55,#55,#44,.T.);
#65=EDGE_CURVE('',#56,#56,#45,.T.);
#66=EDGE_CURVE('',#56,#57,#20,.T.);
#67=EDGE_CURVE('',#57,#57,#46,.T.);
#68=EDGE_CURVE('',#58,#59,#47,.T.);
#69=EDGE_CURVE('',#59,#58,#48,.T.);
#70=EDGE_CURVE('',#58,#57,#21,.T.);
#71=EDGE_CURVE('',#60,#61,#49,.T.);
#72=EDGE_CURVE('',#60,#59,#50,.T.);
#73=EDGE_CURVE('',#61,#60,#51,.T.);
#74=EDGE_CURVE('',#62,#62,#52,.T.);
#75=EDGE_CURVE('',#62,#61,#53,.T.);
#76=EDGE_CURVE('',#63,#63,#54,.T.);
#77=EDGE_CURVE('',#55,#63,#22,.T.);
#78=ORIENTED_EDGE('',*,*,#64,.T.);
#79=ORIENTED_EDGE('',*,*,#65,.F.);
#80=ORIENTED_EDGE('',*,*,#65,.T.);
#81=ORIENTED_EDGE('',*,*,#66,.T.);
#82=ORIENTED_EDGE('',*,*,#67,.F.);
#83=ORIENTED_EDGE('',*,*,#66,.F.);
#84=ORIENTED_EDGE('',*,*,#68,.T.);
#85=ORIENTED_EDGE('',*,*,#69,.T.);
#86=ORIENTED_EDGE('',*,*,#70,.T.);
#87=ORIENTED_EDGE('',*,*,#67,.T.);
#88=ORIENTED_EDGE('',*,*,#70,.F.);
#89=ORIENTED_EDGE('',*,*,#71,.F.);
#90=ORIENTED_EDGE('',*,*,#72,.T.);
#91=ORIENTED_EDGE('',*,*,#68,.F.);
#92=ORIENTED_EDGE('',*,*,#69,.F.);
#93=ORIENTED_EDGE('',*,*,#72,.F.);
#94=ORIENTED_EDGE('',*,*,#73,.F.);
#95=ORIENTED_EDGE('',*,*,#74,.F.);
#96=ORIENTED_EDGE('',*,*,#75,.T.);
#97=ORIENTED_EDGE('',*,*,#73,.T.);
#98=ORIENTED_EDGE('',*,*,#71,.T.);
#99=ORIENTED_EDGE('',*,*,#75,.F.);
#100=ORIENTED_EDGE('',*,*,#74,.T.);
#101=ORIENTED_EDGE('',*,*,#76,.F.);
#102=ORIENTED_EDGE('',*,*,#64,.F.);
#103=ORIENTED_EDGE('',*,*,#77,.T.);
#104=ORIENTED_EDGE('',*,*,#76,.T.);
#105=ORIENTED_EDGE('',*,*,#77,.F.);
#106=PLANE('',#131);
#107=PLANE('',#133);
#108=PLANE('',#147);
#109=ADVANCED_FACE('',(#27),#106,.T.);
#110=ADVANCED_FACE('',(#28),#107,.T.);
#111=ADVANCED_FACE('',(#29),#26,.T.);
#112=ADVANCED_FACE('',(#30),#18,.T.);
#113=ADVANCED_FACE('',(#31),#16,.T.);
#114=ADVANCED_FACE('',(#32),#17,.F.);
#115=ADVANCED_FACE('',(#33,#15),#108,.F.);
#116=ADVANCED_FACE('',(#34),#19,.T.);
#117=CLOSED_SHELL('',(#109,#110,#111,#112,#113,#114,#115,#116));
#118=DERIVED_UNIT_ELEMENT(#120,1.);
#119=DERIVED_UNIT_ELEMENT(#230,-3.);
#120=(
MASS_UNIT()
NAMED_UNIT(*)
SI_UNIT(.KILO.,.GRAM.)
);
#121=DERIVED_UNIT((#118,#119));
#122=MEASURE_REPRESENTATION_ITEM('density measure',
POSITIVE_RATIO_MEASURE(7850.),#121);
#123=PROPERTY_DEFINITION_REPRESENTATION(#128,#125);
#124=PROPERTY_DEFINITION_REPRESENTATION(#129,#126);
#125=REPRESENTATION('material name',(#127),#227);
#126=REPRESENTATION('density',(#122),#227);
#127=DESCRIPTIVE_REPRESENTATION_ITEM('Steel','Steel');
#128=PROPERTY_DEFINITION('material property','material name',#237);
#129=PROPERTY_DEFINITION('material property','density of part',#237);
#130=AXIS2_PLACEMENT_3D('',#193,#150,#151);
#131=AXIS2_PLACEMENT_3D('',#194,#152,#153);
#132=AXIS2_PLACEMENT_3D('',#196,#154,#155);
#133=AXIS2_PLACEMENT_3D('',#197,#156,#157);
#134=AXIS2_PLACEMENT_3D('',#199,#158,#159);
#135=AXIS2_PLACEMENT_3D('',#200,#160,#161);
#136=AXIS2_PLACEMENT_3D('',#203,#163,#164);
#137=AXIS2_PLACEMENT_3D('',#204,#165,#166);
#138=AXIS2_PLACEMENT_3D('',#207,#167,#168);
#139=AXIS2_PLACEMENT_3D('',#208,#169,#170);
#140=AXIS2_PLACEMENT_3D('',#210,#172,#173);
#141=AXIS2_PLACEMENT_3D('',#213,#174,#175);
#142=AXIS2_PLACEMENT_3D('',#214,#176,#177);
#143=AXIS2_PLACEMENT_3D('',#215,#178,#179);
#144=AXIS2_PLACEMENT_3D('',#216,#180,#181);
#145=AXIS2_PLACEMENT_3D('',#218,#182,#183);
#146=AXIS2_PLACEMENT_3D('',#219,#184,#185);
#147=AXIS2_PLACEMENT_3D('',#220,#186,#187);
#148=AXIS2_PLACEMENT_3D('',#222,#188,#189);
#149=AXIS2_PLACEMENT_3D('',#223,#190,#191);
#150=DIRECTION('axis',(0.,0.,1.));
#151=DIRECTION('refdir',(1.,0.,0.));
#152=DIRECTION('center_axis',(0.557744599670699,-4.15704633048969E-6,-0.830012627326169));
#153=DIRECTION('ref_axis',(-0.830012627333341,1.05457206298267E-21,-0.557744599675518));
#154=DIRECTION('center_axis',(0.557744599670699,-4.15704633048969E-6,-0.830012627326169));
#155=DIRECTION('ref_axis',(-7.45331525007617E-6,-0.999999999972224,-2.5970225650089E-18));
#156=DIRECTION('center_axis',(-0.557744599670699,4.15704633048969E-6,0.830012627326169));
#157=DIRECTION('ref_axis',(-7.45331525007792E-6,-0.999999999972224,0.));
#158=DIRECTION('center_axis',(0.557744599670699,-4.15704633048969E-6,-0.830012627326169));
#159=DIRECTION('ref_axis',(7.45331525007792E-6,0.999999999972224,-9.94817418440296E-22));
#160=DIRECTION('center_axis',(-0.557744599670698,4.15704633049096E-6,0.83001262732617));
#161=DIRECTION('ref_axis',(-7.45331525007863E-6,-0.999999999972224,1.06133228290964E-18));
#162=DIRECTION('',(0.394379718307571,-0.707109720642557,-0.586907557252797));
#163=DIRECTION('center_axis',(0.557744599670699,-4.15704633048969E-6,-0.830012627326169));
#164=DIRECTION('ref_axis',(-7.45331525007792E-6,-0.999999999972224,-1.27054942088145E-21));
#165=DIRECTION('center_axis',(0.557744599670699,-4.15704633049963E-6,-0.830012627326169));
#166=DIRECTION('ref_axis',(-7.45331525008347E-6,-0.999999999972224,8.24628925799424E-18));
#167=DIRECTION('center_axis',(-0.557744599670699,4.15704633049963E-6,0.830012627326169));
#168=DIRECTION('ref_axis',(-7.45331524335946E-6,-0.999999999972224,4.5265855747414E-15));
#169=DIRECTION('center_axis',(-0.557744599670699,4.15704633049963E-6,0.830012627326169));
#170=DIRECTION('ref_axis',(-7.45331524335946E-6,-0.999999999972224,4.5265855747414E-15));
#171=DIRECTION('',(-0.557744599670699,4.15704633049963E-6,0.830012627326169));
#172=DIRECTION('center_axis',(0.557744599670699,-4.15704633049963E-6,-0.830012627326169));
#173=DIRECTION('ref_axis',(-0.830012627333341,0.,-0.557744599675518));
#174=DIRECTION('center_axis',(0.557744599670699,-4.15704633049963E-6,-0.830012627326169));
#175=DIRECTION('ref_axis',(-7.45331523714867E-6,-0.999999999972224,8.70005751333258E-15));
#176=DIRECTION('center_axis',(-2.31857014153891E-6,-0.99999999999136,3.45040094665601E-6));
#177=DIRECTION('ref_axis',(0.830012627333341,-1.22657215473108E-16,0.557744599675519));
#178=DIRECTION('center_axis',(0.557744599670699,-4.15704633049963E-6,-0.830012627326169));
#179=DIRECTION('ref_axis',(-7.45331523714867E-6,-0.999999999972224,8.70005751333258E-15));
#180=DIRECTION('center_axis',(0.557744599670704,-4.15704633013651E-6,-0.830012627326166));
#181=DIRECTION('ref_axis',(-7.45331525561029E-6,-0.999999999972224,-4.00874406443095E-15));
#182=DIRECTION('center_axis',(0.557744599670699,-4.15704633048969E-6,-0.830012627326169));
#183=DIRECTION('ref_axis',(-7.45331525007792E-6,-0.999999999972224,-8.47032947254301E-22));
#184=DIRECTION('center_axis',(-0.830012627303112,6.18634577978974E-6,-0.557744599686196));
#185=DIRECTION('ref_axis',(7.45331525551597E-6,0.999999999972224,4.06769618302552E-15));
#186=DIRECTION('center_axis',(-0.557744599670699,4.15704633048969E-6,0.830012627326169));
#187=DIRECTION('ref_axis',(-7.45331525007792E-6,-0.999999999972224,-8.47032947254301E-22));
#188=DIRECTION('center_axis',(0.557744599670699,-4.15704633048969E-6,-0.830012627326169));
#189=DIRECTION('ref_axis',(-7.45331525007792E-6,-0.999999999972224,-4.2351647362715E-22));
#190=DIRECTION('center_axis',(0.557744599670699,-4.15704633048656E-6,-0.830012627326169));
#191=DIRECTION('ref_axis',(-7.45331525007617E-6,-0.999999999972224,-2.59785004922894E-18));
#192=DIRECTION('',(-0.557744599670699,4.15704633048656E-6,0.830012627326169));
#193=CARTESIAN_POINT('',(0.,0.,0.));
#194=CARTESIAN_POINT('Origin',(-77.3886917544292,-0.0848595491968121,-9.38181577971621));
#195=CARTESIAN_POINT('',(-77.9241941372014,4.47626363634184,-9.7416808143779));
#196=CARTESIAN_POINT('Origin',(-77.92422767712,-0.0237363635331723,-9.7416808143779));
#197=CARTESIAN_POINT('Origin',(-102.496275726052,-7.41167261242153,26.7578887252398));
#198=CARTESIAN_POINT('',(-102.464908821494,10.8764465462027,26.7788747879737));
#199=CARTESIAN_POINT('Origin',(-102.464990062631,-0.0235534534946298,26.7788747879736));
#200=CARTESIAN_POINT('Origin',(-102.186117762795,-0.0235555320177973,26.3638684743105));
#201=CARTESIAN_POINT('',(-101.907171675139,9.87644238918406,25.9488621606474));
#202=CARTESIAN_POINT('',(-102.186040248317,10.3764444676933,26.3638684743105));
#203=CARTESIAN_POINT('Origin',(-101.90724546296,-0.0235576105409625,25.9488621606474));
#204=CARTESIAN_POINT('Origin',(-102.464990062631,-0.023553453494632,26.7788747879736));
#205=CARTESIAN_POINT('',(-100.200639273714,9.87642966986008,23.4092706648975));
#206=CARTESIAN_POINT('',(-91.9835880509348,-0.0235703298649341,28.9309422016851));
#207=CARTESIAN_POINT('Origin',(-100.200713061535,-0.0235703298649329,23.4092706648975));
#208=CARTESIAN_POINT('Origin',(-100.200713061535,-0.0235703298649329,23.4092706648975));
#209=CARTESIAN_POINT('',(-102.46491627481,9.87644654623039,26.7788747879736));
#210=CARTESIAN_POINT('Origin',(-100.200713061535,-0.0235703298649329,23.4092706648975));
#211=CARTESIAN_POINT('',(-91.6351517537645,-0.0235768129502932,27.286144552956));
#212=CARTESIAN_POINT('',(-99.3308182282562,9.24825270712713,22.1148317088771));
#213=CARTESIAN_POINT('Origin',(-99.3308873341246,-0.0235768129502963,22.1148317088771));
#214=CARTESIAN_POINT('Origin',(-93.8511164624348,-0.0235703298649338,27.6760168524152));
#215=CARTESIAN_POINT('Origin',(-99.3308873341246,-0.0235768129502963,22.1148317088771));
#216=CARTESIAN_POINT('Origin',(-92.9521653331155,-0.0236243555762597,12.6222793647277));
#217=CARTESIAN_POINT('',(-96.8874974827035,6.22640497586847,18.4787485147119));
#218=CARTESIAN_POINT('Origin',(-96.8875440659238,-0.0235950239579348,18.4787485147119));
#219=CARTESIAN_POINT('Origin',(-92.9520075818646,21.1416216466272,12.6222793647278));
#220=CARTESIAN_POINT('Origin',(-96.9188297293454,-7.41171418288483,18.4577624519781));
#221=CARTESIAN_POINT('',(-96.8875105260051,4.47640497591707,18.4787485147119));
#222=CARTESIAN_POINT('Origin',(-96.8875440659237,-0.0235950239579369,18.4787485147119));
#223=CARTESIAN_POINT('Origin',(-99.6762670642773,-0.0235742387262829,22.6288116513427));
#224=CARTESIAN_POINT('',(-99.6762335243587,4.47642576114873,22.6288116513427));
#225=UNCERTAINTY_MEASURE_WITH_UNIT(LENGTH_MEASURE(0.01),#229,
'DISTANCE_ACCURACY_VALUE',
'Maximum model space distance between geometric entities at asserted c
onnectivities');
#226=UNCERTAINTY_MEASURE_WITH_UNIT(LENGTH_MEASURE(0.01),#229,
'DISTANCE_ACCURACY_VALUE',
'Maximum model space distance between geometric entities at asserted c
onnectivities');
#227=(
GEOMETRIC_REPRESENTATION_CONTEXT(3)
GLOBAL_UNCERTAINTY_ASSIGNED_CONTEXT((#225))
GLOBAL_UNIT_ASSIGNED_CONTEXT((#229,#231,#232))
REPRESENTATION_CONTEXT('','3D')
);
#228=(
GEOMETRIC_REPRESENTATION_CONTEXT(3)
GLOBAL_UNCERTAINTY_ASSIGNED_CONTEXT((#226))
GLOBAL_UNIT_ASSIGNED_CONTEXT((#229,#231,#232))
REPRESENTATION_CONTEXT('','3D')
);
#229=(
LENGTH_UNIT()
NAMED_UNIT(*)
SI_UNIT(.MILLI.,.METRE.)
);
#230=(
LENGTH_UNIT()
NAMED_UNIT(*)
SI_UNIT($,.METRE.)
);
#231=(
NAMED_UNIT(*)
PLANE_ANGLE_UNIT()
SI_UNIT($,.RADIAN.)
);
#232=(
NAMED_UNIT(*)
SI_UNIT($,.STERADIAN.)
SOLID_ANGLE_UNIT()
);
#233=SHAPE_DEFINITION_REPRESENTATION(#234,#235);
#234=PRODUCT_DEFINITION_SHAPE('',$,#237);
#235=SHAPE_REPRESENTATION('',(#130),#227);
#236=PRODUCT_DEFINITION_CONTEXT('part definition',#241,'design');
#237=PRODUCT_DEFINITION('injector honda + yamaha joint',
'injector honda + yamaha joint',#238,#236);
#238=PRODUCT_DEFINITION_FORMATION('',$,#243);
#239=PRODUCT_RELATED_PRODUCT_CATEGORY('injector honda + yamaha joint',
'injector honda + yamaha joint',(#243));
#240=APPLICATION_PROTOCOL_DEFINITION('international standard',
'automotive_design',2009,#241);
#241=APPLICATION_CONTEXT(
'Core Data for Automotive Mechanical Design Process');
#242=PRODUCT_CONTEXT('part definition',#241,'mechanical');
#243=PRODUCT('injector honda + yamaha joint',
'injector honda + yamaha joint',$,(#242));
#244=PRESENTATION_STYLE_ASSIGNMENT((#245));
#245=SURFACE_STYLE_USAGE(.BOTH.,#246);
#246=SURFACE_SIDE_STYLE('',(#247));
#247=SURFACE_STYLE_FILL_AREA(#248);
#248=FILL_AREA_STYLE('Steel - Satin',(#249));
#249=FILL_AREA_STYLE_COLOUR('Steel - Satin',#250);
#250=COLOUR_RGB('Steel - Satin',0.627450980392157,0.627450980392157,0.627450980392157);
ENDSEC;
END-ISO-10303-21;
