ISO-10303-21;
HEADER;
/* Generated by software containing ST-Developer
 * from STEP Tools, Inc. (www.steptools.com) 
 */

FILE_DESCRIPTION(
/* description */ (''),
/* implementation_level */ '2;1');

FILE_NAME(
/* name */ 'throttle body bore (id) rubber size (od).step',
/* time_stamp */ '2026-06-21T21:38:06+07:00',
/* author */ (''),
/* organization */ (''),
/* preprocessor_version */ 'ST-DEVELOPER v20.1',
/* originating_system */ 'Autodesk Translation Framework v15.8.0.0',
/* authorisation */ '');

FILE_SCHEMA (('AUTOMOTIVE_DESIGN { 1 0 10303 214 3 1 1 }'));
ENDSEC;

DATA;
#10=MECHANICAL_DESIGN_GEOMETRIC_PRESENTATION_REPRESENTATION('',(#13),#580);
#11=SHAPE_REPRESENTATION_RELATIONSHIP('SRR','None',#587,#12);
#12=ADVANCED_BREP_SHAPE_REPRESENTATION('',(#233),#579);
#13=STYLED_ITEM('',(#597),#233);
#14=ORIENTED_CLOSED_SHELL('',*,#232,.F.);
#15=TOROIDAL_SURFACE('',#256,22.95,1.);
#16=TOROIDAL_SURFACE('',#259,23.9504266106703,1.25);
#17=TOROIDAL_SURFACE('',#263,22.95,1.);
#18=TOROIDAL_SURFACE('',#268,20.45,3.5);
#19=TOROIDAL_SURFACE('',#271,28.6084219063992,7.5);
#20=TOROIDAL_SURFACE('',#273,22.2064036164908,0.95);
#21=TOROIDAL_SURFACE('',#281,22.2064036164908,0.95);
#22=CYLINDRICAL_SURFACE('',#253,23.95);
#23=CYLINDRICAL_SURFACE('',#266,23.95);
#24=CYLINDRICAL_SURFACE('',#278,21.5);
#25=CYLINDRICAL_SURFACE('',#284,21.2564036164908);
#26=LINE('',#526,#31);
#27=LINE('',#532,#32);
#28=LINE('',#550,#33);
#29=LINE('',#570,#34);
#30=LINE('',#576,#35);
#31=VECTOR('',#299,23.7);
#32=VECTOR('',#306,23.95);
#33=VECTOR('',#331,23.95);
#34=VECTOR('',#358,21.5);
#35=VECTOR('',#367,21.2564036164908);
#36=CONICAL_SURFACE('',#251,23.7,0.785398163397448);
#37=B_SPLINE_SURFACE_WITH_KNOTS('',3,3,((#409,#410,#411,#412),(#413,#414,
#415,#416),(#417,#418,#419,#420),(#421,#422,#423,#424),(#425,#426,#427,
#428),(#429,#430,#431,#432),(#433,#434,#435,#436),(#437,#438,#439,#440),
(#441,#442,#443,#444),(#445,#446,#447,#448),(#449,#450,#451,#452),(#453,
#454,#455,#456),(#457,#458,#459,#460),(#461,#462,#463,#464),(#465,#466,
#467,#468),(#469,#470,#471,#472),(#473,#474,#475,#476)),.UNSPECIFIED.,.T.,
 .F.,.F.,(4,1,1,1,1,1,1,1,1,1,1,1,1,1,4),(4,4),(0.,0.0714285714285714,0.142857142857143,
0.19047619047619,0.285714285714286,0.333333333333333,0.428571428571429,
0.523809523809524,0.571428571428571,0.619047619047619,0.714285714285714,
0.785714285714286,0.857142857142857,0.928571428571429,1.),(0.,1.),
 .UNSPECIFIED.);
#38=FACE_BOUND('',#59,.T.);
#39=FACE_BOUND('',#62,.T.);
#40=B_SPLINE_CURVE_WITH_KNOTS('',3,(#373,#374,#375,#376,#377,#378,#379,
#380,#381,#382,#383,#384,#385,#386,#387,#388,#389,#390,#391,#392,#393,#394,
#395,#396,#397,#398,#399,#400,#401,#402,#403,#404,#405,#406,#407,#408),
 .UNSPECIFIED.,.T.,.F.,(4,2,2,2,2,2,2,2,2,2,2,2,2,2,2,2,2,4),(-19.47570615484,
-19.0933060848394,-18.710927358048,-18.0490546293389,-17.2616861198852,
-16.1338911463606,-14.7536373786153,-13.4365136160043,-12.0688031472029,
-10.6903783032202,-9.3707329408219,-7.80467816278137,-6.15877457979229,
-4.44485513056222,-2.84623674191205,-1.50474487273336,-0.659349104569301,
0.),.UNSPECIFIED.);
#41=B_SPLINE_CURVE_WITH_KNOTS('',3,(#478,#479,#480,#481),.UNSPECIFIED.,
 .F.,.F.,(4,4),(0.,0.213051213009843),.UNSPECIFIED.);
#42=B_SPLINE_CURVE_WITH_KNOTS('',3,(#482,#483,#484,#485,#486,#487,#488,
#489,#490,#491,#492,#493,#494,#495,#496,#497,#498,#499,#500,#501,#502,#503,
#504,#505,#506,#507,#508,#509,#510,#511,#512,#513,#514,#515,#516,#517,#518,
#519),.UNSPECIFIED.,.T.,.F.,(4,2,2,2,2,2,2,2,2,2,2,2,2,2,2,2,2,2,4),(0.,
0.0407981436067449,0.79332023468138,1.6363934245085,2.85297639277411,4.74926654108262,
6.84600902256562,8.86244866625459,11.2076490454524,13.2045501217019,14.8018664863246,
16.4366879251631,17.9289640277342,19.2034409262327,20.5010030597692,21.6236641621045,
22.5698827375501,23.412502140185,23.4814788224946),.UNSPECIFIED.);
#43=FACE_OUTER_BOUND('',#58,.T.);
#44=FACE_OUTER_BOUND('',#60,.T.);
#45=FACE_OUTER_BOUND('',#61,.T.);
#46=FACE_OUTER_BOUND('',#63,.T.);
#47=FACE_OUTER_BOUND('',#64,.T.);
#48=FACE_OUTER_BOUND('',#65,.T.);
#49=FACE_OUTER_BOUND('',#66,.T.);
#50=FACE_OUTER_BOUND('',#67,.T.);
#51=FACE_OUTER_BOUND('',#68,.T.);
#52=FACE_OUTER_BOUND('',#69,.T.);
#53=FACE_OUTER_BOUND('',#70,.T.);
#54=FACE_OUTER_BOUND('',#71,.T.);
#55=FACE_OUTER_BOUND('',#72,.T.);
#56=FACE_OUTER_BOUND('',#73,.T.);
#57=FACE_OUTER_BOUND('',#74,.T.);
#58=EDGE_LOOP('',(#150));
#59=EDGE_LOOP('',(#151));
#60=EDGE_LOOP('',(#152,#153,#154,#155));
#61=EDGE_LOOP('',(#156));
#62=EDGE_LOOP('',(#157));
#63=EDGE_LOOP('',(#158,#159,#160,#161));
#64=EDGE_LOOP('',(#162,#163,#164,#165,#166));
#65=EDGE_LOOP('',(#167,#168,#169,#170,#171));
#66=EDGE_LOOP('',(#172,#173,#174,#175,#176));
#67=EDGE_LOOP('',(#177,#178,#179,#180,#181));
#68=EDGE_LOOP('',(#182,#183,#184,#185));
#69=EDGE_LOOP('',(#186,#187,#188,#189));
#70=EDGE_LOOP('',(#190,#191,#192,#193));
#71=EDGE_LOOP('',(#194,#195,#196,#197,#198));
#72=EDGE_LOOP('',(#199,#200,#201,#202,#203));
#73=EDGE_LOOP('',(#204,#205,#206,#207,#208));
#74=EDGE_LOOP('',(#209,#210,#211,#212,#213));
#75=CIRCLE('',#248,22.7078074710993);
#76=CIRCLE('',#250,23.45);
#77=CIRCLE('',#252,23.95);
#78=CIRCLE('',#254,23.95);
#79=CIRCLE('',#255,23.95);
#80=CIRCLE('',#257,1.);
#81=CIRCLE('',#258,23.3946340491868);
#82=CIRCLE('',#260,1.25);
#83=CIRCLE('',#261,23.3946340491868);
#84=CIRCLE('',#262,23.3946340491868);
#85=CIRCLE('',#264,23.95);
#86=CIRCLE('',#265,1.);
#87=CIRCLE('',#267,23.95);
#88=CIRCLE('',#269,23.0458615156725);
#89=CIRCLE('',#270,3.5);
#90=CIRCLE('',#272,7.5);
#91=CIRCLE('',#274,21.5);
#92=CIRCLE('',#275,0.95);
#93=CIRCLE('',#276,21.2564036164908);
#94=CIRCLE('',#277,21.2564036164908);
#95=CIRCLE('',#279,21.5);
#96=CIRCLE('',#280,21.5);
#97=CIRCLE('',#282,0.95);
#98=CIRCLE('',#283,21.2564036164908);
#99=VERTEX_POINT('',#370);
#100=VERTEX_POINT('',#372);
#101=VERTEX_POINT('',#477);
#102=VERTEX_POINT('',#521);
#103=VERTEX_POINT('',#524);
#104=VERTEX_POINT('',#528);
#105=VERTEX_POINT('',#529);
#106=VERTEX_POINT('',#534);
#107=VERTEX_POINT('',#538);
#108=VERTEX_POINT('',#540);
#109=VERTEX_POINT('',#544);
#110=VERTEX_POINT('',#548);
#111=VERTEX_POINT('',#552);
#112=VERTEX_POINT('',#558);
#113=VERTEX_POINT('',#560);
#114=VERTEX_POINT('',#562);
#115=VERTEX_POINT('',#566);
#116=VERTEX_POINT('',#567);
#117=VERTEX_POINT('',#572);
#118=EDGE_CURVE('',#99,#99,#75,.T.);
#119=EDGE_CURVE('',#100,#100,#40,.T.);
#120=EDGE_CURVE('',#101,#100,#41,.T.);
#121=EDGE_CURVE('',#101,#101,#42,.T.);
#122=EDGE_CURVE('',#102,#102,#76,.T.);
#123=EDGE_CURVE('',#103,#103,#77,.T.);
#124=EDGE_CURVE('',#103,#102,#26,.T.);
#125=EDGE_CURVE('',#104,#105,#78,.T.);
#126=EDGE_CURVE('',#105,#104,#79,.T.);
#127=EDGE_CURVE('',#105,#103,#27,.T.);
#128=EDGE_CURVE('',#104,#106,#80,.T.);
#129=EDGE_CURVE('',#106,#106,#81,.T.);
#130=EDGE_CURVE('',#106,#107,#82,.T.);
#131=EDGE_CURVE('',#108,#107,#83,.T.);
#132=EDGE_CURVE('',#107,#108,#84,.T.);
#133=EDGE_CURVE('',#109,#109,#85,.T.);
#134=EDGE_CURVE('',#109,#108,#86,.T.);
#135=EDGE_CURVE('',#110,#110,#87,.T.);
#136=EDGE_CURVE('',#110,#109,#28,.T.);
#137=EDGE_CURVE('',#111,#111,#88,.T.);
#138=EDGE_CURVE('',#111,#110,#89,.T.);
#139=EDGE_CURVE('',#111,#99,#90,.T.);
#140=EDGE_CURVE('',#112,#112,#91,.T.);
#141=EDGE_CURVE('',#112,#113,#92,.T.);
#142=EDGE_CURVE('',#113,#114,#93,.T.);
#143=EDGE_CURVE('',#114,#113,#94,.T.);
#144=EDGE_CURVE('',#115,#116,#95,.T.);
#145=EDGE_CURVE('',#116,#115,#96,.T.);
#146=EDGE_CURVE('',#116,#112,#29,.T.);
#147=EDGE_CURVE('',#115,#117,#97,.T.);
#148=EDGE_CURVE('',#117,#117,#98,.T.);
#149=EDGE_CURVE('',#117,#114,#30,.T.);
#150=ORIENTED_EDGE('',*,*,#118,.F.);
#151=ORIENTED_EDGE('',*,*,#119,.F.);
#152=ORIENTED_EDGE('',*,*,#119,.T.);
#153=ORIENTED_EDGE('',*,*,#120,.F.);
#154=ORIENTED_EDGE('',*,*,#121,.F.);
#155=ORIENTED_EDGE('',*,*,#120,.T.);
#156=ORIENTED_EDGE('',*,*,#122,.F.);
#157=ORIENTED_EDGE('',*,*,#121,.T.);
#158=ORIENTED_EDGE('',*,*,#123,.T.);
#159=ORIENTED_EDGE('',*,*,#124,.T.);
#160=ORIENTED_EDGE('',*,*,#122,.T.);
#161=ORIENTED_EDGE('',*,*,#124,.F.);
#162=ORIENTED_EDGE('',*,*,#125,.F.);
#163=ORIENTED_EDGE('',*,*,#126,.F.);
#164=ORIENTED_EDGE('',*,*,#127,.T.);
#165=ORIENTED_EDGE('',*,*,#123,.F.);
#166=ORIENTED_EDGE('',*,*,#127,.F.);
#167=ORIENTED_EDGE('',*,*,#125,.T.);
#168=ORIENTED_EDGE('',*,*,#126,.T.);
#169=ORIENTED_EDGE('',*,*,#128,.T.);
#170=ORIENTED_EDGE('',*,*,#129,.T.);
#171=ORIENTED_EDGE('',*,*,#128,.F.);
#172=ORIENTED_EDGE('',*,*,#129,.F.);
#173=ORIENTED_EDGE('',*,*,#130,.T.);
#174=ORIENTED_EDGE('',*,*,#131,.F.);
#175=ORIENTED_EDGE('',*,*,#132,.F.);
#176=ORIENTED_EDGE('',*,*,#130,.F.);
#177=ORIENTED_EDGE('',*,*,#133,.T.);
#178=ORIENTED_EDGE('',*,*,#134,.T.);
#179=ORIENTED_EDGE('',*,*,#131,.T.);
#180=ORIENTED_EDGE('',*,*,#132,.T.);
#181=ORIENTED_EDGE('',*,*,#134,.F.);
#182=ORIENTED_EDGE('',*,*,#135,.F.);
#183=ORIENTED_EDGE('',*,*,#136,.T.);
#184=ORIENTED_EDGE('',*,*,#133,.F.);
#185=ORIENTED_EDGE('',*,*,#136,.F.);
#186=ORIENTED_EDGE('',*,*,#137,.T.);
#187=ORIENTED_EDGE('',*,*,#138,.T.);
#188=ORIENTED_EDGE('',*,*,#135,.T.);
#189=ORIENTED_EDGE('',*,*,#138,.F.);
#190=ORIENTED_EDGE('',*,*,#137,.F.);
#191=ORIENTED_EDGE('',*,*,#139,.T.);
#192=ORIENTED_EDGE('',*,*,#118,.T.);
#193=ORIENTED_EDGE('',*,*,#139,.F.);
#194=ORIENTED_EDGE('',*,*,#140,.T.);
#195=ORIENTED_EDGE('',*,*,#141,.T.);
#196=ORIENTED_EDGE('',*,*,#142,.T.);
#197=ORIENTED_EDGE('',*,*,#143,.T.);
#198=ORIENTED_EDGE('',*,*,#141,.F.);
#199=ORIENTED_EDGE('',*,*,#144,.F.);
#200=ORIENTED_EDGE('',*,*,#145,.F.);
#201=ORIENTED_EDGE('',*,*,#146,.T.);
#202=ORIENTED_EDGE('',*,*,#140,.F.);
#203=ORIENTED_EDGE('',*,*,#146,.F.);
#204=ORIENTED_EDGE('',*,*,#144,.T.);
#205=ORIENTED_EDGE('',*,*,#145,.T.);
#206=ORIENTED_EDGE('',*,*,#147,.T.);
#207=ORIENTED_EDGE('',*,*,#148,.T.);
#208=ORIENTED_EDGE('',*,*,#147,.F.);
#209=ORIENTED_EDGE('',*,*,#148,.F.);
#210=ORIENTED_EDGE('',*,*,#149,.T.);
#211=ORIENTED_EDGE('',*,*,#142,.F.);
#212=ORIENTED_EDGE('',*,*,#143,.F.);
#213=ORIENTED_EDGE('',*,*,#149,.F.);
#214=PLANE('',#247);
#215=PLANE('',#249);
#216=ADVANCED_FACE('',(#43,#38),#214,.F.);
#217=ADVANCED_FACE('',(#44),#37,.T.);
#218=ADVANCED_FACE('',(#45,#39),#215,.F.);
#219=ADVANCED_FACE('',(#46),#36,.T.);
#220=ADVANCED_FACE('',(#47),#22,.T.);
#221=ADVANCED_FACE('',(#48),#15,.T.);
#222=ADVANCED_FACE('',(#49),#16,.F.);
#223=ADVANCED_FACE('',(#50),#17,.T.);
#224=ADVANCED_FACE('',(#51),#23,.T.);
#225=ADVANCED_FACE('',(#52),#18,.T.);
#226=ADVANCED_FACE('',(#53),#19,.F.);
#227=ADVANCED_FACE('',(#54),#20,.F.);
#228=ADVANCED_FACE('',(#55),#24,.F.);
#229=ADVANCED_FACE('',(#56),#21,.F.);
#230=ADVANCED_FACE('',(#57),#25,.T.);
#231=CLOSED_SHELL('',(#216,#217,#218,#219,#220,#221,#222,#223,#224,#225,
#226));
#232=CLOSED_SHELL('',(#227,#228,#229,#230));
#233=BREP_WITH_VOIDS('throttle body bore (id) rubber size (od)',#231,(#14));
#234=DERIVED_UNIT_ELEMENT(#236,1.);
#235=DERIVED_UNIT_ELEMENT(#582,-3.);
#236=(
MASS_UNIT()
NAMED_UNIT(*)
SI_UNIT(.KILO.,.GRAM.)
);
#237=DERIVED_UNIT((#234,#235));
#238=MEASURE_REPRESENTATION_ITEM('density measure',
POSITIVE_RATIO_MEASURE(7850.),#237);
#239=PROPERTY_DEFINITION_REPRESENTATION(#244,#241);
#240=PROPERTY_DEFINITION_REPRESENTATION(#245,#242);
#241=REPRESENTATION('material name',(#243),#579);
#242=REPRESENTATION('density',(#238),#579);
#243=DESCRIPTIVE_REPRESENTATION_ITEM('Steel','Steel');
#244=PROPERTY_DEFINITION('material property','material name',#589);
#245=PROPERTY_DEFINITION('material property','density of part',#589);
#246=AXIS2_PLACEMENT_3D('',#368,#285,#286);
#247=AXIS2_PLACEMENT_3D('',#369,#287,#288);
#248=AXIS2_PLACEMENT_3D('',#371,#289,#290);
#249=AXIS2_PLACEMENT_3D('',#520,#291,#292);
#250=AXIS2_PLACEMENT_3D('',#522,#293,#294);
#251=AXIS2_PLACEMENT_3D('',#523,#295,#296);
#252=AXIS2_PLACEMENT_3D('',#525,#297,#298);
#253=AXIS2_PLACEMENT_3D('',#527,#300,#301);
#254=AXIS2_PLACEMENT_3D('',#530,#302,#303);
#255=AXIS2_PLACEMENT_3D('',#531,#304,#305);
#256=AXIS2_PLACEMENT_3D('',#533,#307,#308);
#257=AXIS2_PLACEMENT_3D('',#535,#309,#310);
#258=AXIS2_PLACEMENT_3D('',#536,#311,#312);
#259=AXIS2_PLACEMENT_3D('',#537,#313,#314);
#260=AXIS2_PLACEMENT_3D('',#539,#315,#316);
#261=AXIS2_PLACEMENT_3D('',#541,#317,#318);
#262=AXIS2_PLACEMENT_3D('',#542,#319,#320);
#263=AXIS2_PLACEMENT_3D('',#543,#321,#322);
#264=AXIS2_PLACEMENT_3D('',#545,#323,#324);
#265=AXIS2_PLACEMENT_3D('',#546,#325,#326);
#266=AXIS2_PLACEMENT_3D('',#547,#327,#328);
#267=AXIS2_PLACEMENT_3D('',#549,#329,#330);
#268=AXIS2_PLACEMENT_3D('',#551,#332,#333);
#269=AXIS2_PLACEMENT_3D('',#553,#334,#335);
#270=AXIS2_PLACEMENT_3D('',#554,#336,#337);
#271=AXIS2_PLACEMENT_3D('',#555,#338,#339);
#272=AXIS2_PLACEMENT_3D('',#556,#340,#341);
#273=AXIS2_PLACEMENT_3D('',#557,#342,#343);
#274=AXIS2_PLACEMENT_3D('',#559,#344,#345);
#275=AXIS2_PLACEMENT_3D('',#561,#346,#347);
#276=AXIS2_PLACEMENT_3D('',#563,#348,#349);
#277=AXIS2_PLACEMENT_3D('',#564,#350,#351);
#278=AXIS2_PLACEMENT_3D('',#565,#352,#353);
#279=AXIS2_PLACEMENT_3D('',#568,#354,#355);
#280=AXIS2_PLACEMENT_3D('',#569,#356,#357);
#281=AXIS2_PLACEMENT_3D('',#571,#359,#360);
#282=AXIS2_PLACEMENT_3D('',#573,#361,#362);
#283=AXIS2_PLACEMENT_3D('',#574,#363,#364);
#284=AXIS2_PLACEMENT_3D('',#575,#365,#366);
#285=DIRECTION('axis',(0.,0.,1.));
#286=DIRECTION('refdir',(1.,0.,0.));
#287=DIRECTION('center_axis',(0.,0.,1.));
#288=DIRECTION('ref_axis',(1.,0.,0.));
#289=DIRECTION('center_axis',(-7.4783013511981E-36,-3.08323492419737E-20,
1.));
#290=DIRECTION('ref_axis',(1.,0.,7.4783013511981E-36));
#291=DIRECTION('center_axis',(0.,0.,-1.));
#292=DIRECTION('ref_axis',(-1.,0.,0.));
#293=DIRECTION('center_axis',(0.,0.,-1.));
#294=DIRECTION('ref_axis',(-1.,0.,0.));
#295=DIRECTION('center_axis',(0.,0.,-1.));
#296=DIRECTION('ref_axis',(-1.,0.,0.));
#297=DIRECTION('center_axis',(0.,0.,1.));
#298=DIRECTION('ref_axis',(-1.,0.,0.));
#299=DIRECTION('',(-0.707106781186547,8.65956056235493E-17,0.707106781186548));
#300=DIRECTION('center_axis',(0.,0.,-1.));
#301=DIRECTION('ref_axis',(-1.,0.,0.));
#302=DIRECTION('center_axis',(0.,0.,-1.));
#303=DIRECTION('ref_axis',(-1.,0.,0.));
#304=DIRECTION('center_axis',(0.,0.,-1.));
#305=DIRECTION('ref_axis',(-1.,0.,0.));
#306=DIRECTION('',(0.,0.,1.));
#307=DIRECTION('center_axis',(0.,0.,1.));
#308=DIRECTION('ref_axis',(1.,0.,0.));
#309=DIRECTION('center_axis',(1.2168415196831E-16,-1.,0.));
#310=DIRECTION('ref_axis',(-1.,-1.2168415196831E-16,0.));
#311=DIRECTION('center_axis',(0.,0.,1.));
#312=DIRECTION('ref_axis',(-1.,0.,0.));
#313=DIRECTION('center_axis',(0.,0.,1.));
#314=DIRECTION('ref_axis',(1.,0.,0.));
#315=DIRECTION('center_axis',(-1.21153239383116E-16,1.,0.));
#316=DIRECTION('ref_axis',(-1.,-1.21153239383116E-16,0.));
#317=DIRECTION('center_axis',(0.,0.,-1.));
#318=DIRECTION('ref_axis',(-1.,0.,0.));
#319=DIRECTION('center_axis',(0.,0.,-1.));
#320=DIRECTION('ref_axis',(-1.,0.,0.));
#321=DIRECTION('center_axis',(0.,0.,-1.));
#322=DIRECTION('ref_axis',(-1.,0.,0.));
#323=DIRECTION('center_axis',(0.,0.,1.));
#324=DIRECTION('ref_axis',(-1.,0.,0.));
#325=DIRECTION('center_axis',(-1.2168415196831E-16,-1.,0.));
#326=DIRECTION('ref_axis',(1.,-1.2168415196831E-16,0.));
#327=DIRECTION('center_axis',(0.,0.,-1.));
#328=DIRECTION('ref_axis',(-1.,0.,0.));
#329=DIRECTION('center_axis',(0.,0.,-1.));
#330=DIRECTION('ref_axis',(-1.,0.,0.));
#331=DIRECTION('',(0.,0.,1.));
#332=DIRECTION('center_axis',(0.,0.,-1.));
#333=DIRECTION('ref_axis',(-1.,0.,0.));
#334=DIRECTION('center_axis',(0.,0.,1.));
#335=DIRECTION('ref_axis',(-1.,0.,0.));
#336=DIRECTION('center_axis',(-1.2168415196831E-16,-1.,0.));
#337=DIRECTION('ref_axis',(1.,-1.2168415196831E-16,0.));
#338=DIRECTION('center_axis',(-1.49566027023962E-35,-6.16646984839475E-20,
1.));
#339=DIRECTION('ref_axis',(-1.,2.49050111433146E-16,0.));
#340=DIRECTION('center_axis',(-1.2683107526688E-16,-1.,-6.16646984839475E-20));
#341=DIRECTION('ref_axis',(1.,-1.2683107526688E-16,0.));
#342=DIRECTION('center_axis',(0.,0.,-1.));
#343=DIRECTION('ref_axis',(-1.,-1.19861339762893E-16,0.));
#344=DIRECTION('center_axis',(0.,0.,1.));
#345=DIRECTION('ref_axis',(-1.,0.,0.));
#346=DIRECTION('center_axis',(2.99653349407233E-18,1.,0.));
#347=DIRECTION('ref_axis',(1.,-2.99653349407233E-18,0.));
#348=DIRECTION('center_axis',(0.,0.,-1.));
#349=DIRECTION('ref_axis',(-1.,-1.20781990724615E-16,0.));
#350=DIRECTION('center_axis',(0.,0.,-1.));
#351=DIRECTION('ref_axis',(-1.,-1.20781990724615E-16,0.));
#352=DIRECTION('center_axis',(0.,0.,-1.));
#353=DIRECTION('ref_axis',(-1.,0.,0.));
#354=DIRECTION('center_axis',(0.,0.,-1.));
#355=DIRECTION('ref_axis',(-1.,0.,0.));
#356=DIRECTION('center_axis',(0.,0.,-1.));
#357=DIRECTION('ref_axis',(-1.,0.,0.));
#358=DIRECTION('',(0.,0.,-1.));
#359=DIRECTION('center_axis',(0.,0.,1.));
#360=DIRECTION('ref_axis',(1.,1.29450246943925E-16,0.));
#361=DIRECTION('center_axis',(-2.51708813502076E-16,1.,0.));
#362=DIRECTION('ref_axis',(-1.,-2.51708813502076E-16,0.));
#363=DIRECTION('center_axis',(0.,0.,1.));
#364=DIRECTION('ref_axis',(1.,1.2731074698E-16,0.));
#365=DIRECTION('center_axis',(0.,0.,1.));
#366=DIRECTION('ref_axis',(1.,0.,0.));
#367=DIRECTION('',(0.,0.,-1.));
#368=CARTESIAN_POINT('',(0.,0.,0.));
#369=CARTESIAN_POINT('Origin',(-81.5977898191952,-0.498624746904395,41.5000025779008));
#370=CARTESIAN_POINT('',(-51.1826179492849,-0.589909663848652,41.5000025779008));
#371=CARTESIAN_POINT('Origin',(-73.8904254203842,-0.589909663848649,41.5000025779008));
#372=CARTESIAN_POINT('',(-90.5397814569015,-0.279219350751647,41.5000025779008));
#373=CARTESIAN_POINT('Ctrl Pts',(-90.5397814569015,-0.279219350751647,41.5000025779008));
#374=CARTESIAN_POINT('Ctrl Pts',(-90.5396670621958,1.00218502531156,41.5000025779008));
#375=CARTESIAN_POINT('Ctrl Pts',(-90.39400351602,2.2832709487773,41.5000025779008));
#376=CARTESIAN_POINT('Ctrl Pts',(-89.8255514679033,4.78216933920493,41.5000025779008));
#377=CARTESIAN_POINT('Ctrl Pts',(-89.4027517786191,6.00010250917937,41.5000025779008));
#378=CARTESIAN_POINT('Ctrl Pts',(-87.8885101439619,9.15473079117911,41.5000025779008));
#379=CARTESIAN_POINT('Ctrl Pts',(-86.5343496064937,10.9653058417329,41.5000025779008));
#380=CARTESIAN_POINT('Ctrl Pts',(-82.9383185563525,14.2262119973006,41.5000025779008));
#381=CARTESIAN_POINT('Ctrl Pts',(-80.8795244432662,15.2709957354873,41.5000025779008));
#382=CARTESIAN_POINT('Ctrl Pts',(-76.7072787790015,16.7711674248164,41.5000025779008));
#383=CARTESIAN_POINT('Ctrl Pts',(-74.4188683268511,16.9661166316426,41.5000025779008));
#384=CARTESIAN_POINT('Ctrl Pts',(-70.2829614797085,16.7770750938987,41.5000025779008));
#385=CARTESIAN_POINT('Ctrl Pts',(-68.0762262213908,16.2226885969321,41.5000025779008));
#386=CARTESIAN_POINT('Ctrl Pts',(-64.0662230444365,14.3220922083066,41.5000025779008));
#387=CARTESIAN_POINT('Ctrl Pts',(-62.2801519751685,13.0279675639145,41.5000025779008));
#388=CARTESIAN_POINT('Ctrl Pts',(-59.2653117727096,9.80001301224133,41.5000025779008));
#389=CARTESIAN_POINT('Ctrl Pts',(-58.0641078245792,7.84764166050908,41.5000025779008));
#390=CARTESIAN_POINT('Ctrl Pts',(-56.4759154763666,3.61622202291378,41.5000025779008));
#391=CARTESIAN_POINT('Ctrl Pts',(-56.111968699841,1.38256976906075,41.5000025779008));
#392=CARTESIAN_POINT('Ctrl Pts',(-56.276608415788,-3.06467519277563,41.5000025779008));
#393=CARTESIAN_POINT('Ctrl Pts',(-56.7660539431388,-5.22798221183358,41.5000025779008));
#394=CARTESIAN_POINT('Ctrl Pts',(-58.6844131502972,-9.58367058771577,41.5000025779008));
#395=CARTESIAN_POINT('Ctrl Pts',(-60.1383822390744,-11.407076321794,41.5000025779008));
#396=CARTESIAN_POINT('Ctrl Pts',(-63.026258504802,-14.1486243483676,41.5000025779008));
#397=CARTESIAN_POINT('Ctrl Pts',(-64.8765339631393,-15.4144049279404,41.5000025779008));
#398=CARTESIAN_POINT('Ctrl Pts',(-69.4450820853676,-17.1972249342488,41.5000025779008));
#399=CARTESIAN_POINT('Ctrl Pts',(-71.7285639363716,-17.4995399356247,41.5000025779008));
#400=CARTESIAN_POINT('Ctrl Pts',(-75.7041778841682,-17.397150262619,41.5000025779008));
#401=CARTESIAN_POINT('Ctrl Pts',(-77.9135579148325,-17.0253435158384,41.5000025779008));
#402=CARTESIAN_POINT('Ctrl Pts',(-82.0506959851962,-15.2430913198434,41.5000025779008));
#403=CARTESIAN_POINT('Ctrl Pts',(-83.9784283877244,-14.0036564742893,41.5000025779008));
#404=CARTESIAN_POINT('Ctrl Pts',(-86.7645976261447,-11.1297351283529,41.5000025779008));
#405=CARTESIAN_POINT('Ctrl Pts',(-88.2364997255546,-9.32772394343813,41.5000025779008));
#406=CARTESIAN_POINT('Ctrl Pts',(-90.111546293038,-4.67576704059868,41.5000025779008));
#407=CARTESIAN_POINT('Ctrl Pts',(-90.5395713796367,-2.47704968927598,41.5000025779008));
#408=CARTESIAN_POINT('Ctrl Pts',(-90.5397814569015,-0.279219350751649,41.5000025779008));
#409=CARTESIAN_POINT('Ctrl Pts',(-93.3904254203842,-0.589909663848649,54.5000025779008));
#410=CARTESIAN_POINT('Ctrl Pts',(-88.2093803769114,-0.025230059048201,34.2040851674502));
#411=CARTESIAN_POINT('Ctrl Pts',(-86.4125720320787,0.170603217356238,13.7040844199087));
#412=CARTESIAN_POINT('Ctrl Pts',(-88.0000003858861,-0.00240983463533113,
-6.9999996647239));
#413=CARTESIAN_POINT('Ctrl Pts',(-93.3904254203842,-3.50710284218203,54.5000025779008));
#414=CARTESIAN_POINT('Ctrl Pts',(-88.2088071814083,-2.31272950494607,34.2040851674502));
#415=CARTESIAN_POINT('Ctrl Pts',(-86.4123964098275,-1.89687364771859,13.7040844199087));
#416=CARTESIAN_POINT('Ctrl Pts',(-88.0000003858861,-2.26281953019042,-6.9999996647239));
#417=CARTESIAN_POINT('Ctrl Pts',(-92.0609002744672,-9.34480847004102,54.5000025779008));
#418=CARTESIAN_POINT('Ctrl Pts',(-87.1678292110097,-6.88397568464458,34.2040851674502));
#419=CARTESIAN_POINT('Ctrl Pts',(-85.4706119806654,-6.03223254499325,13.7040844199086));
#420=CARTESIAN_POINT('Ctrl Pts',(-86.9698075441382,-6.78621088425488,-6.9999996647239));
#421=CARTESIAN_POINT('Ctrl Pts',(-87.0850929235414,-15.5680492362162,54.5000025779008));
#422=CARTESIAN_POINT('Ctrl Pts',(-83.2683701873055,-11.7630054374339,34.2040851674502));
#423=CARTESIAN_POINT('Ctrl Pts',(-81.944853190587,-10.4425039043195,13.7040844199087));
#424=CARTESIAN_POINT('Ctrl Pts',(-83.1142647358032,-11.6083371219396,-6.9999996647239));
#425=CARTESIAN_POINT('Ctrl Pts',(-79.4173208144564,-20.0107010770006,54.5000025779008));
#426=CARTESIAN_POINT('Ctrl Pts',(-77.2601528094169,-15.2421554637889,34.2040851674502));
#427=CARTESIAN_POINT('Ctrl Pts',(-76.511894194688,-13.5897182404778,13.7040844199087));
#428=CARTESIAN_POINT('Ctrl Pts',(-77.1728322151825,-15.0507602598621,-6.9999996647239));
#429=CARTESIAN_POINT('Ctrl Pts',(-71.3210120888003,-20.6149084833293,54.5000025779008));
#430=CARTESIAN_POINT('Ctrl Pts',(-70.9155215327172,-15.7178346561536,34.2040851674503));
#431=CARTESIAN_POINT('Ctrl Pts',(-70.7751059082545,-14.0185130651441,13.7040844199087));
#432=CARTESIAN_POINT('Ctrl Pts',(-70.8993447829461,-15.5189350415445,-6.9999996647239));
#433=CARTESIAN_POINT('Ctrl Pts',(-62.1565265331117,-17.0189196369639,54.5000025779008));
#434=CARTESIAN_POINT('Ctrl Pts',(-63.734588365613,-12.8992651932285,34.2040851674502));
#435=CARTESIAN_POINT('Ctrl Pts',(-64.2816770630115,-11.4703280162031,13.7040844199086));
#436=CARTESIAN_POINT('Ctrl Pts',(-63.7981722727704,-12.7325552728669,-6.9999996647239));
#437=CARTESIAN_POINT('Ctrl Pts',(-55.2357667401813,-9.57865864644883,54.5000025779008));
#438=CARTESIAN_POINT('Ctrl Pts',(-58.3110055235952,-7.068621579381,34.2040851674503));
#439=CARTESIAN_POINT('Ctrl Pts',(-59.377795159949,-6.19835738727502,13.7040844199087));
#440=CARTESIAN_POINT('Ctrl Pts',(-58.4355680226517,-6.9674115020218,-6.9999996647239));
#441=CARTESIAN_POINT('Ctrl Pts',(-53.7245525693295,0.484959014047182,54.5000025779008));
#442=CARTESIAN_POINT('Ctrl Pts',(-57.1274628089531,0.816334053672127,34.2040851674503));
#443=CARTESIAN_POINT('Ctrl Pts',(-58.3072149331412,0.931990981068142,13.7040844199086));
#444=CARTESIAN_POINT('Ctrl Pts',(-57.2645920347655,0.830460473375026,-6.9999996647239));
#445=CARTESIAN_POINT('Ctrl Pts',(-56.0635056701539,7.99336370089567,54.5000025779008));
#446=CARTESIAN_POINT('Ctrl Pts',(-58.9592778235485,6.70130568483518,34.2040851674502));
#447=CARTESIAN_POINT('Ctrl Pts',(-59.9641880149002,6.25253027298961,13.7040844199087));
#448=CARTESIAN_POINT('Ctrl Pts',(-59.0769479342034,6.64840591434165,-6.9999996647239));
#449=CARTESIAN_POINT('Ctrl Pts',(-60.4793468635244,14.51117189096,54.5000025779008));
#450=CARTESIAN_POINT('Ctrl Pts',(-62.4206378103224,11.8077867320891,34.2040851674502));
#451=CARTESIAN_POINT('Ctrl Pts',(-63.0933917514566,10.8704856648281,13.7040844199087));
#452=CARTESIAN_POINT('Ctrl Pts',(-62.498596634626,11.6987799985862,-6.9999996647239));
#453=CARTESIAN_POINT('Ctrl Pts',(-68.4000744655331,19.0805360990412,54.5000025779008));
#454=CARTESIAN_POINT('Ctrl Pts',(-68.6266798807089,15.3887615133676,34.2040851674502));
#455=CARTESIAN_POINT('Ctrl Pts',(-68.7054636567087,14.1082587049633,13.7040844199086));
#456=CARTESIAN_POINT('Ctrl Pts',(-68.6360336752748,15.2393871942914,-6.9999996647239));
#457=CARTESIAN_POINT('Ctrl Pts',(-78.3810622067235,19.0662912318468,54.5000025779008));
#458=CARTESIAN_POINT('Ctrl Pts',(-76.4481566055057,15.3773779770222,34.2040851674502));
#459=CARTESIAN_POINT('Ctrl Pts',(-75.7776533007345,14.0980976470056,13.7040844199087));
#460=CARTESIAN_POINT('Ctrl Pts',(-76.369879218645,15.2283494487771,-6.9999996647239));
#461=CARTESIAN_POINT('Ctrl Pts',(-86.4622389013349,15.17923090632,54.5000025779008));
#462=CARTESIAN_POINT('Ctrl Pts',(-82.7802368727334,12.3312996057789,34.2040851674503));
#463=CARTESIAN_POINT('Ctrl Pts',(-81.5035072190497,11.3438486450867,13.7040844199087));
#464=CARTESIAN_POINT('Ctrl Pts',(-82.6316414795966,12.2164306933494,-6.9999996647239));
#465=CARTESIAN_POINT('Ctrl Pts',(-92.0606241484953,8.15855529220784,54.5000025779008));
#466=CARTESIAN_POINT('Ctrl Pts',(-87.1674728448334,6.83029912632052,34.2040851674502));
#467=CARTESIAN_POINT('Ctrl Pts',(-85.4703734374009,6.36943944833583,13.7040844199086));
#468=CARTESIAN_POINT('Ctrl Pts',(-86.9695935857933,6.77640589644758,-6.9999996647239));
#469=CARTESIAN_POINT('Ctrl Pts',(-93.3904254203842,2.32728351448473,54.5000025779008));
#470=CARTESIAN_POINT('Ctrl Pts',(-88.2088451876486,2.26047163763591,34.2040851674503));
#471=CARTESIAN_POINT('Ctrl Pts',(-86.4124080546179,2.23752926728644,13.7040844199087));
#472=CARTESIAN_POINT('Ctrl Pts',(-88.0000003858861,2.25799986091976,-6.9999996647239));
#473=CARTESIAN_POINT('Ctrl Pts',(-93.3904254203842,-0.589909663848644,54.5000025779008));
#474=CARTESIAN_POINT('Ctrl Pts',(-88.2093803769114,-0.0252300590481973,
34.2040851674502));
#475=CARTESIAN_POINT('Ctrl Pts',(-86.4125720320787,0.170603217356242,13.7040844199087));
#476=CARTESIAN_POINT('Ctrl Pts',(-88.0000003858861,-0.00240983463532742,
-6.9999996647239));
#477=CARTESIAN_POINT('',(-93.3904254203842,-0.589909663848649,54.5000025779008));
#478=CARTESIAN_POINT('Ctrl Pts',(-93.3904254203842,-0.589909663848649,54.5000025779008));
#479=CARTESIAN_POINT('Ctrl Pts',(-92.2865974892137,-0.469603989083995,50.1759327544567));
#480=CARTESIAN_POINT('Ctrl Pts',(-91.3363828347194,-0.366040551384994,45.8425994211233));
#481=CARTESIAN_POINT('Ctrl Pts',(-90.5397814569014,-0.279219350751648,41.5000025779007));
#482=CARTESIAN_POINT('Ctrl Pts',(-93.3904254203842,-0.589909663848645,54.5000025779008));
#483=CARTESIAN_POINT('Ctrl Pts',(-93.3904254203842,-0.453915851826162,54.5000025779008));
#484=CARTESIAN_POINT('Ctrl Pts',(-93.3889804309606,-0.317922839071236,54.5000025779008));
#485=CARTESIAN_POINT('Ctrl Pts',(-93.3329082120894,2.32588337923468,54.5000025779008));
#486=CARTESIAN_POINT('Ctrl Pts',(-92.790277125976,4.82290851429407,54.5000025779008));
#487=CARTESIAN_POINT('Ctrl Pts',(-90.6882200342056,9.70849449726743,54.5000025779008));
#488=CARTESIAN_POINT('Ctrl Pts',(-89.1339870659696,11.7744740870464,54.5000025779008));
#489=CARTESIAN_POINT('Ctrl Pts',(-85.2024779977264,15.6258444619863,54.5000025779008));
#490=CARTESIAN_POINT('Ctrl Pts',(-82.8205571467892,16.8346075927886,54.5000025779008));
#491=CARTESIAN_POINT('Ctrl Pts',(-78.5674550468159,18.5446502896215,54.5000025779008));
#492=CARTESIAN_POINT('Ctrl Pts',(-76.0142645497009,18.9312758075547,54.5000025779008));
#493=CARTESIAN_POINT('Ctrl Pts',(-71.1202455043879,18.8849780395961,54.5000025779008));
#494=CARTESIAN_POINT('Ctrl Pts',(-68.6077724294363,18.3596698540957,54.5000025779008));
#495=CARTESIAN_POINT('Ctrl Pts',(-63.9550526825775,16.3645950155947,54.5000025779008));
#496=CARTESIAN_POINT('Ctrl Pts',(-61.857318671447,14.9545325126884,54.5000025779008));
#497=CARTESIAN_POINT('Ctrl Pts',(-58.0569408648312,11.1632430034256,54.5000025779008));
#498=CARTESIAN_POINT('Ctrl Pts',(-56.7176453260455,8.90530073033581,54.5000025779008));
#499=CARTESIAN_POINT('Ctrl Pts',(-55.1445781690502,5.1037088726234,54.5000025779008));
#500=CARTESIAN_POINT('Ctrl Pts',(-54.3858205257877,2.59245073139682,54.5000025779008));
#501=CARTESIAN_POINT('Ctrl Pts',(-54.3960545741534,-3.13547208449681,54.5000025779008));
#502=CARTESIAN_POINT('Ctrl Pts',(-54.8960127695322,-5.68423525827316,54.5000025779008));
#503=CARTESIAN_POINT('Ctrl Pts',(-56.8558939421586,-10.4473772037628,54.5000025779008));
#504=CARTESIAN_POINT('Ctrl Pts',(-58.2700619771772,-12.5005660790203,54.5000025779008));
#505=CARTESIAN_POINT('Ctrl Pts',(-61.489610496955,-15.7924927039028,54.5000025779008));
#506=CARTESIAN_POINT('Ctrl Pts',(-63.5766555259253,-17.408336151172,54.5000025779008));
#507=CARTESIAN_POINT('Ctrl Pts',(-68.6290865766687,-19.5430680188432,54.5000025779008));
#508=CARTESIAN_POINT('Ctrl Pts',(-71.1101904523516,-20.0535913061211,54.5000025779008));
#509=CARTESIAN_POINT('Ctrl Pts',(-76.2019574039915,-20.1123641587317,54.5000025779008));
#510=CARTESIAN_POINT('Ctrl Pts',(-78.7807576701068,-19.6426306032564,54.5000025779008));
#511=CARTESIAN_POINT('Ctrl Pts',(-83.2408127353557,-17.8514462271262,54.5000025779008));
#512=CARTESIAN_POINT('Ctrl Pts',(-85.4035575627508,-16.5609537237579,54.5000025779008));
#513=CARTESIAN_POINT('Ctrl Pts',(-89.0201574341544,-13.0969278069401,54.5000025779008));
#514=CARTESIAN_POINT('Ctrl Pts',(-90.5995992513955,-11.0313215306598,54.5000025779008));
#515=CARTESIAN_POINT('Ctrl Pts',(-92.7380870479315,-6.18116671596597,54.5000025779008));
#516=CARTESIAN_POINT('Ctrl Pts',(-93.3012033335361,-3.69866154125635,54.5000025779008));
#517=CARTESIAN_POINT('Ctrl Pts',(-93.3871618762071,-0.998704568362176,54.5000025779008));
#518=CARTESIAN_POINT('Ctrl Pts',(-93.3904254203842,-0.79430767554397,54.5000025779008));
#519=CARTESIAN_POINT('Ctrl Pts',(-93.3904254203842,-0.589909663848649,54.5000025779008));
#520=CARTESIAN_POINT('Origin',(-90.3904254203842,-0.589909663848651,54.5000025779008));
#521=CARTESIAN_POINT('',(-50.4404254203842,-0.589909663848652,54.5000025779008));
#522=CARTESIAN_POINT('Origin',(-73.8904254203842,-0.589909663848649,54.5000025779008));
#523=CARTESIAN_POINT('Origin',(-73.8904254203842,-0.589909663848649,54.2500025779008));
#524=CARTESIAN_POINT('',(-49.9404254203842,-0.589909663848646,54.0000025779008));
#525=CARTESIAN_POINT('Origin',(-73.8904254203842,-0.589909663848649,54.0000025779008));
#526=CARTESIAN_POINT('',(-50.1904254203842,-0.589909663848652,54.2500025779008));
#527=CARTESIAN_POINT('Origin',(-73.8904254203842,-0.589909663848649,54.5000025779008));
#528=CARTESIAN_POINT('',(-97.8404254203842,-0.589909663848652,49.315354931274));
#529=CARTESIAN_POINT('',(-49.9404254203842,-0.589909663848652,49.315354931274));
#530=CARTESIAN_POINT('Origin',(-73.8904254203842,-0.589909663848649,49.315354931274));
#531=CARTESIAN_POINT('Origin',(-73.8904254203842,-0.589909663848649,49.315354931274));
#532=CARTESIAN_POINT('',(-49.9404254203842,-0.589909663848652,54.5000025779008));
#533=CARTESIAN_POINT('Origin',(-73.8904254203842,-0.589909663848649,49.315354931274));
#534=CARTESIAN_POINT('',(-97.285059469571,-0.589909663848652,48.4196426100996));
#535=CARTESIAN_POINT('Origin',(-96.8404254203842,-0.589909663848652,49.315354931274));
#536=CARTESIAN_POINT('Origin',(-73.8904254203842,-0.589909663848649,48.4196426100996));
#537=CARTESIAN_POINT('Origin',(-73.8904254203842,-0.589909663848649,47.3000022086315));
#538=CARTESIAN_POINT('',(-97.285059469571,-0.589909663848652,46.1803618071634));
#539=CARTESIAN_POINT('Origin',(-97.8408520310545,-0.589909663848652,47.3000022086315));
#540=CARTESIAN_POINT('',(-50.4957913711974,-0.589909663848652,46.1803618071634));
#541=CARTESIAN_POINT('Origin',(-73.8904254203842,-0.589909663848649,46.1803618071634));
#542=CARTESIAN_POINT('Origin',(-73.8904254203842,-0.589909663848649,46.1803618071634));
#543=CARTESIAN_POINT('Origin',(-73.8904254203842,-0.589909663848649,45.284649485989));
#544=CARTESIAN_POINT('',(-49.9404254203842,-0.589909663848646,45.284649485989));
#545=CARTESIAN_POINT('Origin',(-73.8904254203842,-0.589909663848649,45.284649485989));
#546=CARTESIAN_POINT('Origin',(-50.9404254203842,-0.589909663848652,45.284649485989));
#547=CARTESIAN_POINT('Origin',(-73.8904254203842,-0.589909663848649,54.5000025779008));
#548=CARTESIAN_POINT('',(-49.9404254203842,-0.589909663848652,44.2488078393521));
#549=CARTESIAN_POINT('Origin',(-73.8904254203842,-0.589909663848649,44.2488078393521));
#550=CARTESIAN_POINT('',(-49.9404254203842,-0.589909663848652,54.5000025779008));
#551=CARTESIAN_POINT('Origin',(-73.8904254203842,-0.589909663848649,44.2488078393521));
#552=CARTESIAN_POINT('',(-50.8445639047117,-0.589909663848646,41.9011487943776));
#553=CARTESIAN_POINT('Origin',(-73.8904254203842,-0.589909663848649,41.9011487943776));
#554=CARTESIAN_POINT('Origin',(-53.4404254203842,-0.589909663848651,44.2488078393521));
#555=CARTESIAN_POINT('Origin',(-73.8904254203842,-0.589909663848649,36.8704508408608));
#556=CARTESIAN_POINT('Origin',(-45.282003513985,-0.589909663848653,36.8704508408608));
#557=CARTESIAN_POINT('Origin',(-73.8904254203842,-0.589909663848649,47.6273093806183));
#558=CARTESIAN_POINT('',(-52.3904254203842,-0.589909663848646,46.9920976595294));
#559=CARTESIAN_POINT('Origin',(-73.8904254203842,-0.589909663848649,46.9920976595294));
#560=CARTESIAN_POINT('',(-52.6340218038934,-0.589909663848649,47.6273093806183));
#561=CARTESIAN_POINT('Origin',(-51.6840218038934,-0.589909663848649,47.6273093806183));
#562=CARTESIAN_POINT('',(-95.146829036875,-0.589909663848652,47.6273093806183));
#563=CARTESIAN_POINT('Origin',(-73.8904254203842,-0.589909663848649,47.6273093806183));
#564=CARTESIAN_POINT('Origin',(-73.8904254203842,-0.589909663848649,47.6273093806183));
#565=CARTESIAN_POINT('Origin',(-73.8904254203842,-0.589909663848649,54.5000025779008));
#566=CARTESIAN_POINT('',(-95.3904254203842,-0.589909663848654,48.9079078837024));
#567=CARTESIAN_POINT('',(-52.3904254203842,-0.589909663848652,48.9079078837024));
#568=CARTESIAN_POINT('Origin',(-73.8904254203842,-0.589909663848649,48.9079078837024));
#569=CARTESIAN_POINT('Origin',(-73.8904254203842,-0.589909663848649,48.9079078837024));
#570=CARTESIAN_POINT('',(-52.3904254203842,-0.589909663848652,54.5000025779008));
#571=CARTESIAN_POINT('Origin',(-73.8904254203842,-0.589909663848649,48.2726961626135));
#572=CARTESIAN_POINT('',(-95.146829036875,-0.589909663848654,48.2726961626135));
#573=CARTESIAN_POINT('Origin',(-96.096829036875,-0.589909663848655,48.2726961626135));
#574=CARTESIAN_POINT('Origin',(-73.8904254203842,-0.589909663848649,48.2726961626135));
#575=CARTESIAN_POINT('Origin',(-73.8904254203842,-0.589909663848649,43.0000025779008));
#576=CARTESIAN_POINT('',(-95.146829036875,-0.589909663848652,43.0000025779008));
#577=UNCERTAINTY_MEASURE_WITH_UNIT(LENGTH_MEASURE(0.01),#581,
'DISTANCE_ACCURACY_VALUE',
'Maximum model space distance between geometric entities at asserted c
onnectivities');
#578=UNCERTAINTY_MEASURE_WITH_UNIT(LENGTH_MEASURE(0.01),#581,
'DISTANCE_ACCURACY_VALUE',
'Maximum model space distance between geometric entities at asserted c
onnectivities');
#579=(
GEOMETRIC_REPRESENTATION_CONTEXT(3)
GLOBAL_UNCERTAINTY_ASSIGNED_CONTEXT((#577))
GLOBAL_UNIT_ASSIGNED_CONTEXT((#581,#583,#584))
REPRESENTATION_CONTEXT('','3D')
);
#580=(
GEOMETRIC_REPRESENTATION_CONTEXT(3)
GLOBAL_UNCERTAINTY_ASSIGNED_CONTEXT((#578))
GLOBAL_UNIT_ASSIGNED_CONTEXT((#581,#583,#584))
REPRESENTATION_CONTEXT('','3D')
);
#581=(
LENGTH_UNIT()
NAMED_UNIT(*)
SI_UNIT(.MILLI.,.METRE.)
);
#582=(
LENGTH_UNIT()
NAMED_UNIT(*)
SI_UNIT($,.METRE.)
);
#583=(
NAMED_UNIT(*)
PLANE_ANGLE_UNIT()
SI_UNIT($,.RADIAN.)
);
#584=(
NAMED_UNIT(*)
SI_UNIT($,.STERADIAN.)
SOLID_ANGLE_UNIT()
);
#585=SHAPE_DEFINITION_REPRESENTATION(#586,#587);
#586=PRODUCT_DEFINITION_SHAPE('',$,#589);
#587=SHAPE_REPRESENTATION('',(#246),#579);
#588=PRODUCT_DEFINITION_CONTEXT('part definition',#593,'design');
#589=PRODUCT_DEFINITION('throttle body bore (id) rubber size (od)',
'throttle body bore (id) rubber size (od)',#590,#588);
#590=PRODUCT_DEFINITION_FORMATION('',$,#595);
#591=PRODUCT_RELATED_PRODUCT_CATEGORY(
'throttle body bore (id) rubber size (od)',
'throttle body bore (id) rubber size (od)',(#595));
#592=APPLICATION_PROTOCOL_DEFINITION('international standard',
'automotive_design',2009,#593);
#593=APPLICATION_CONTEXT(
'Core Data for Automotive Mechanical Design Process');
#594=PRODUCT_CONTEXT('part definition',#593,'mechanical');
#595=PRODUCT('throttle body bore (id) rubber size (od)',
'throttle body bore (id) rubber size (od)',$,(#594));
#596=PRESENTATION_STYLE_ASSIGNMENT((#598));
#597=PRESENTATION_STYLE_ASSIGNMENT((#599));
#598=SURFACE_STYLE_USAGE(.BOTH.,#600);
#599=SURFACE_STYLE_USAGE(.BOTH.,#601);
#600=SURFACE_SIDE_STYLE('',(#602));
#601=SURFACE_SIDE_STYLE('',(#603));
#602=SURFACE_STYLE_FILL_AREA(#604);
#603=SURFACE_STYLE_FILL_AREA(#605);
#604=FILL_AREA_STYLE('Steel - Satin',(#606));
#605=FILL_AREA_STYLE('Opaque(160,160,160)',(#607));
#606=FILL_AREA_STYLE_COLOUR('Steel - Satin',#608);
#607=FILL_AREA_STYLE_COLOUR('Opaque(160,160,160)',#609);
#608=COLOUR_RGB('Steel - Satin',0.627450980392157,0.627450980392157,0.627450980392157);
#609=COLOUR_RGB('Opaque(160,160,160)',0.627450980392157,0.627450980392157,
0.627450980392157);
ENDSEC;
END-ISO-10303-21;
