ISO-10303-21;
HEADER;
/* Generated by software containing ST-Developer
 * from STEP Tools, Inc. (www.steptools.com) 
 */

FILE_DESCRIPTION(
/* description */ (''),
/* implementation_level */ '2;1');

FILE_NAME(
/* name */ 'yamaha joint.step',
/* time_stamp */ '2026-06-21T21:38:01+07:00',
/* author */ (''),
/* organization */ (''),
/* preprocessor_version */ 'ST-DEVELOPER v20.1',
/* originating_system */ 'Autodesk Translation Framework v15.8.0.0',
/* authorisation */ '');

FILE_SCHEMA (('AUTOMOTIVE_DESIGN { 1 0 10303 214 3 1 1 }'));
ENDSEC;

DATA;
#10=MECHANICAL_DESIGN_GEOMETRIC_PRESENTATION_REPRESENTATION('',(#13),#304);
#11=SHAPE_REPRESENTATION_RELATIONSHIP('SRR','None',#311,#12);
#12=ADVANCED_BREP_SHAPE_REPRESENTATION('',(#14),#303);
#13=STYLED_ITEM('',(#320),#14);
#14=MANIFOLD_SOLID_BREP('yamaha joint',#164);
#15=FACE_BOUND('',#38,.T.);
#16=FACE_BOUND('',#39,.T.);
#17=FACE_BOUND('',#41,.T.);
#18=FACE_BOUND('',#42,.T.);
#19=PLANE('',#199);
#20=PLANE('',#200);
#21=FACE_OUTER_BOUND('',#30,.T.);
#22=FACE_OUTER_BOUND('',#31,.T.);
#23=FACE_OUTER_BOUND('',#32,.T.);
#24=FACE_OUTER_BOUND('',#33,.T.);
#25=FACE_OUTER_BOUND('',#34,.T.);
#26=FACE_OUTER_BOUND('',#35,.T.);
#27=FACE_OUTER_BOUND('',#36,.T.);
#28=FACE_OUTER_BOUND('',#37,.T.);
#29=FACE_OUTER_BOUND('',#40,.T.);
#30=EDGE_LOOP('',(#106,#107,#108,#109));
#31=EDGE_LOOP('',(#110,#111,#112,#113));
#32=EDGE_LOOP('',(#114,#115,#116,#117));
#33=EDGE_LOOP('',(#118,#119,#120,#121));
#34=EDGE_LOOP('',(#122,#123,#124,#125));
#35=EDGE_LOOP('',(#126,#127,#128,#129));
#36=EDGE_LOOP('',(#130,#131,#132,#133));
#37=EDGE_LOOP('',(#134,#135,#136,#137,#138));
#38=EDGE_LOOP('',(#139));
#39=EDGE_LOOP('',(#140));
#40=EDGE_LOOP('',(#141,#142,#143,#144,#145));
#41=EDGE_LOOP('',(#146));
#42=EDGE_LOOP('',(#147));
#43=LINE('',#261,#50);
#44=LINE('',#267,#51);
#45=LINE('',#274,#52);
#46=LINE('',#277,#53);
#47=LINE('',#283,#54);
#48=LINE('',#289,#55);
#49=LINE('',#295,#56);
#50=VECTOR('',#207,3.6);
#51=VECTOR('',#214,10.9);
#52=VECTOR('',#221,10.);
#53=VECTOR('',#224,10.);
#54=VECTOR('',#231,10.);
#55=VECTOR('',#238,10.);
#56=VECTOR('',#245,10.);
#57=CIRCLE('',#179,3.6);
#58=CIRCLE('',#180,3.6);
#59=CIRCLE('',#182,10.9);
#60=CIRCLE('',#183,10.9);
#61=CIRCLE('',#185,15.7035674504593);
#62=CIRCLE('',#186,15.7035674504593);
#63=CIRCLE('',#188,582.);
#64=CIRCLE('',#189,582.);
#65=CIRCLE('',#191,8.5);
#66=CIRCLE('',#192,8.5);
#67=CIRCLE('',#194,334.);
#68=CIRCLE('',#195,334.);
#69=CIRCLE('',#197,13.);
#70=CIRCLE('',#198,13.);
#71=VERTEX_POINT('',#258);
#72=VERTEX_POINT('',#260);
#73=VERTEX_POINT('',#264);
#74=VERTEX_POINT('',#266);
#75=VERTEX_POINT('',#270);
#76=VERTEX_POINT('',#271);
#77=VERTEX_POINT('',#273);
#78=VERTEX_POINT('',#275);
#79=VERTEX_POINT('',#279);
#80=VERTEX_POINT('',#281);
#81=VERTEX_POINT('',#285);
#82=VERTEX_POINT('',#287);
#83=VERTEX_POINT('',#291);
#84=VERTEX_POINT('',#293);
#85=EDGE_CURVE('',#71,#71,#57,.T.);
#86=EDGE_CURVE('',#71,#72,#43,.T.);
#87=EDGE_CURVE('',#72,#72,#58,.T.);
#88=EDGE_CURVE('',#73,#73,#59,.T.);
#89=EDGE_CURVE('',#73,#74,#44,.T.);
#90=EDGE_CURVE('',#74,#74,#60,.T.);
#91=EDGE_CURVE('',#75,#76,#61,.T.);
#92=EDGE_CURVE('',#76,#77,#45,.T.);
#93=EDGE_CURVE('',#78,#77,#62,.T.);
#94=EDGE_CURVE('',#75,#78,#46,.T.);
#95=EDGE_CURVE('',#75,#79,#63,.T.);
#96=EDGE_CURVE('',#80,#78,#64,.T.);
#97=EDGE_CURVE('',#79,#80,#47,.T.);
#98=EDGE_CURVE('',#79,#81,#65,.T.);
#99=EDGE_CURVE('',#82,#80,#66,.T.);
#100=EDGE_CURVE('',#81,#82,#48,.T.);
#101=EDGE_CURVE('',#81,#83,#67,.T.);
#102=EDGE_CURVE('',#84,#82,#68,.T.);
#103=EDGE_CURVE('',#83,#84,#49,.T.);
#104=EDGE_CURVE('',#83,#76,#69,.T.);
#105=EDGE_CURVE('',#77,#84,#70,.T.);
#106=ORIENTED_EDGE('',*,*,#85,.F.);
#107=ORIENTED_EDGE('',*,*,#86,.T.);
#108=ORIENTED_EDGE('',*,*,#87,.F.);
#109=ORIENTED_EDGE('',*,*,#86,.F.);
#110=ORIENTED_EDGE('',*,*,#88,.F.);
#111=ORIENTED_EDGE('',*,*,#89,.T.);
#112=ORIENTED_EDGE('',*,*,#90,.F.);
#113=ORIENTED_EDGE('',*,*,#89,.F.);
#114=ORIENTED_EDGE('',*,*,#91,.T.);
#115=ORIENTED_EDGE('',*,*,#92,.T.);
#116=ORIENTED_EDGE('',*,*,#93,.F.);
#117=ORIENTED_EDGE('',*,*,#94,.F.);
#118=ORIENTED_EDGE('',*,*,#95,.F.);
#119=ORIENTED_EDGE('',*,*,#94,.T.);
#120=ORIENTED_EDGE('',*,*,#96,.F.);
#121=ORIENTED_EDGE('',*,*,#97,.F.);
#122=ORIENTED_EDGE('',*,*,#98,.F.);
#123=ORIENTED_EDGE('',*,*,#97,.T.);
#124=ORIENTED_EDGE('',*,*,#99,.F.);
#125=ORIENTED_EDGE('',*,*,#100,.F.);
#126=ORIENTED_EDGE('',*,*,#101,.F.);
#127=ORIENTED_EDGE('',*,*,#100,.T.);
#128=ORIENTED_EDGE('',*,*,#102,.F.);
#129=ORIENTED_EDGE('',*,*,#103,.F.);
#130=ORIENTED_EDGE('',*,*,#104,.F.);
#131=ORIENTED_EDGE('',*,*,#103,.T.);
#132=ORIENTED_EDGE('',*,*,#105,.F.);
#133=ORIENTED_EDGE('',*,*,#92,.F.);
#134=ORIENTED_EDGE('',*,*,#105,.T.);
#135=ORIENTED_EDGE('',*,*,#102,.T.);
#136=ORIENTED_EDGE('',*,*,#99,.T.);
#137=ORIENTED_EDGE('',*,*,#96,.T.);
#138=ORIENTED_EDGE('',*,*,#93,.T.);
#139=ORIENTED_EDGE('',*,*,#88,.T.);
#140=ORIENTED_EDGE('',*,*,#85,.T.);
#141=ORIENTED_EDGE('',*,*,#104,.T.);
#142=ORIENTED_EDGE('',*,*,#91,.F.);
#143=ORIENTED_EDGE('',*,*,#95,.T.);
#144=ORIENTED_EDGE('',*,*,#98,.T.);
#145=ORIENTED_EDGE('',*,*,#101,.T.);
#146=ORIENTED_EDGE('',*,*,#90,.T.);
#147=ORIENTED_EDGE('',*,*,#87,.T.);
#148=CYLINDRICAL_SURFACE('',#178,3.6);
#149=CYLINDRICAL_SURFACE('',#181,10.9);
#150=CYLINDRICAL_SURFACE('',#184,15.7035674504593);
#151=CYLINDRICAL_SURFACE('',#187,582.);
#152=CYLINDRICAL_SURFACE('',#190,8.5);
#153=CYLINDRICAL_SURFACE('',#193,334.);
#154=CYLINDRICAL_SURFACE('',#196,13.);
#155=ADVANCED_FACE('',(#21),#148,.F.);
#156=ADVANCED_FACE('',(#22),#149,.F.);
#157=ADVANCED_FACE('',(#23),#150,.T.);
#158=ADVANCED_FACE('',(#24),#151,.F.);
#159=ADVANCED_FACE('',(#25),#152,.T.);
#160=ADVANCED_FACE('',(#26),#153,.F.);
#161=ADVANCED_FACE('',(#27),#154,.T.);
#162=ADVANCED_FACE('',(#28,#15,#16),#19,.F.);
#163=ADVANCED_FACE('',(#29,#17,#18),#20,.T.);
#164=CLOSED_SHELL('',(#155,#156,#157,#158,#159,#160,#161,#162,#163));
#165=DERIVED_UNIT_ELEMENT(#167,1.);
#166=DERIVED_UNIT_ELEMENT(#306,-3.);
#167=(
MASS_UNIT()
NAMED_UNIT(*)
SI_UNIT(.KILO.,.GRAM.)
);
#168=DERIVED_UNIT((#165,#166));
#169=MEASURE_REPRESENTATION_ITEM('density measure',
POSITIVE_RATIO_MEASURE(7850.),#168);
#170=PROPERTY_DEFINITION_REPRESENTATION(#175,#172);
#171=PROPERTY_DEFINITION_REPRESENTATION(#176,#173);
#172=REPRESENTATION('material name',(#174),#303);
#173=REPRESENTATION('density',(#169),#303);
#174=DESCRIPTIVE_REPRESENTATION_ITEM('Steel','Steel');
#175=PROPERTY_DEFINITION('material property','material name',#313);
#176=PROPERTY_DEFINITION('material property','density of part',#313);
#177=AXIS2_PLACEMENT_3D('',#256,#201,#202);
#178=AXIS2_PLACEMENT_3D('',#257,#203,#204);
#179=AXIS2_PLACEMENT_3D('',#259,#205,#206);
#180=AXIS2_PLACEMENT_3D('',#262,#208,#209);
#181=AXIS2_PLACEMENT_3D('',#263,#210,#211);
#182=AXIS2_PLACEMENT_3D('',#265,#212,#213);
#183=AXIS2_PLACEMENT_3D('',#268,#215,#216);
#184=AXIS2_PLACEMENT_3D('',#269,#217,#218);
#185=AXIS2_PLACEMENT_3D('',#272,#219,#220);
#186=AXIS2_PLACEMENT_3D('',#276,#222,#223);
#187=AXIS2_PLACEMENT_3D('',#278,#225,#226);
#188=AXIS2_PLACEMENT_3D('',#280,#227,#228);
#189=AXIS2_PLACEMENT_3D('',#282,#229,#230);
#190=AXIS2_PLACEMENT_3D('',#284,#232,#233);
#191=AXIS2_PLACEMENT_3D('',#286,#234,#235);
#192=AXIS2_PLACEMENT_3D('',#288,#236,#237);
#193=AXIS2_PLACEMENT_3D('',#290,#239,#240);
#194=AXIS2_PLACEMENT_3D('',#292,#241,#242);
#195=AXIS2_PLACEMENT_3D('',#294,#243,#244);
#196=AXIS2_PLACEMENT_3D('',#296,#246,#247);
#197=AXIS2_PLACEMENT_3D('',#297,#248,#249);
#198=AXIS2_PLACEMENT_3D('',#298,#250,#251);
#199=AXIS2_PLACEMENT_3D('',#299,#252,#253);
#200=AXIS2_PLACEMENT_3D('',#300,#254,#255);
#201=DIRECTION('axis',(0.,0.,1.));
#202=DIRECTION('refdir',(1.,0.,0.));
#203=DIRECTION('center_axis',(-0.557744599670699,4.15704633049963E-6,0.830012627326169));
#204=DIRECTION('ref_axis',(-7.45331525008346E-6,-0.999999999972224,8.24603591198749E-18));
#205=DIRECTION('center_axis',(0.557744599670699,-4.15704633048969E-6,-0.830012627326169));
#206=DIRECTION('ref_axis',(-7.45331525007792E-6,-0.999999999972224,-9.77436360583483E-24));
#207=DIRECTION('',(0.557744599670699,-4.15704633049963E-6,-0.830012627326169));
#208=DIRECTION('center_axis',(-0.557744599670699,4.15704633048969E-6,0.830012627326169));
#209=DIRECTION('ref_axis',(-7.45331525007792E-6,-0.999999999972224,-4.2351647362715E-22));
#210=DIRECTION('center_axis',(-0.557744599670699,4.15704633049963E-6,0.830012627326169));
#211=DIRECTION('ref_axis',(-7.45331525008346E-6,-0.999999999972224,8.24461679601115E-18));
#212=DIRECTION('center_axis',(0.557744599670699,-4.15704633048969E-6,-0.830012627326169));
#213=DIRECTION('ref_axis',(-7.45331525007792E-6,-0.999999999972224,-8.56807310860135E-22));
#214=DIRECTION('',(0.557744599670699,-4.15704633049963E-6,-0.830012627326169));
#215=DIRECTION('center_axis',(-0.557744599670699,4.15704633048969E-6,0.830012627326169));
#216=DIRECTION('ref_axis',(-7.45331525007792E-6,-0.999999999972224,-1.27054942088145E-21));
#217=DIRECTION('center_axis',(-0.557744599670699,4.15704633049963E-6,0.830012627326169));
#218=DIRECTION('ref_axis',(0.805847489676442,-0.239540031457398,0.541507522303767));
#219=DIRECTION('center_axis',(-0.557744599670699,4.15704633049277E-6,0.830012627326169));
#220=DIRECTION('ref_axis',(0.805847489676442,-0.239540031457398,0.541507522303767));
#221=DIRECTION('',(-0.557744599670699,4.15704633049963E-6,0.830012627326169));
#222=DIRECTION('center_axis',(-0.557744599670699,4.15704633049277E-6,0.830012627326169));
#223=DIRECTION('ref_axis',(0.805847489676442,-0.239540031457398,0.541507522303767));
#224=DIRECTION('',(-0.557744599670699,4.15704633049963E-6,0.830012627326169));
#225=DIRECTION('center_axis',(-0.557744599670699,4.15704633049963E-6,0.830012627326169));
#226=DIRECTION('ref_axis',(0.811543939240382,-0.209775901361425,0.545335223408689));
#227=DIRECTION('center_axis',(-0.557744599670699,4.15704633048969E-6,0.830012627326169));
#228=DIRECTION('ref_axis',(0.811543939240382,-0.209775901361425,0.54533522340869));
#229=DIRECTION('center_axis',(0.557744599670699,-4.15704633048969E-6,-0.830012627326169));
#230=DIRECTION('ref_axis',(0.811543939240382,-0.209775901361425,0.54533522340869));
#231=DIRECTION('',(-0.557744599670699,4.15704633049963E-6,0.830012627326169));
#232=DIRECTION('center_axis',(-0.557744599670699,4.15704633049963E-6,0.830012627326169));
#233=DIRECTION('ref_axis',(7.37636867723889E-6,-0.999999999923143,9.96512083404714E-6));
#234=DIRECTION('center_axis',(0.557744599670699,-4.15704633048969E-6,-0.830012627326169));
#235=DIRECTION('ref_axis',(7.37636867724443E-6,-0.999999999923143,9.9651208340389E-6));
#236=DIRECTION('center_axis',(-0.557744599670699,4.15704633048969E-6,0.830012627326169));
#237=DIRECTION('ref_axis',(7.37636867724444E-6,-0.999999999923143,9.9651208340389E-6));
#238=DIRECTION('',(-0.557744599670699,4.15704633049963E-6,0.830012627326169));
#239=DIRECTION('center_axis',(-0.557744599670699,4.15704633049963E-6,0.830012627326169));
#240=DIRECTION('ref_axis',(-0.810590074362346,-0.215067941273371,-0.544692125867154));
#241=DIRECTION('center_axis',(-0.557744599670699,4.15704633048969E-6,0.830012627326169));
#242=DIRECTION('ref_axis',(-0.810590074362346,-0.215067941273371,-0.544692125867154));
#243=DIRECTION('center_axis',(0.557744599670699,-4.15704633048969E-6,-0.830012627326169));
#244=DIRECTION('ref_axis',(-0.810590074362346,-0.215067941273371,-0.544692125867154));
#245=DIRECTION('',(-0.557744599670699,4.15704633049963E-6,0.830012627326169));
#246=DIRECTION('center_axis',(-0.557744599670699,4.15704633049963E-6,0.830012627326169));
#247=DIRECTION('ref_axis',(0.566451110699867,0.730924069625259,0.380635184434305));
#248=DIRECTION('center_axis',(0.557744599670699,-4.15704633048969E-6,-0.830012627326169));
#249=DIRECTION('ref_axis',(0.566451110699867,0.730924069625259,0.380635184434305));
#250=DIRECTION('center_axis',(-0.557744599670699,4.15704633048969E-6,0.830012627326169));
#251=DIRECTION('ref_axis',(0.566451110699867,0.730924069625259,0.380635184434305));
#252=DIRECTION('center_axis',(0.557744599670699,-4.15704633048969E-6,-0.830012627326169));
#253=DIRECTION('ref_axis',(7.37636867724444E-6,-0.999999999923143,9.9651208340389E-6));
#254=DIRECTION('center_axis',(0.557744599670699,-4.15704633048969E-6,-0.830012627326169));
#255=DIRECTION('ref_axis',(7.37636867724443E-6,-0.999999999923143,9.9651208340389E-6));
#256=CARTESIAN_POINT('',(0.,0.,0.));
#257=CARTESIAN_POINT('Origin',(-102.091561516887,-19.3486137290715,27.0299048121716));
#258=CARTESIAN_POINT('',(-105.438002282976,-15.7485887868935,32.0099805761286));
#259=CARTESIAN_POINT('Origin',(-105.438029114911,-19.3485887867935,32.0099805761286));
#260=CARTESIAN_POINT('',(-102.091534684952,-15.7486137291715,27.0299048121716));
#261=CARTESIAN_POINT('',(-102.091534684952,-15.7486137291715,27.0299048121716));
#262=CARTESIAN_POINT('Origin',(-102.091561516887,-19.3486137290715,27.0299048121716));
#263=CARTESIAN_POINT('Origin',(-102.464990062631,-0.023553453494632,26.7788747879736));
#264=CARTESIAN_POINT('',(-105.811376419519,10.8764714884806,31.7589505519306));
#265=CARTESIAN_POINT('Origin',(-105.811457660655,-0.0235285112166484,31.7589505519306));
#266=CARTESIAN_POINT('',(-102.464908821495,10.8764465462026,26.7788747879736));
#267=CARTESIAN_POINT('',(-102.464908821494,10.8764465462026,26.7788747879736));
#268=CARTESIAN_POINT('Origin',(-102.464990062631,-0.023553453494632,26.7788747879736));
#269=CARTESIAN_POINT('Origin',(-104.771446193787,0.00146835311033746,25.2290025171258));
#270=CARTESIAN_POINT('',(-92.1167657848707,-3.76016468796631,33.7326024185531));
#271=CARTESIAN_POINT('',(-92.0048879155079,3.16724996980528,33.807746431816));
#272=CARTESIAN_POINT('Origin',(-104.771446193787,0.00146835311033746,25.2290025171258));
#273=CARTESIAN_POINT('',(-95.3513555135321,3.16727491208326,38.787822195773));
#274=CARTESIAN_POINT('',(-92.0048879155079,3.16724996980528,33.807746431816));
#275=CARTESIAN_POINT('',(-95.4632333828949,-3.76013974568833,38.7126781825101));
#276=CARTESIAN_POINT('Origin',(-108.117913791811,0.00149329538832101,30.2090782810828));
#277=CARTESIAN_POINT('',(-92.1167657848707,-3.76016468796631,33.7326024185531));
#278=CARTESIAN_POINT('Origin',(376.886473206809,-143.17246299622,348.889980399339));
#279=CARTESIAN_POINT('',(-95.4320994310937,-21.0828884038707,31.5048803754815));
#280=CARTESIAN_POINT('Origin',(376.886473206809,-143.17246299622,348.889980399339));
#281=CARTESIAN_POINT('',(-98.7785670291179,-21.0828634615927,36.4849561394385));
#282=CARTESIAN_POINT('Origin',(373.540005608785,-143.172438053942,353.870056163296));
#283=CARTESIAN_POINT('',(-95.4320994310937,-21.0828884038707,31.5048803754815));
#284=CARTESIAN_POINT('Origin',(-102.330222914637,-19.2997932422987,26.8695309765076));
#285=CARTESIAN_POINT('',(-109.220238546717,-21.1278707431249,22.2396479066368));
#286=CARTESIAN_POINT('Origin',(-102.330222914637,-19.2997932422987,26.8695309765076));
#287=CARTESIAN_POINT('',(-112.566706144741,-21.1278458008469,27.2197236705938));
#288=CARTESIAN_POINT('Origin',(-105.676690512661,-19.2997683000207,31.8496067404646));
#289=CARTESIAN_POINT('',(-109.220238546717,-21.1278707431249,22.2396479066368));
#290=CARTESIAN_POINT('Origin',(-379.957323383741,-92.9605631284281,-159.687522132993));
#291=CARTESIAN_POINT('',(-112.860956440655,-3.50534344131634,19.7931019926637));
#292=CARTESIAN_POINT('Origin',(-379.957323383741,-92.9605631284281,-159.687522132993));
#293=CARTESIAN_POINT('',(-116.207424038679,-3.50531849903836,24.7731777566207));
#294=CARTESIAN_POINT('Origin',(-383.303790981765,-92.9605381861501,-154.707446369036));
#295=CARTESIAN_POINT('',(-112.860956440655,-3.50534344131634,19.7931019926637));
#296=CARTESIAN_POINT('Origin',(-102.464990062631,-0.0235534534946298,26.7788747879736));
#297=CARTESIAN_POINT('Origin',(-102.464990062631,-0.0235534534946298,26.7788747879736));
#298=CARTESIAN_POINT('Origin',(-105.811457660655,-0.0235285112166463,31.7589505519306));
#299=CARTESIAN_POINT('Origin',(-105.811403163152,-7.41164935305611,31.7590241754475));
#300=CARTESIAN_POINT('Origin',(-102.464935565128,-7.41167429533409,26.7789484114905));
#301=UNCERTAINTY_MEASURE_WITH_UNIT(LENGTH_MEASURE(0.01),#305,
'DISTANCE_ACCURACY_VALUE',
'Maximum model space distance between geometric entities at asserted c
onnectivities');
#302=UNCERTAINTY_MEASURE_WITH_UNIT(LENGTH_MEASURE(0.01),#305,
'DISTANCE_ACCURACY_VALUE',
'Maximum model space distance between geometric entities at asserted c
onnectivities');
#303=(
GEOMETRIC_REPRESENTATION_CONTEXT(3)
GLOBAL_UNCERTAINTY_ASSIGNED_CONTEXT((#301))
GLOBAL_UNIT_ASSIGNED_CONTEXT((#305,#307,#308))
REPRESENTATION_CONTEXT('','3D')
);
#304=(
GEOMETRIC_REPRESENTATION_CONTEXT(3)
GLOBAL_UNCERTAINTY_ASSIGNED_CONTEXT((#302))
GLOBAL_UNIT_ASSIGNED_CONTEXT((#305,#307,#308))
REPRESENTATION_CONTEXT('','3D')
);
#305=(
LENGTH_UNIT()
NAMED_UNIT(*)
SI_UNIT(.MILLI.,.METRE.)
);
#306=(
LENGTH_UNIT()
NAMED_UNIT(*)
SI_UNIT($,.METRE.)
);
#307=(
NAMED_UNIT(*)
PLANE_ANGLE_UNIT()
SI_UNIT($,.RADIAN.)
);
#308=(
NAMED_UNIT(*)
SI_UNIT($,.STERADIAN.)
SOLID_ANGLE_UNIT()
);
#309=SHAPE_DEFINITION_REPRESENTATION(#310,#311);
#310=PRODUCT_DEFINITION_SHAPE('',$,#313);
#311=SHAPE_REPRESENTATION('',(#177),#303);
#312=PRODUCT_DEFINITION_CONTEXT('part definition',#317,'design');
#313=PRODUCT_DEFINITION('yamaha joint','yamaha joint',#314,#312);
#314=PRODUCT_DEFINITION_FORMATION('',$,#319);
#315=PRODUCT_RELATED_PRODUCT_CATEGORY('yamaha joint','yamaha joint',(#319));
#316=APPLICATION_PROTOCOL_DEFINITION('international standard',
'automotive_design',2009,#317);
#317=APPLICATION_CONTEXT(
'Core Data for Automotive Mechanical Design Process');
#318=PRODUCT_CONTEXT('part definition',#317,'mechanical');
#319=PRODUCT('yamaha joint','yamaha joint',$,(#318));
#320=PRESENTATION_STYLE_ASSIGNMENT((#321));
#321=SURFACE_STYLE_USAGE(.BOTH.,#322);
#322=SURFACE_SIDE_STYLE('',(#323));
#323=SURFACE_STYLE_FILL_AREA(#324);
#324=FILL_AREA_STYLE('Steel - Satin',(#325));
#325=FILL_AREA_STYLE_COLOUR('Steel - Satin',#326);
#326=COLOUR_RGB('Steel - Satin',0.627450980392157,0.627450980392157,0.627450980392157);
ENDSEC;
END-ISO-10303-21;
